<?xml version="1.0" standalone="no"?>
<!DOCTYPE svg PUBLIC "-//W3C//DTD SVG 1.1//EN" 
  "http://www.w3.org/Graphics/SVG/1.1/DTD/svg11.dtd">
<svg width="1024" height="1024" viewBox="0 0 1024 1024"
     xmlns="http://www.w3.org/2000/svg" version="1.1">
<desc>'lancia_y10.blend', Cube, (Blender 2.79 (sub 0))</desc>
<polygon stroke="black" stroke-width="1" fill="rgb(36, 204, 196)" fill-opacity="0.25" points="179.982,781.602 164.086,791.398 256.637,829.697 " />
<polygon stroke="black" stroke-width="1" fill="rgb(36, 204, 196)" fill-opacity="0.25" points="436.789,782.868 371.232,869.152 450.351,869.166 " />
<polygon stroke="black" stroke-width="1" fill="rgb(36, 204, 196)" fill-opacity="0.25" points="436.789,782.868 322.064,829.504 355.680,848.872 " />
<polygon stroke="black" stroke-width="1" fill="rgb(36, 204, 196)" fill-opacity="0.25" points="322.064,829.504 436.789,782.868 256.637,829.697 " />
<polygon stroke="black" stroke-width="1" fill="rgb(36, 204, 196)" fill-opacity="0.25" points="436.789,782.868 179.982,781.602 256.637,829.697 " />
<polygon stroke="black" stroke-width="1" fill="rgb(36, 204, 196)" fill-opacity="0.25" points="371.232,869.152 376.001,890.835 453.227,890.850 450.351,869.166 " />
<polygon stroke="black" stroke-width="1" fill="rgb(36, 204, 196)" fill-opacity="0.25" points="371.232,869.152 436.789,782.868 355.680,848.872 " />
<polygon stroke="black" stroke-width="1" fill="rgb(36, 204, 196)" fill-opacity="0.25" points="553.371,999.897 564.745,968.049 537.277,932.233 517.522,941.079 " />
<polygon stroke="black" stroke-width="1" fill="rgb(36, 204, 196)" fill-opacity="0.25" points="164.086,791.398 166.348,829.679 256.637,829.697 " />
<polygon stroke="black" stroke-width="1" fill="rgb(36, 204, 196)" fill-opacity="0.25" points="576.401,473.625 576.343,532.756 630.435,533.027 630.986,473.625 " />
<polygon stroke="black" stroke-width="1" fill="rgb(36, 204, 196)" fill-opacity="0.25" points="748.265,949.502 572.839,949.617 564.745,968.049 748.264,967.924 " />
<polygon stroke="black" stroke-width="1" fill="rgb(36, 204, 196)" fill-opacity="0.25" points="62.604,476.206 68.687,651.034 81.140,631.722 81.038,631.530 75.237,475.992 " />
<polygon stroke="black" stroke-width="1" fill="rgb(36, 204, 196)" fill-opacity="0.25" points="177.030,474.266 175.859,534.223 186.218,534.444 186.475,474.106 " />
<polygon stroke="black" stroke-width="1" fill="rgb(36, 204, 196)" fill-opacity="0.25" points="186.475,474.106 186.218,534.444 203.967,535.531 204.359,473.802 " />
<polygon stroke="black" stroke-width="1" fill="rgb(36, 204, 196)" fill-opacity="0.25" points="769.404,473.546 766.840,636.622 975.038,629.565 976.611,473.546 " />
<polygon stroke="black" stroke-width="1" fill="rgb(36, 204, 196)" fill-opacity="0.25" points="260.236,935.590 89.258,933.032 191.382,937.986 260.236,938.939 " />
<polygon stroke="black" stroke-width="1" fill="rgb(36, 204, 196)" fill-opacity="0.25" points="209.537,473.625 209.424,533.251 418.417,532.929 418.392,473.625 " />
<polygon stroke="black" stroke-width="1" fill="rgb(36, 204, 196)" fill-opacity="0.25" points="630.986,473.625 630.435,533.027 642.174,533.274 647.210,473.625 " />
<polygon stroke="black" stroke-width="1" fill="rgb(36, 204, 196)" fill-opacity="0.25" points="418.392,473.625 418.417,532.929 576.343,532.756 576.401,473.625 " />
<polygon stroke="black" stroke-width="1" fill="rgb(36, 204, 196)" fill-opacity="0.25" points="1002.746,787.047 998.377,770.077 743.603,744.517 743.743,783.964 " />
<polygon stroke="black" stroke-width="1" fill="rgb(36, 204, 196)" fill-opacity="0.25" points="436.789,782.868 431.690,732.870 185.549,727.822 179.982,781.602 " />
<polygon stroke="black" stroke-width="1" fill="rgb(36, 204, 196)" fill-opacity="0.25" points="431.690,732.870 430.990,725.408 203.442,720.849 185.549,727.822 " />
<polygon stroke="black" stroke-width="1" fill="rgb(36, 204, 196)" fill-opacity="0.25" points="613.026,626.847 631.461,609.723 577.780,599.371 577.864,619.099 " />
<polygon stroke="black" stroke-width="1" fill="rgb(36, 204, 196)" fill-opacity="0.25" points="577.864,619.099 577.780,599.371 419.341,596.913 420.698,615.893 " />
<polygon stroke="black" stroke-width="1" fill="rgb(36, 204, 196)" fill-opacity="0.25" points="420.698,615.893 419.341,596.913 209.567,609.435 207.817,625.915 224.803,625.247 " />
<polygon stroke="black" stroke-width="1" fill="rgb(36, 204, 196)" fill-opacity="0.25" points="537.277,932.233 564.745,968.049 572.839,949.617 554.774,924.475 " />
<polygon stroke="black" stroke-width="1" fill="rgb(36, 204, 196)" fill-opacity="0.25" points="748.264,967.924 564.745,968.049 553.371,999.897 748.264,1000.254 " />
<polygon stroke="black" stroke-width="1" fill="rgb(36, 204, 196)" fill-opacity="0.25" points="776.257,893.289 376.146,893.428 380.314,912.333 774.661,912.196 " />
<polygon stroke="black" stroke-width="1" fill="rgb(36, 204, 196)" fill-opacity="0.25" points="743.605,868.907 743.654,890.595 775.193,889.857 776.499,868.137 " />
<polygon stroke="black" stroke-width="1" fill="rgb(36, 204, 196)" fill-opacity="0.25" points="743.743,783.964 743.605,868.907 776.499,868.137 780.077,856.693 " />
<polygon stroke="black" stroke-width="1" fill="rgb(36, 204, 196)" fill-opacity="0.25" points="976.611,473.546 975.038,629.565 1000.443,628.542 1002.278,473.546 " />
<polygon stroke="black" stroke-width="1" fill="rgb(36, 204, 196)" fill-opacity="0.25" points="975.038,629.565 719.493,660.435 735.759,677.805 990.299,647.499 " />
<polygon stroke="black" stroke-width="1" fill="rgb(36, 204, 196)" fill-opacity="0.25" points="822.418,801.983 844.066,809.232 887.795,810.264 908.316,801.406 1002.746,787.047 743.743,783.964 " />
<polygon stroke="black" stroke-width="1" fill="rgb(36, 204, 196)" fill-opacity="0.25" points="932.387,817.838 933.940,821.096 1009.824,816.927 1009.180,813.678 " />
<polygon stroke="black" stroke-width="1" fill="rgb(36, 204, 196)" fill-opacity="0.25" points="780.077,856.693 797.518,822.458 743.743,783.964 " />
<polygon stroke="black" stroke-width="1" fill="rgb(36, 204, 196)" fill-opacity="0.25" points="908.316,801.406 932.387,817.838 1009.180,813.678 1002.746,787.047 " />
<polygon stroke="black" stroke-width="1" fill="rgb(36, 204, 196)" fill-opacity="0.25" points="19.687,949.886 31.826,991.965 76.723,986.478 89.258,933.032 " />
<polygon stroke="black" stroke-width="1" fill="rgb(36, 204, 196)" fill-opacity="0.25" points="797.518,822.458 822.418,801.983 743.743,783.964 " />
<polygon stroke="black" stroke-width="1" fill="rgb(36, 204, 196)" fill-opacity="0.25" points="975.038,629.565 766.840,636.622 719.493,660.435 " />
<polygon stroke="black" stroke-width="1" fill="rgb(36, 204, 196)" fill-opacity="0.25" points="455.141,869.007 458.053,890.689 735.762,890.728 736.143,869.046 " />
<polygon stroke="black" stroke-width="1" fill="rgb(36, 204, 196)" fill-opacity="0.25" points="737.911,784.117 737.920,744.552 437.068,732.863 442.036,782.726 " />
<polygon stroke="black" stroke-width="1" fill="rgb(36, 204, 196)" fill-opacity="0.25" points="574.363,623.829 425.601,618.245 444.337,622.071 571.593,626.028 " />
<polygon stroke="black" stroke-width="1" fill="rgb(36, 204, 196)" fill-opacity="0.25" points="737.920,744.552 714.339,734.270 457.854,725.950 437.068,732.863 " />
<polygon stroke="black" stroke-width="1" fill="rgb(36, 204, 196)" fill-opacity="0.25" points="609.106,631.828 579.618,624.026 571.593,626.028 604.820,634.346 " />
<polygon stroke="black" stroke-width="1" fill="rgb(36, 204, 196)" fill-opacity="0.25" points="442.036,782.726 455.141,869.007 736.143,869.046 737.911,784.117 " />
<polygon stroke="black" stroke-width="1" fill="rgb(36, 204, 196)" fill-opacity="0.25" points="765.904,473.546 755.432,633.299 766.840,636.622 769.404,473.546 " />
<polygon stroke="black" stroke-width="1" fill="rgb(36, 204, 196)" fill-opacity="0.25" points="613.026,626.847 619.716,624.827 634.688,611.536 631.461,609.723 " />
<polygon stroke="black" stroke-width="1" fill="rgb(36, 204, 196)" fill-opacity="0.25" points="718.496,654.568 719.493,660.435 766.840,636.622 755.432,633.299 " />
<polygon stroke="black" stroke-width="1" fill="rgb(36, 204, 196)" fill-opacity="0.25" points="714.339,734.270 737.920,744.552 725.578,723.633 710.347,727.181 " />
<polygon stroke="black" stroke-width="1" fill="rgb(36, 204, 196)" fill-opacity="0.25" points="710.347,727.181 725.578,723.633 613.556,633.006 604.820,634.346 " />
<polygon stroke="black" stroke-width="1" fill="rgb(36, 204, 196)" fill-opacity="0.25" points="444.337,622.071 425.601,618.245 437.068,732.863 457.854,725.950 " />
<polygon stroke="black" stroke-width="1" fill="rgb(36, 204, 196)" fill-opacity="0.25" points="571.593,626.028 579.618,624.026 574.363,623.829 " />
<polygon stroke="black" stroke-width="1" fill="rgb(36, 204, 196)" fill-opacity="0.25" points="604.820,634.346 613.556,633.006 609.106,631.828 " />
<polygon stroke="black" stroke-width="1" fill="rgb(36, 204, 196)" fill-opacity="0.25" points="185.549,727.822 203.442,720.849 224.803,625.247 207.817,625.915 " />
<polygon stroke="black" stroke-width="1" fill="rgb(36, 204, 196)" fill-opacity="0.25" points="81.140,631.722 68.687,651.034 116.868,620.892 " />
<polygon stroke="black" stroke-width="1" fill="rgb(36, 204, 196)" fill-opacity="0.25" points="116.868,620.892 68.687,651.034 169.738,605.539 163.432,598.392 " />
<polygon stroke="black" stroke-width="1" fill="rgb(36, 204, 196)" fill-opacity="0.25" points="163.432,598.392 169.738,605.539 175.859,534.223 167.415,534.042 " />
<polygon stroke="black" stroke-width="1" fill="rgb(36, 204, 196)" fill-opacity="0.25" points="191.382,937.986 89.258,933.032 76.723,986.478 191.229,956.064 " />
<polygon stroke="black" stroke-width="1" fill="rgb(36, 204, 196)" fill-opacity="0.25" points="191.229,956.064 76.723,986.478 194.384,959.644 " />
<polygon stroke="black" stroke-width="1" fill="rgb(36, 204, 196)" fill-opacity="0.25" points="194.384,959.644 76.723,986.478 215.085,969.431 " />
<polygon stroke="black" stroke-width="1" fill="rgb(36, 204, 196)" fill-opacity="0.25" points="215.085,969.431 76.723,986.478 218.759,973.461 " />
<polygon stroke="black" stroke-width="1" fill="rgb(36, 204, 196)" fill-opacity="0.25" points="218.759,973.461 76.723,986.478 260.215,984.165 260.213,973.000 " />
<polygon stroke="black" stroke-width="1" fill="rgb(36, 204, 196)" fill-opacity="0.25" points="215.085,969.431 215.033,959.717 194.384,959.644 " />
<polygon stroke="black" stroke-width="1" fill="rgb(36, 204, 196)" fill-opacity="0.25" points="990.299,647.499 998.250,638.496 975.038,629.565 " />
<polygon stroke="black" stroke-width="1" fill="rgb(36, 204, 196)" fill-opacity="0.25" points="998.250,638.496 1000.443,628.542 975.038,629.565 " />
<polygon stroke="black" stroke-width="1" fill="rgb(36, 204, 196)" fill-opacity="0.25" points="642.174,533.274 630.435,533.027 632.044,598.162 635.909,598.500 " />
<polygon stroke="black" stroke-width="1" fill="rgb(36, 204, 196)" fill-opacity="0.25" points="418.417,532.929 209.424,533.251 207.796,597.863 418.387,592.326 " />
<polygon stroke="black" stroke-width="1" fill="rgb(36, 204, 196)" fill-opacity="0.25" points="630.435,533.027 576.343,532.756 577.265,593.692 632.044,598.162 " />
<polygon stroke="black" stroke-width="1" fill="rgb(36, 204, 196)" fill-opacity="0.25" points="576.343,532.756 418.417,532.929 418.387,592.326 577.265,593.692 " />
<polygon stroke="black" stroke-width="1" fill="rgb(36, 204, 196)" fill-opacity="0.25" points="193.140,603.355 203.967,535.531 186.218,534.444 179.279,593.454 " />
<polygon stroke="black" stroke-width="1" fill="rgb(36, 204, 196)" fill-opacity="0.25" points="18.528,668.361 23.290,680.953 38.267,689.170 84.734,664.590 68.687,651.034 " />
<polygon stroke="black" stroke-width="1" fill="rgb(36, 204, 196)" fill-opacity="0.25" points="84.734,664.590 182.152,619.231 169.738,605.539 68.687,651.034 " />
<polygon stroke="black" stroke-width="1" fill="rgb(36, 204, 196)" fill-opacity="0.25" points="12.055,477.062 18.528,668.361 68.687,651.034 62.604,476.206 " />
<polygon stroke="black" stroke-width="1" fill="rgb(36, 204, 196)" fill-opacity="0.25" points="182.152,619.231 193.140,603.355 179.279,593.454 169.738,605.539 " />
<polygon stroke="black" stroke-width="1" fill="rgb(36, 204, 196)" fill-opacity="0.25" points="260.215,984.165 76.723,986.478 75.586,994.158 260.216,990.487 " />
<polygon stroke="black" stroke-width="1" fill="rgb(36, 204, 196)" fill-opacity="0.25" points="76.723,986.478 31.826,991.965 75.586,994.158 " />
<polygon stroke="black" stroke-width="1" fill="rgb(36, 204, 196)" fill-opacity="0.25" points="179.933,163.865 256.648,115.866 164.050,154.049 " />
<polygon stroke="black" stroke-width="1" fill="rgb(36, 204, 196)" fill-opacity="0.25" points="436.742,162.919 450.411,76.638 371.293,76.554 " />
<polygon stroke="black" stroke-width="1" fill="rgb(36, 204, 196)" fill-opacity="0.25" points="436.742,162.919 355.715,96.814 322.075,116.141 " />
<polygon stroke="black" stroke-width="1" fill="rgb(36, 204, 196)" fill-opacity="0.25" points="322.075,116.141 256.648,115.866 436.742,162.919 " />
<polygon stroke="black" stroke-width="1" fill="rgb(36, 204, 196)" fill-opacity="0.25" points="436.742,162.919 256.648,115.866 179.933,163.865 " />
<polygon stroke="black" stroke-width="1" fill="rgb(36, 204, 196)" fill-opacity="0.25" points="371.293,76.554 450.411,76.638 453.315,54.958 376.089,54.876 " />
<polygon stroke="black" stroke-width="1" fill="rgb(36, 204, 196)" fill-opacity="0.25" points="371.293,76.554 355.715,96.814 436.742,162.919 " />
<polygon stroke="black" stroke-width="1" fill="rgb(36, 204, 196)" fill-opacity="0.25" points="943.158,999.898 979.007,941.080 959.253,932.233 931.784,968.050 " />
<polygon stroke="black" stroke-width="1" fill="rgb(36, 204, 196)" fill-opacity="0.25" points="164.050,154.049 256.648,115.866 166.360,115.770 " />
<polygon stroke="black" stroke-width="1" fill="rgb(36, 204, 196)" fill-opacity="0.25" points="576.401,473.625 630.986,473.625 630.435,414.222 576.343,414.494 " />
<polygon stroke="black" stroke-width="1" fill="rgb(36, 204, 196)" fill-opacity="0.25" points="748.265,949.502 748.264,967.924 931.784,968.050 923.691,949.617 " />
<polygon stroke="black" stroke-width="1" fill="rgb(36, 204, 196)" fill-opacity="0.25" points="62.604,476.206 75.237,475.992 75.749,320.355 75.867,320.162 62.767,301.286 " />
<polygon stroke="black" stroke-width="1" fill="rgb(36, 204, 196)" fill-opacity="0.25" points="177.030,474.266 186.475,474.106 184.167,413.811 173.821,414.385 " />
<polygon stroke="black" stroke-width="1" fill="rgb(36, 204, 196)" fill-opacity="0.25" points="186.475,474.106 204.359,473.802 201.868,412.122 184.167,413.811 " />
<polygon stroke="black" stroke-width="1" fill="rgb(36, 204, 196)" fill-opacity="0.25" points="769.404,473.546 976.611,473.546 975.037,317.527 766.840,310.472 " />
<polygon stroke="black" stroke-width="1" fill="rgb(36, 204, 196)" fill-opacity="0.25" points="260.236,935.590 260.236,938.939 329.016,937.999 431.087,933.068 " />
<polygon stroke="black" stroke-width="1" fill="rgb(36, 204, 196)" fill-opacity="0.25" points="209.537,473.625 418.392,473.625 418.417,414.320 209.424,413.997 " />
<polygon stroke="black" stroke-width="1" fill="rgb(36, 204, 196)" fill-opacity="0.25" points="630.986,473.625 647.210,473.625 642.174,413.975 630.435,414.222 " />
<polygon stroke="black" stroke-width="1" fill="rgb(36, 204, 196)" fill-opacity="0.25" points="418.392,473.625 576.401,473.625 576.343,414.494 418.417,414.320 " />
<polygon stroke="black" stroke-width="1" fill="rgb(36, 204, 196)" fill-opacity="0.25" points="1004.671,158.298 745.681,162.332 745.687,201.779 1000.365,175.284 " />
<polygon stroke="black" stroke-width="1" fill="rgb(36, 204, 196)" fill-opacity="0.25" points="436.742,162.919 179.933,163.865 185.433,217.652 431.580,212.911 " />
<polygon stroke="black" stroke-width="1" fill="rgb(36, 204, 196)" fill-opacity="0.25" points="431.580,212.911 185.433,217.652 203.318,224.647 430.871,220.373 " />
<polygon stroke="black" stroke-width="1" fill="rgb(36, 204, 196)" fill-opacity="0.25" points="612.782,319.160 577.610,326.864 577.502,346.592 631.195,336.307 " />
<polygon stroke="black" stroke-width="1" fill="rgb(36, 204, 196)" fill-opacity="0.25" points="577.610,326.864 420.441,329.874 419.061,348.852 577.502,346.592 " />
<polygon stroke="black" stroke-width="1" fill="rgb(36, 204, 196)" fill-opacity="0.25" points="420.441,329.874 224.559,320.275 207.573,319.586 209.303,336.068 419.061,348.852 " />
<polygon stroke="black" stroke-width="1" fill="rgb(36, 204, 196)" fill-opacity="0.25" points="959.253,932.233 941.756,924.476 923.691,949.617 931.784,968.050 " />
<polygon stroke="black" stroke-width="1" fill="rgb(36, 204, 196)" fill-opacity="0.25" points="748.264,967.924 748.264,1000.254 943.158,999.898 931.784,968.050 " />
<polygon stroke="black" stroke-width="1" fill="rgb(36, 204, 196)" fill-opacity="0.25" points="779.169,50.686 777.559,31.780 383.214,31.916 379.059,50.824 " />
<polygon stroke="black" stroke-width="1" fill="rgb(36, 204, 196)" fill-opacity="0.25" points="745.232,77.389 778.129,78.038 776.743,56.323 745.202,55.701 " />
<polygon stroke="black" stroke-width="1" fill="rgb(36, 204, 196)" fill-opacity="0.25" points="745.681,162.332 781.749,89.470 778.129,78.038 745.232,77.389 " />
<polygon stroke="black" stroke-width="1" fill="rgb(36, 204, 196)" fill-opacity="0.25" points="976.611,473.546 1002.278,473.546 1000.442,318.551 975.037,317.527 " />
<polygon stroke="black" stroke-width="1" fill="rgb(36, 204, 196)" fill-opacity="0.25" points="975.037,317.527 990.298,299.594 735.759,269.289 719.493,286.660 " />
<polygon stroke="black" stroke-width="1" fill="rgb(36, 204, 196)" fill-opacity="0.25" points="824.291,144.024 745.681,162.332 1004.671,158.298 910.189,144.286 889.636,135.503 845.912,136.695 " />
<polygon stroke="black" stroke-width="1" fill="rgb(36, 204, 196)" fill-opacity="0.25" points="934.200,127.766 1011.007,131.643 1011.640,128.393 935.741,124.502 " />
<polygon stroke="black" stroke-width="1" fill="rgb(36, 204, 196)" fill-opacity="0.25" points="781.749,89.470 745.681,162.332 799.316,123.640 " />
<polygon stroke="black" stroke-width="1" fill="rgb(36, 204, 196)" fill-opacity="0.25" points="910.189,144.286 1004.671,158.298 1011.007,131.643 934.200,127.766 " />
<polygon stroke="black" stroke-width="1" fill="rgb(36, 204, 196)" fill-opacity="0.25" points="500.592,949.886 431.087,933.068 443.618,986.451 488.476,991.925 " />
<polygon stroke="black" stroke-width="1" fill="rgb(36, 204, 196)" fill-opacity="0.25" points="799.316,123.640 745.681,162.332 824.291,144.024 " />
<polygon stroke="black" stroke-width="1" fill="rgb(36, 204, 196)" fill-opacity="0.25" points="975.037,317.527 719.493,286.660 766.840,310.472 " />
<polygon stroke="black" stroke-width="1" fill="rgb(36, 204, 196)" fill-opacity="0.25" points="457.050,77.422 738.055,77.325 737.669,55.642 459.958,55.738 " />
<polygon stroke="black" stroke-width="1" fill="rgb(36, 204, 196)" fill-opacity="0.25" points="739.840,162.254 443.963,163.706 439.006,213.570 739.857,201.820 " />
<polygon stroke="black" stroke-width="1" fill="rgb(36, 204, 196)" fill-opacity="0.25" points="576.317,322.574 573.546,320.375 446.298,324.357 427.564,328.187 " />
<polygon stroke="black" stroke-width="1" fill="rgb(36, 204, 196)" fill-opacity="0.25" points="739.857,201.820 439.006,213.570 459.792,220.479 716.278,212.106 " />
<polygon stroke="black" stroke-width="1" fill="rgb(36, 204, 196)" fill-opacity="0.25" points="611.061,314.569 606.774,312.052 573.546,320.375 581.573,322.376 " />
<polygon stroke="black" stroke-width="1" fill="rgb(36, 204, 196)" fill-opacity="0.25" points="443.963,163.706 739.840,162.254 738.055,77.325 457.050,77.422 " />
<polygon stroke="black" stroke-width="1" fill="rgb(36, 204, 196)" fill-opacity="0.25" points="765.904,473.546 769.404,473.546 766.840,310.472 755.432,313.795 " />
<polygon stroke="black" stroke-width="1" fill="rgb(36, 204, 196)" fill-opacity="0.25" points="612.782,319.160 631.195,336.307 634.425,334.498 619.470,321.188 " />
<polygon stroke="black" stroke-width="1" fill="rgb(36, 204, 196)" fill-opacity="0.25" points="718.496,292.527 755.432,313.795 766.840,310.472 719.493,286.660 " />
<polygon stroke="black" stroke-width="1" fill="rgb(36, 204, 196)" fill-opacity="0.25" points="716.278,212.106 712.288,219.196 727.520,222.741 739.857,201.820 " />
<polygon stroke="black" stroke-width="1" fill="rgb(36, 204, 196)" fill-opacity="0.25" points="712.288,219.196 606.774,312.052 615.511,313.391 727.520,222.741 " />
<polygon stroke="black" stroke-width="1" fill="rgb(36, 204, 196)" fill-opacity="0.25" points="446.298,324.357 459.792,220.479 439.006,213.570 427.564,328.187 " />
<polygon stroke="black" stroke-width="1" fill="rgb(36, 204, 196)" fill-opacity="0.25" points="573.546,320.375 576.317,322.574 581.573,322.376 " />
<polygon stroke="black" stroke-width="1" fill="rgb(36, 204, 196)" fill-opacity="0.25" points="606.774,312.052 611.061,314.569 615.511,313.391 " />
<polygon stroke="black" stroke-width="1" fill="rgb(36, 204, 196)" fill-opacity="0.25" points="185.433,217.652 207.573,319.586 224.559,320.275 203.318,224.647 " />
<polygon stroke="black" stroke-width="1" fill="rgb(36, 204, 196)" fill-opacity="0.25" points="75.867,320.162 111.926,329.771 62.767,301.286 " />
<polygon stroke="black" stroke-width="1" fill="rgb(36, 204, 196)" fill-opacity="0.25" points="111.926,329.771 159.222,350.677 165.281,343.321 62.767,301.286 " />
<polygon stroke="black" stroke-width="1" fill="rgb(36, 204, 196)" fill-opacity="0.25" points="159.222,350.677 165.389,414.853 173.821,414.385 165.281,343.321 " />
<polygon stroke="black" stroke-width="1" fill="rgb(36, 204, 196)" fill-opacity="0.25" points="329.016,937.999 329.160,956.068 443.618,986.451 431.087,933.068 " />
<polygon stroke="black" stroke-width="1" fill="rgb(36, 204, 196)" fill-opacity="0.25" points="329.160,956.068 326.006,959.646 443.618,986.451 " />
<polygon stroke="black" stroke-width="1" fill="rgb(36, 204, 196)" fill-opacity="0.25" points="326.006,959.646 305.359,969.427 443.618,986.451 " />
<polygon stroke="black" stroke-width="1" fill="rgb(36, 204, 196)" fill-opacity="0.25" points="305.359,969.427 301.701,973.462 443.618,986.451 " />
<polygon stroke="black" stroke-width="1" fill="rgb(36, 204, 196)" fill-opacity="0.25" points="301.701,973.462 260.213,973.000 260.215,984.165 443.618,986.451 " />
<polygon stroke="black" stroke-width="1" fill="rgb(36, 204, 196)" fill-opacity="0.25" points="305.359,969.427 326.006,959.646 305.340,959.714 " />
<polygon stroke="black" stroke-width="1" fill="rgb(36, 204, 196)" fill-opacity="0.25" points="990.298,299.594 975.037,317.527 998.249,308.596 " />
<polygon stroke="black" stroke-width="1" fill="rgb(36, 204, 196)" fill-opacity="0.25" points="998.249,308.596 975.037,317.527 1000.442,318.551 " />
<polygon stroke="black" stroke-width="1" fill="rgb(36, 204, 196)" fill-opacity="0.25" points="642.174,413.975 635.909,348.749 632.044,349.087 630.435,414.222 " />
<polygon stroke="black" stroke-width="1" fill="rgb(36, 204, 196)" fill-opacity="0.25" points="418.417,414.320 418.387,354.923 207.796,349.386 209.424,413.997 " />
<polygon stroke="black" stroke-width="1" fill="rgb(36, 204, 196)" fill-opacity="0.25" points="630.435,414.222 632.044,349.087 577.265,353.557 576.343,414.494 " />
<polygon stroke="black" stroke-width="1" fill="rgb(36, 204, 196)" fill-opacity="0.25" points="576.343,414.494 577.265,353.557 418.387,354.923 418.417,414.320 " />
<polygon stroke="black" stroke-width="1" fill="rgb(36, 204, 196)" fill-opacity="0.25" points="188.742,344.710 175.226,355.074 184.167,413.811 201.868,412.122 " />
<polygon stroke="black" stroke-width="1" fill="rgb(36, 204, 196)" fill-opacity="0.25" points="12.055,285.666 62.767,301.286 78.344,287.195 31.076,264.203 16.387,272.922 " />
<polygon stroke="black" stroke-width="1" fill="rgb(36, 204, 196)" fill-opacity="0.25" points="78.344,287.195 62.767,301.286 165.281,343.321 177.221,329.218 " />
<polygon stroke="black" stroke-width="1" fill="rgb(36, 204, 196)" fill-opacity="0.25" points="12.055,477.062 62.604,476.206 62.767,301.286 12.055,285.666 " />
<polygon stroke="black" stroke-width="1" fill="rgb(36, 204, 196)" fill-opacity="0.25" points="177.221,329.218 165.281,343.321 175.226,355.074 188.742,344.710 " />
<polygon stroke="black" stroke-width="1" fill="rgb(36, 204, 196)" fill-opacity="0.25" points="260.215,984.165 260.216,990.487 444.755,994.126 443.618,986.451 " />
<polygon stroke="black" stroke-width="1" fill="rgb(36, 204, 196)" fill-opacity="0.25" points="443.618,986.451 444.755,994.126 488.476,991.925 " />
<polygon stroke="black" stroke-width="1" fill="rgb(36, 204, 196)" fill-opacity="0.25" points="173.821,414.385 184.167,413.811 175.226,355.074 165.281,343.321 " />
<polygon stroke="black" stroke-width="1" fill="rgb(36, 204, 196)" fill-opacity="0.25" points="173.821,414.385 165.389,414.853 169.379,474.396 177.030,474.266 " />
<polygon stroke="black" stroke-width="1" fill="rgb(36, 204, 196)" fill-opacity="0.25" points="167.415,534.042 175.859,534.223 177.030,474.266 169.379,474.396 " />
<polygon stroke="black" stroke-width="1" fill="rgb(36, 204, 196)" fill-opacity="0.25" points="186.218,534.444 175.859,534.223 169.738,605.539 179.279,593.454 " />

</svg>
