999
dxfrw 0.6.3
  0
SECTION
  2
HEADER
  9
$ACADVER
  1
AC1021
  9
$DWGCODEPAGE
  3
ANSI_1252
  9
$INSBASE
 10
0
 20
0
 30
0
  9
$EXTMIN
 10
0
 20
-43.36141141352848
 30
0
  9
$EXTMAX
 10
1459.796920704543
 20
983.6837503024831
 30
0
  9
$LIMMIN
 10
0
 20
0
  9
$LIMMAX
 10
420
 20
297
  9
$ORTHOMODE
 70
    0
  9
$REGENMODE
 70
    1
  9
$FILLMODE
 70
    1
  9
$QTEXTMODE
 70
    0
  9
$MIRRTEXT
 70
    0
  9
$LTSCALE
 40
1
  9
$ATTMODE
 70
    0
  9
$TEXTSIZE
 40
2.5
  9
$TRACEWID
 40
15.68
  9
$TEXTSTYLE
  7
STANDARD
  9
$CLAYER
  8
0
  9
$CELTYPE
  6
BYLAYER
  9
$CECOLOR
 62
  256
  9
$CELTSCALE
 40
1
  9
$DISPSILH
 70
    0
  9
$DIMSCALE
 40
1
  9
$DIMASZ
 40
2.5
  9
$DIMEXO
 40
0.625
  9
$DIMDLI
 40
3.75
  9
$DIMRND
 40
0
  9
$DIMDLE
 40
0
  9
$DIMEXE
 40
1.25
  9
$DIMTP
 40
0
  9
$DIMTM
 40
0
  9
$DIMTXT
 40
2.5
  9
$DIMCEN
 40
2.5
  9
$DIMTSZ
 40
0
  9
$DIMTOL
 70
    0
  9
$DIMLIM
 70
    0
  9
$DIMTIH
 70
    0
  9
$DIMTOH
 70
    0
  9
$DIMSE1
 70
    0
  9
$DIMSE2
 70
    0
  9
$DIMTAD
 70
    1
  9
$DIMZIN
 70
    8
  9
$DIMBLK
  1

  9
$DIMASO
 70
    1
  9
$DIMSHO
 70
    1
  9
$DIMPOST
  1

  9
$DIMAPOST
  1

  9
$DIMALT
 70
    0
  9
$DIMALTD
 70
    3
  9
$DIMALTF
 40
0.03937
  9
$DIMLFAC
 40
1
  9
$DIMTOFL
 70
    1
  9
$DIMTVP
 40
0
  9
$DIMTIX
 70
    0
  9
$DIMSOXD
 70
    0
  9
$DIMSAH
 70
    0
  9
$DIMBLK1
  1

  9
$DIMBLK2
  1

  9
$DIMSTYLE
  2
STANDARD
  9
$DIMCLRD
 70
    0
  9
$DIMCLRE
 70
    0
  9
$DIMCLRT
 70
    0
  9
$DIMTFAC
 40
1
  9
$DIMGAP
 40
0.625
  9
$DIMJUST
 70
    0
  9
$DIMSD1
 70
    0
  9
$DIMSD2
 70
    0
  9
$DIMTOLJ
 70
    0
  9
$DIMTZIN
 70
    8
  9
$DIMALTZ
 70
    0
  9
$DIMALTTZ
 70
    0
  9
$DIMUPT
 70
    0
  9
$DIMDEC
 70
    2
  9
$DIMTDEC
 70
    2
  9
$DIMALTU
 70
    2
  9
$DIMALTTD
 70
    3
  9
$DIMTXSTY
  7
STANDARD
  9
$DIMAUNIT
 70
    0
  9
$DIMADEC
 70
    0
  9
$DIMALTRND
 40
0
  9
$DIMAZIN
 70
    0
  9
$DIMDSEP
 70
   44
  9
$DIMATFIT
 70
    3
  9
$DIMFRAC
 70
    0
  9
$DIMLDRBLK
  1
STANDARD
  9
$DIMLUNIT
 70
    2
  9
$DIMLWD
 70
   -2
  9
$DIMLWE
 70
   -2
  9
$DIMTMOVE
 70
    0
  9
$DIMFXL
 40
1
  9
$DIMFXLON
 70
    0
  9
$DIMJOGANG
 40
0.7854
  9
$DIMTFILL
 70
    0
  9
$DIMTFILLCLR
 70
    0
  9
$DIMARCSYM
 70
    0
  9
$DIMLTYPE
  6

  9
$DIMLTEX1
  6

  9
$DIMLTEX2
  6

  9
$LUNITS
 70
    2
  9
$LUPREC
 70
    4
  9
$SKETCHINC
 40
1
  9
$FILLETRAD
 40
0
  9
$AUNITS
 70
    0
  9
$AUPREC
 70
    2
  9
$MENU
  1
.
  9
$ELEVATION
 40
0
  9
$PELEVATION
 40
0
  9
$THICKNESS
 40
0
  9
$LIMCHECK
 70
    0
  9
$CHAMFERA
 40
0
  9
$CHAMFERB
 40
0
  9
$CHAMFERC
 40
0
  9
$CHAMFERD
 40
0
  9
$SKPOLY
 70
    0
  9
$USRTIMER
 70
    1
  9
$ANGBASE
 50
0
  9
$ANGDIR
 70
    0
  9
$PDMODE
 70
   34
  9
$PDSIZE
 40
0
  9
$PLINEWID
 40
0
  9
$SPLFRAME
 70
    0
  9
$SPLINETYPE
 70
    2
  9
$SPLINESEGS
 70
    8
  9
$HANDSEED
  5
20000
  9
$SURFTAB1
 70
    6
  9
$SURFTAB2
 70
    6
  9
$SURFTYPE
 70
    6
  9
$SURFU
 70
    6
  9
$SURFV
 70
    6
  9
$UCSBASE
  2

  9
$UCSNAME
  2

  9
$UCSORG
 10
0
 20
0
 30
0
  9
$UCSXDIR
 10
1
 20
0
 30
0
  9
$UCSYDIR
 10
0
 20
1
 30
0
  9
$UCSORTHOREF
  2

  9
$UCSORTHOVIEW
 70
    0
  9
$UCSORGTOP
 10
0
 20
0
 30
0
  9
$UCSORGBOTTOM
 10
0
 20
0
 30
0
  9
$UCSORGLEFT
 10
0
 20
0
 30
0
  9
$UCSORGRIGHT
 10
0
 20
0
 30
0
  9
$UCSORGFRONT
 10
0
 20
0
 30
0
  9
$UCSORGBACK
 10
0
 20
0
 30
0
  9
$PUCSBASE
  2

  9
$PUCSNAME
  2

  9
$PUCSORG
 10
0
 20
0
 30
0
  9
$PUCSXDIR
 10
1
 20
0
 30
0
  9
$PUCSYDIR
 10
0
 20
1
 30
0
  9
$PUCSORTHOREF
  2

  9
$PUCSORTHOVIEW
 70
    0
  9
$PUCSORGTOP
 10
0
 20
0
 30
0
  9
$PUCSORGBOTTOM
 10
0
 20
0
 30
0
  9
$PUCSORGLEFT
 10
0
 20
0
 30
0
  9
$PUCSORGRIGHT
 10
0
 20
0
 30
0
  9
$PUCSORGFRONT
 10
0
 20
0
 30
0
  9
$PUCSORGBACK
 10
0
 20
0
 30
0
  9
$USERI1
 70
    0
  9
$USERI2
 70
    0
  9
$USERI3
 70
    0
  9
$USERI4
 70
    0
  9
$USERI5
 70
    0
  9
$USERR1
 40
0
  9
$USERR2
 40
0
  9
$USERR3
 40
0
  9
$USERR4
 40
0
  9
$USERR5
 40
0
  9
$WORLDVIEW
 70
    1
  9
$SHADEDGE
 70
    3
  9
$SHADEDIF
 70
   70
  9
$TILEMODE
 70
    1
  9
$MAXACTVP
 70
   64
  9
$PINSBASE
 10
0
 20
0
 30
0
  9
$PLIMCHECK
 70
    0
  9
$PEXTMIN
 10
0
 20
0
 30
0
  9
$PEXTMAX
 10
0
 20
0
 30
0
  9
$SNAPSTYLE
 70
    0
  9
$PLIMMIN
 10
0
 20
0
  9
$PLIMMAX
 10
210
 20
297
  9
$UNITMODE
 70
    0
  9
$VISRETAIN
 70
    1
  9
$PLINEGEN
 70
    0
  9
$PSLTSCALE
 70
    1
  9
$TREEDEPTH
 70
 3020
  9
$CMLSTYLE
  2
Standard
  9
$CMLJUST
 70
    0
  9
$CMLSCALE
 40
20
  9
$PROXYGRAPHICS
 70
    1
  9
$MEASUREMENT
 70
    1
  9
$CELWEIGHT
370
   -1
  9
$ENDCAPS
280
    0
  9
$JOINSTYLE
280
    0
  9
$LWDISPLAY
290
    0
  9
$INSUNITS
 70
    0
  9
$HYPERLINKBASE
  1

  9
$STYLESHEET
  1

  9
$XEDIT
290
    1
  9
$CEPSNTYPE
380
    0
  9
$PSTYLEMODE
290
    1
  9
$EXTNAMES
290
    1
  9
$PSVPSCALE
 40
1
  9
$OLESTARTUP
290
    0
  9
$SORTENTS
280
  127
  9
$INDEXCTL
280
    0
  9
$HIDETEXT
280
    1
  9
$XCLIPFRAME
290
    0
  9
$HALOGAP
280
    0
  9
$OBSCOLOR
 70
  257
  9
$OBSLTYPE
280
    0
  9
$INTERSECTIONDISPLAY
280
    0
  9
$INTERSECTIONCOLOR
 70
  257
  9
$DIMASSOC
280
    1
  9
$PROJECTNAME
  1

  9
$CAMERADISPLAY
290
    0
  9
$LENSLENGTH
 40
50
  9
$CAMERAHEIGHT
 40
0
  9
$STEPSPERSEC
 40
2
  9
$STEPSIZE
 40
50
  9
$3DDWFPREC
 40
2
  9
$PSOLWIDTH
 40
5
  9
$PSOLHEIGHT
 40
80
  9
$LOFTANG1
 40
1.570796326794897
  9
$LOFTANG2
 40
1.570796326794897
  9
$LOFTMAG1
 40
0
  9
$LOFTMAG2
 40
0
  9
$LOFTPARAM
 70
    7
  9
$LOFTNORMALS
280
    1
  9
$LATITUDE
 40
1
  9
$LONGITUDE
 40
1
  9
$NORTHDIRECTION
 40
0
  9
$TIMEZONE
 70
-8000
  9
$LIGHTGLYPHDISPLAY
280
    1
  9
$TILEMODELIGHTSYNCH
280
    1
  9
$SOLIDHIST
280
    1
  9
$SHOWHIST
280
    1
  9
$DWFFRAME
280
    2
  9
$DGNFRAME
280
    0
  9
$REALWORLDSCALE
290
    1
  9
$INTERFERECOLOR
 62
    1
  9
$CSHADOW
280
    0
  9
$SHADOWPLANELOCATION
 40
0
  0
ENDSEC
  0
SECTION
  2
CLASSES
  0
ENDSEC
  0
SECTION
  2
TABLES
  0
TABLE
  2
VPORT
  5
8
330
0
100
AcDbSymbolTable
 70
    1
  0
VPORT
  5
31
330
2
100
AcDbSymbolTableRecord
100
AcDbViewportTableRecord
  2
*ACTIVE
 70
    0
 10
0
 20
0
 11
1
 21
1
 12
765.8936030828919
 22
402.2442327501415
 13
0
 23
0
 14
10
 24
10
 15
10
 25
10
 16
0
 26
0
 36
1
 17
0
 27
0
 37
0
 40
857.6636092753549
 41
2.052
 42
50
 43
0
 44
0
 50
0
 51
0
 71
    0
 72
  100
 73
    1
 74
    3
 75
    0
 76
    1
 77
    0
 78
    0
281
    0
 65
    1
110
0
120
0
130
0
111
1
121
0
131
0
112
0
122
1
132
0
 79
    0
146
0
348
10020
 60
    7
 61
    5
292
1
282
    1
141
0
142
0
 63
  250
421
3358443
  0
ENDTAB
  0
TABLE
  2
LTYPE
  5
5
330
0
100
AcDbSymbolTable
 70
    4
  0
LTYPE
  5
14
330
5
100
AcDbSymbolTableRecord
100
AcDbLinetypeTableRecord
  2
ByBlock
 70
    0
  3

 72
   65
 73
    0
 40
0
  0
LTYPE
  5
15
330
5
100
AcDbSymbolTableRecord
100
AcDbLinetypeTableRecord
  2
ByLayer
 70
    0
  3

 72
   65
 73
    0
 40
0
  0
LTYPE
  5
16
330
5
100
AcDbSymbolTableRecord
100
AcDbLinetypeTableRecord
  2
Continuous
 70
    0
  3
Solid line
 72
   65
 73
    0
 40
0
  0
LTYPE
  5
32
330
5
100
AcDbSymbolTableRecord
100
AcDbLinetypeTableRecord
  2
DOT
 70
    0
  3
Dot . . . . . . . . . . . . . . . . . . . . . .
 72
   65
 73
    2
 40
6.35
 49
0
 74
    0
 49
-6.35
 74
    0
  0
LTYPE
  5
33
330
5
100
AcDbSymbolTableRecord
100
AcDbLinetypeTableRecord
  2
DOTTINY
 70
    0
  3
Dot (.15x) .....................................
 72
   65
 73
    2
 40
0.9525
 49
0
 74
    0
 49
-0.9525
 74
    0
  0
LTYPE
  5
34
330
5
100
AcDbSymbolTableRecord
100
AcDbLinetypeTableRecord
  2
DOT2
 70
    0
  3
Dot (.5x) .....................................
 72
   65
 73
    2
 40
3.175
 49
0
 74
    0
 49
-3.175
 74
    0
  0
LTYPE
  5
35
330
5
100
AcDbSymbolTableRecord
100
AcDbLinetypeTableRecord
  2
DOTX2
 70
    0
  3
Dot (2x) .  .  .  .  .  .  .  .  .  .  .  .  .
 72
   65
 73
    2
 40
12.7
 49
0
 74
    0
 49
-12.7
 74
    0
  0
LTYPE
  5
36
330
5
100
AcDbSymbolTableRecord
100
AcDbLinetypeTableRecord
  2
DASHED
 70
    0
  3
Dashed _ _ _ _ _ _ _ _ _ _ _ _ _ _ _ _ _
 72
   65
 73
    2
 40
19.05
 49
12.7
 74
    0
 49
-6.35
 74
    0
  0
LTYPE
  5
37
330
5
100
AcDbSymbolTableRecord
100
AcDbLinetypeTableRecord
  2
DASHEDTINY
 70
    0
  3
Dashed (.15x) _ _ _ _ _ _ _ _ _ _ _ _ _ _ _ _ _
 72
   65
 73
    2
 40
2.8575
 49
1.905
 74
    0
 49
-0.9525
 74
    0
  0
LTYPE
  5
38
330
5
100
AcDbSymbolTableRecord
100
AcDbLinetypeTableRecord
  2
DASHED2
 70
    0
  3
Dashed (.5x) _ _ _ _ _ _ _ _ _ _ _ _ _ _ _ _ _
 72
   65
 73
    2
 40
9.524999999999999
 49
6.35
 74
    0
 49
-3.175
 74
    0
  0
LTYPE
  5
39
330
5
100
AcDbSymbolTableRecord
100
AcDbLinetypeTableRecord
  2
DASHEDX2
 70
    0
  3
Dashed (2x) ____  ____  ____  ____  ____  ___
 72
   65
 73
    2
 40
38.09999999999999
 49
25.4
 74
    0
 49
-12.7
 74
    0
  0
LTYPE
  5
3A
330
5
100
AcDbSymbolTableRecord
100
AcDbLinetypeTableRecord
  2
DASHDOT
 70
    0
  3
Dash dot __ . __ . __ . __ . __ . __ . __ . __
 72
   65
 73
    4
 40
25.4
 49
12.7
 74
    0
 49
-6.35
 74
    0
 49
0
 74
    0
 49
-6.35
 74
    0
  0
LTYPE
  5
3B
330
5
100
AcDbSymbolTableRecord
100
AcDbLinetypeTableRecord
  2
DASHDOTTINY
 70
    0
  3
Dash dot (.15x) _._._._._._._._._._._._._._._.
 72
   65
 73
    4
 40
3.81
 49
1.905
 74
    0
 49
-0.9525
 74
    0
 49
0
 74
    0
 49
-0.9525
 74
    0
  0
LTYPE
  5
3C
330
5
100
AcDbSymbolTableRecord
100
AcDbLinetypeTableRecord
  2
DASHDOT2
 70
    0
  3
Dash dot (.5x) _._._._._._._._._._._._._._._.
 72
   65
 73
    4
 40
12.7
 49
6.35
 74
    0
 49
-3.175
 74
    0
 49
0
 74
    0
 49
-3.175
 74
    0
  0
LTYPE
  5
3D
330
5
100
AcDbSymbolTableRecord
100
AcDbLinetypeTableRecord
  2
DASHDOTX2
 70
    0
  3
Dash dot (2x) ____  .  ____  .  ____  .  ___
 72
   65
 73
    4
 40
50.8
 49
25.4
 74
    0
 49
-12.7
 74
    0
 49
0
 74
    0
 49
-12.7
 74
    0
  0
LTYPE
  5
3E
330
5
100
AcDbSymbolTableRecord
100
AcDbLinetypeTableRecord
  2
DIVIDE
 70
    0
  3
Divide ____ . . ____ . . ____ . . ____ . . ____
 72
   65
 73
    6
 40
31.75
 49
12.7
 74
    0
 49
-6.35
 74
    0
 49
0
 74
    0
 49
-6.35
 74
    0
 49
0
 74
    0
 49
-6.35
 74
    0
  0
LTYPE
  5
3F
330
5
100
AcDbSymbolTableRecord
100
AcDbLinetypeTableRecord
  2
DIVIDETINY
 70
    0
  3
Divide (.15x) __..__..__..__..__..__..__..__.._
 72
   65
 73
    6
 40
4.7625
 49
1.905
 74
    0
 49
-0.9525
 74
    0
 49
0
 74
    0
 49
-0.9525
 74
    0
 49
0
 74
    0
 49
-0.9525
 74
    0
  0
LTYPE
  5
40
330
5
100
AcDbSymbolTableRecord
100
AcDbLinetypeTableRecord
  2
DIVIDE2
 70
    0
  3
Divide (.5x) __..__..__..__..__..__..__..__.._
 72
   65
 73
    6
 40
15.875
 49
6.35
 74
    0
 49
-3.175
 74
    0
 49
0
 74
    0
 49
-3.175
 74
    0
 49
0
 74
    0
 49
-3.175
 74
    0
  0
LTYPE
  5
41
330
5
100
AcDbSymbolTableRecord
100
AcDbLinetypeTableRecord
  2
DIVIDEX2
 70
    0
  3
Divide (2x) ________  .  .  ________  .  .  _
 72
   65
 73
    6
 40
63.5
 49
25.4
 74
    0
 49
-12.7
 74
    0
 49
0
 74
    0
 49
-12.7
 74
    0
 49
0
 74
    0
 49
-12.7
 74
    0
  0
LTYPE
  5
42
330
5
100
AcDbSymbolTableRecord
100
AcDbLinetypeTableRecord
  2
BORDER
 70
    0
  3
Border __ __ . __ __ . __ __ . __ __ . __ __ .
 72
   65
 73
    6
 40
44.45
 49
12.7
 74
    0
 49
-6.35
 74
    0
 49
12.7
 74
    0
 49
-6.35
 74
    0
 49
0
 74
    0
 49
-6.35
 74
    0
  0
LTYPE
  5
43
330
5
100
AcDbSymbolTableRecord
100
AcDbLinetypeTableRecord
  2
BORDERTINY
 70
    0
  3
Border (.15x) __.__.__.__.__.__.__.__.__.__.__.
 72
   65
 73
    6
 40
6.6675
 49
1.905
 74
    0
 49
-0.9525
 74
    0
 49
1.905
 74
    0
 49
-0.9525
 74
    0
 49
0
 74
    0
 49
-0.9525
 74
    0
  0
LTYPE
  5
44
330
5
100
AcDbSymbolTableRecord
100
AcDbLinetypeTableRecord
  2
BORDER2
 70
    0
  3
Border (.5x) __.__.__.__.__.__.__.__.__.__.__.
 72
   65
 73
    6
 40
22.225
 49
6.35
 74
    0
 49
-3.175
 74
    0
 49
6.35
 74
    0
 49
-3.175
 74
    0
 49
0
 74
    0
 49
-3.175
 74
    0
  0
LTYPE
  5
45
330
5
100
AcDbSymbolTableRecord
100
AcDbLinetypeTableRecord
  2
BORDERX2
 70
    0
  3
Border (2x) ____  ____  .  ____  ____  .  ___
 72
   65
 73
    6
 40
88.89999999999999
 49
25.4
 74
    0
 49
-12.7
 74
    0
 49
25.4
 74
    0
 49
-12.7
 74
    0
 49
0
 74
    0
 49
-12.7
 74
    0
  0
LTYPE
  5
46
330
5
100
AcDbSymbolTableRecord
100
AcDbLinetypeTableRecord
  2
CENTER
 70
    0
  3
Center ____ _ ____ _ ____ _ ____ _ ____ _ ____
 72
   65
 73
    4
 40
50.8
 49
31.75
 74
    0
 49
-6.35
 74
    0
 49
6.35
 74
    0
 49
-6.35
 74
    0
  0
LTYPE
  5
47
330
5
100
AcDbSymbolTableRecord
100
AcDbLinetypeTableRecord
  2
CENTERTINY
 70
    0
  3
Center (.15x) ___ _ ___ _ ___ _ ___ _ ___ _ ___
 72
   65
 73
    4
 40
7.619999999999999
 49
4.7625
 74
    0
 49
-0.9525
 74
    0
 49
0.9525
 74
    0
 49
-0.9525
 74
    0
  0
LTYPE
  5
48
330
5
100
AcDbSymbolTableRecord
100
AcDbLinetypeTableRecord
  2
CENTER2
 70
    0
  3
Center (.5x) ___ _ ___ _ ___ _ ___ _ ___ _ ___
 72
   65
 73
    4
 40
28.575
 49
19.05
 74
    0
 49
-3.175
 74
    0
 49
3.175
 74
    0
 49
-3.175
 74
    0
  0
LTYPE
  5
49
330
5
100
AcDbSymbolTableRecord
100
AcDbLinetypeTableRecord
  2
CENTERX2
 70
    0
  3
Center (2x) ________  __  ________  __  _____
 72
   65
 73
    4
 40
101.6
 49
63.5
 74
    0
 49
-12.7
 74
    0
 49
12.7
 74
    0
 49
-12.7
 74
    0
  0
ENDTAB
  0
TABLE
  2
LAYER
  5
2
330
0
100
AcDbSymbolTable
 70
    1
  0
LAYER
  5
10
330
2
100
AcDbSymbolTableRecord
100
AcDbLayerTableRecord
  2
0
 70
    0
 62
    7
  6
CONTINUOUS
370
    0
390
F
  0
LAYER
  5
4A
330
2
100
AcDbSymbolTableRecord
100
AcDbLayerTableRecord
  2
buildings
 70
    0
 62
    6
  6
CONTINUOUS
370
   30
390
F
  0
LAYER
  5
4B
330
2
100
AcDbSymbolTableRecord
100
AcDbLayerTableRecord
  2
coast
 70
    0
 62
    4
  6
CONTINUOUS
370
   50
390
F
  0
LAYER
  5
4C
330
2
100
AcDbSymbolTableRecord
100
AcDbLayerTableRecord
  2
fences
 70
    0
 62
    3
  6
CONTINUOUS
370
   30
390
F
  0
LAYER
  5
4D
330
2
100
AcDbSymbolTableRecord
100
AcDbLayerTableRecord
  2
image
 70
    0
 62
    7
  6
CONTINUOUS
370
    0
390
F
  0
LAYER
  5
4E
330
2
100
AcDbSymbolTableRecord
100
AcDbLayerTableRecord
  2
path
 70
    0
 62
    1
  6
CONTINUOUS
370
  100
390
F
  0
LAYER
  5
4F
330
2
100
AcDbSymbolTableRecord
100
AcDbLayerTableRecord
  2
tubes
 70
    0
 62
    5
  6
CONTINUOUS
370
   30
390
F
  0
ENDTAB
  0
TABLE
  2
STYLE
  5
3
330
0
100
AcDbSymbolTable
 70
    3
  0
STYLE
  5
50
330
2
100
AcDbSymbolTableRecord
100
AcDbTextStyleTableRecord
  2
Standard
 70
    0
 40
0
 41
1
 50
0
 71
    0
 42
1
  3
txt
  4

  0
ENDTAB
  0
TABLE
  2
VIEW
  5
6
330
0
100
AcDbSymbolTable
 70
    0
  0
ENDTAB
  0
TABLE
  2
UCS
  5
7
330
0
100
AcDbSymbolTable
 70
    0
  0
ENDTAB
  0
TABLE
  2
APPID
  5
9
330
0
100
AcDbSymbolTable
 70
    1
  0
APPID
  5
12
330
9
100
AcDbSymbolTableRecord
100
AcDbRegAppTableRecord
  2
ACAD
 70
    0
  0
APPID
  5
51
330
9
100
AcDbSymbolTableRecord
100
AcDbRegAppTableRecord
  2
LibreCad
 70
    0
  0
ENDTAB
  0
TABLE
  2
DIMSTYLE
  5
A
330
0
100
AcDbSymbolTable
 70
    1
100
AcDbDimStyleTable
 71
    1
  0
DIMSTYLE
105
52
330
A
100
AcDbSymbolTableRecord
100
AcDbDimStyleTableRecord
  2
Standard
 70
    0
 40
1
 41
2.5
 42
0.625
 43
0.38
 44
1.25
 45
0
 46
0
 47
0
 48
0
 49
1
140
2.5
141
0.09
142
0
143
25.4
144
1
145
0
146
1
147
0.625
148
0
 71
    0
 72
    0
 73
    0
 74
    1
 75
    0
 76
    0
 77
    0
 78
    1
 79
    0
170
    0
171
    2
172
    0
173
    0
174
    0
175
    0
176
    0
177
    0
178
    0
179
    0
271
    2
272
    4
273
    2
274
    2
275
    0
276
    0
277
    2
278
    0
279
    0
280
    0
281
    0
282
    0
283
    1
284
    0
285
    0
286
    0
288
    0
289
    3
340
standard
341

371
   -2
372
   -2
  0
ENDTAB
  0
TABLE
  2
BLOCK_RECORD
  5
1
330
0
100
AcDbSymbolTable
 70
    2
  0
BLOCK_RECORD
  5
1F
330
1
100
AcDbSymbolTableRecord
100
AcDbBlockTableRecord
  2
*Model_Space
 70
    0
280
    1
281
    0
  0
BLOCK_RECORD
  5
1E
330
1
100
AcDbSymbolTableRecord
100
AcDbBlockTableRecord
  2
*Paper_Space
 70
    0
280
    1
281
    0
  0
BLOCK_RECORD
  5
53
330
1
100
AcDbSymbolTableRecord
100
AcDbBlockTableRecord
  2
*D1
 70
    0
280
    1
281
    0
  0
ENDTAB
  0
ENDSEC
  0
SECTION
  2
BLOCKS
  0
BLOCK
  5
20
330
1F
100
AcDbEntity
  8
0
100
AcDbBlockBegin
  2
*Model_Space
 70
    0
 10
0
 20
0
 30
0
  3
*Model_Space
  1

  0
ENDBLK
  5
21
330
1F
100
AcDbEntity
  8
0
100
AcDbBlockEnd
  0
BLOCK
  5
1C
330
1B
100
AcDbEntity
  8
0
100
AcDbBlockBegin
  2
*Paper_Space
 70
    0
 10
0
 20
0
 30
0
  3
*Paper_Space
  1

  0
ENDBLK
  5
1D
330
1F
100
AcDbEntity
  8
0
100
AcDbBlockEnd
  0
BLOCK
  5
54
330
53
100
AcDbEntity
  8
0
100
AcDbBlockBegin
  2
*D1
 70
    1
 10
0
 20
0
  3
*D1
  1

  0
LINE
  5
56
100
AcDbEntity
  8
0
  6
ByBlock
 62
    0
370
   -2
100
AcDbLine
 10
1266.500000001182
 20
-16.15961250001509
 11
1346.000000001256
 21
-16.15961250001509
  0
SOLID
  5
57
100
AcDbEntity
  8
0
  6
ByBlock
 62
    0
370
   -2
100
AcDbTrace
 10
1266.500000001182
 20
-16.15961250001509
 30
0
 11
1269.000000001182
 21
-15.74332784224225
 31
0
 12
1269.000000001182
 22
-16.57589715778794
 32
0
 13
1269.000000001182
 23
-16.57589715778794
 33
0
  0
SOLID
  5
58
100
AcDbEntity
  8
0
  6
ByBlock
 62
    0
370
   -2
100
AcDbTrace
 10
1346.000000001256
 20
-16.15961250001509
 30
0
 11
1343.500000001256
 21
-16.57589715778794
 31
0
 12
1343.500000001256
 22
-15.74332784224225
 32
0
 13
1343.500000001256
 23
-15.74332784224225
 33
0
  0
MTEXT
  5
59
100
AcDbEntity
  8
0
  6
CONTINUOUS
 62
    0
370
   -2
100
AcDbMText
 10
1306.250000001219
 20
-14.28461250001509
 30
0
 40
2.5
 41
11.66666666666682
 71
    5
 72
    1
  1
79.5000
  7
standard
210
0
220
0
230
1
 50
0
 73
    2
 44
1
  0
LINE
  5
5A
100
AcDbEntity
  8
0
  6
ByBlock
 62
    0
370
   -2
100
AcDbLine
 10
1266.500000001182
 20
7.625000000007701
 11
1266.500000001182
 21
-17.40961250001509
  0
LINE
  5
5B
100
AcDbEntity
  8
0
  6
ByBlock
 62
    0
370
   -2
100
AcDbLine
 10
1346.000000001256
 20
7.625000000007701
 11
1346.000000001256
 21
-17.40961250001509
  0
ENDBLK
  5
55
330
53
100
AcDbEntity
  8
0
100
AcDbBlockEnd
  0
ENDSEC
  0
SECTION
  2
ENTITIES
  0
IMAGE
  5
5E
100
AcDbEntity
  8
image
  6
ByLayer
 62
  256
370
   -1
100
AcDbRasterImage
 10
0
 20
0
 30
0
 11
1
 21
0
 31
0
 12
6.123233995736766e-17
 22
1
 32
0
 13
1366
 23
768
340
5C
 70
    1
280
    0
281
   50
282
   50
283
    0
360
5D
  0
LWPOLYLINE
  5
5F
100
AcDbEntity
  8
buildings
  6
ByLayer
 62
  256
370
   -1
100
AcDbPolyline
 90
    2
 70
    0
 43
0
 10
4.702643708725836e-14
 20
768
 10
4.702643708725836e-14
 20
768
  0
LWPOLYLINE
  5
60
100
AcDbEntity
  8
buildings
  6
ByLayer
 62
  256
370
   -1
100
AcDbPolyline
 90
    5
 70
    0
 43
0
 10
134.3304552496825
 20
663.5744983158037
 10
85.86061793694763
 20
599.0757157898516
 10
294.4185635717862
 20
440.1521906145784
 10
344.3949315394839
 20
505.3700487148372
 10
134.3304552496825
 20
663.5744983158037
  0
LWPOLYLINE
  5
61
100
AcDbEntity
  8
buildings
  6
ByLayer
 62
  256
370
   -1
100
AcDbPolyline
 90
    4
 70
    0
 43
0
 10
277.337042352923
 20
453.1035066272943
 10
248.167288707389
 20
413.1633824049479
 10
255.6467127190644
 20
407.1798431956075
 10
285.7139972459994
 20
446.6712019772535
  0
LWPOLYLINE
  5
62
100
AcDbEntity
  8
buildings
  6
ByLayer
 62
  256
370
   -1
100
AcDbPolyline
 90
    7
 70
    0
 43
0
 10
362.5937812556131
 20
547.2748805084721
 10
329.5252284051012
 20
572.2213326588583
 10
354.2782972054844
 20
605.2898855093702
 10
394.3086506561041
 20
575.3154662589062
 10
370.5224986057359
 20
541.4733800083823
 10
362.5937812556131
 20
547.2748805084721
 10
387.5402334059993
 20
580.536816708987
  0
LINE
  5
63
100
AcDbEntity
  8
buildings
  6
ByLayer
 62
  256
370
   -1
100
AcDbLine
 10
316.2300472136399
 20
526.5514504219548
 11
346.1477432603419
 21
559.460916073327
  0
LINE
  5
64
100
AcDbEntity
  8
buildings
  6
ByLayer
 62
  256
370
   -1
100
AcDbLine
 10
310.8448619252335
 20
530.7399278684931
 11
341.5105003731031
 21
563.3502165593983
  0
LWPOLYLINE
  5
65
100
AcDbEntity
  8
buildings
  6
ByLayer
 62
  256
370
   -1
100
AcDbPolyline
 90
    9
 70
    0
 43
0
 10
329.5252284051012
 20
572.2213326588583
 10
254.3975373790909
 20
627.9683377309278
 10
270.0087950747827
 20
649.2963940194082
 10
270.0087950747827
 20
649.2963940194082
 10
266.9928592586443
 20
651.3746405918429
 10
270.9395589216837
 20
656.4709565750369
 10
274.1095080376313
 20
653.9568590003198
 10
280.5389126493314
 20
661.9792748884049
 10
354.2782972054844
 20
605.2898855093702
  0
LWPOLYLINE
  5
66
100
AcDbEntity
  8
buildings
  6
ByLayer
 62
  256
370
   -1
100
AcDbPolyline
 90
    4
 70
    0
 43
0
 10
102.6852162613094
 20
621.1997621992393
 10
86.09682156300073
 20
634.3280009482075
 10
104.8223714064903
 20
659.668554812495
 10
121.5125353974266
 20
646.6420853561544
  0
LWPOLYLINE
  5
67
100
AcDbEntity
  8
buildings
  6
ByLayer
 62
  256
370
   -1
100
AcDbPolyline
 90
   19
 70
    0
 43
0
 10
496.3617511463115
 20
416.1416701529682
 10
451.2379555875559
 20
434.943251635783
 10
421.9910510587328
 20
365.5863066102883
 10
613.5940338236273
 20
286.8119999650934
 10
607.1124067057722
 20
271.14806776361
 10
621.6960677209464
 20
264.1263050526002
 10
628.7178304319563
 20
280.8705084403928
 10
646.0021694129035
 20
274.9290169156922
 10
726.4823727929391
 20
243.6011525127253
 10
762.1313219411428
 20
227.9372203112419
 10
829.2278048129307
 20
377.8710659058924
 10
600.0000000001172
 20
471.7500000000921
 10
583.750000000114
 20
430.7500000000841
 10
775.7182500001533
 20
351.6172500000695
 10
750.742398340648
 20
295.7727754223803
 10
635.8444548099221
 20
340.3546960053112
 10
633.330471259883
 20
334.9399622052266
 10
487.7954686091957
 20
394.2503124951589
 10
496.3617511463115
 20
416.1416701529682
  0
LWPOLYLINE
  5
68
100
AcDbEntity
  8
buildings
  6
ByLayer
 62
  256
370
   -1
100
AcDbPolyline
 90
    8
 70
    0
 43
0
 10
600.0000000001172
 20
471.7500000000921
 10
485.0000000001063
 20
516.7500000001132
 10
473.5000000001038
 20
487.7500000001069
 10
562.5307500001248
 20
451.6732500001002
 10
537.2893602986314
 20
382.1744832513533
 10
549.8754358485203
 20
376.7318559865365
 10
583.9934268317048
 20
458.1895149553053
 10
592.8191471654832
 20
454.449802949467
  0
LWPOLYLINE
  5
69
100
AcDbEntity
  8
buildings
  6
ByLayer
 62
  256
370
   -1
100
AcDbPolyline
 90
    9
 70
    0
 43
0
 10
659.8504837292624
 20
383.9050131926998
 10
601.3632365876483
 20
407.6517150396709
 10
588.8302550573025
 20
377.968337730957
 10
612.7968337732269
 20
368.5136323659592
 10
610.817941952646
 20
362.5769569042164
 10
625.9894459104331
 20
355.9806508356133
 10
629.5074758136881
 20
362.1372031663096
 10
647.5373790678699
 20
354.8812664908462
 10
659.8504837292624
 20
383.9050131926998
  0
LWPOLYLINE
  5
6A
100
AcDbEntity
  8
buildings
  6
ByLayer
 62
  256
370
   -1
100
AcDbPolyline
 90
   19
 70
    0
 43
0
 10
839.0000000001936
 20
370.0000000000854
 10
814.500000000188
 20
314.7500000000726
 10
819.2500000001891
 20
312.2500000000721
 10
779.3349005121829
 20
223.9379193035007
 10
788.6173013123281
 20
218.5231855034161
 10
780.8819673122072
 20
199.7650005531228
 10
790.9379015123643
 20
195.3171835030533
 10
795.9658686124429
 20
206.5334178032286
 10
809.2875299093176
 20
199.6026578629644
 10
821.8814740711433
 20
226.5535294302079
 10
807.9356702850794
 20
233.0001745765959
 10
827.4873546629516
 20
277.6984906043465
 10
819.1718706128215
 20
282.1463076544161
 10
822.5656236083399
 20
290.2478183791702
 10
827.4686885330535
 20
288.4152547326173
 10
835.3223538879286
 20
305.7149550535255
 10
829.5229958884493
 20
309.5565741271394
 10
853.5000000002348
 20
364.0000000001002
 10
839.0000000001936
 20
370.0000000000854
  0
LWPOLYLINE
  5
6B
100
AcDbEntity
  8
buildings
  6
ByLayer
 62
  256
370
   -1
100
AcDbPolyline
 90
    7
 70
    0
 43
0
 10
858.1507500002365
 20
316.3702500000872
 10
844.2225000002327
 20
283.3972500000781
 10
851.8972500002347
 20
280.5547500000773
 10
848.7705000002339
 20
272.3115000000751
 10
869.5207500002397
 20
263.4997500000726
 10
872.6652501223064
 20
271.4169170816098
 10
872.6652501223064
 20
271.4169170816098
  0
LWPOLYLINE
  5
6C
100
AcDbEntity
  8
buildings
  6
ByLayer
 62
  256
370
   -1
100
AcDbPolyline
 90
    4
 70
    0
 43
0
 10
872.6652501223064
 20
271.4169170816098
 10
875.1846207630873
 20
270.4216850269582
 10
890.0303321386384
 20
304.7326566167229
 10
858.9351630961157
 20
317.6430559153906
  0
LWPOLYLINE
  5
6D
100
AcDbEntity
  8
buildings
  6
ByLayer
 62
  256
370
   -1
100
AcDbPolyline
 90
    6
 70
    0
 43
0
 10
854.7544070134717
 20
241.7291875038098
 10
845.6653895633284
 20
222.3908525035051
 10
847.5992230633589
 20
221.2305524034868
 10
843.1514060132888
 20
212.1415349533435
 10
845.0852395133193
 20
210.7878515033222
 10
841.0241891632552
 20
202.6657508031942
  0
LWPOLYLINE
  5
6E
100
AcDbEntity
  8
buildings
  6
ByLayer
 62
  256
370
   -1
100
AcDbPolyline
 90
    6
 70
    0
 43
0
 10
841.4109558632613
 20
203.0525175032003
 10
871.5787584637368
 20
189.70906635299
 10
887.0494264639806
 20
220.8437857034807
 10
872.1589085137459
 20
227.8055863035904
 10
874.2861253637794
 20
232.4467867036635
 10
854.7544070134717
 20
241.7291875038098
  0
LWPOLYLINE
  5
6F
100
AcDbEntity
  8
buildings
  6
ByLayer
 62
  256
370
   -1
100
AcDbPolyline
 90
    5
 70
    0
 43
0
 10
959.1613352575347
 20
143.3057640637427
 10
932.9833512166631
 20
153.4777807196242
 10
926.4014580863868
 20
139.865229018371
 10
952.2802651667913
 20
127.8981505996869
 10
959.1613352575347
 20
143.3057640637427
  0
LWPOLYLINE
  5
70
100
AcDbEntity
  8
buildings
  6
ByLayer
 62
  256
370
   -1
100
AcDbPolyline
 90
    4
 70
    0
 43
0
 10
942.6555036326117
 20
132.4495026404103
 10
939.8168054578827
 20
125.9412678007874
 10
944.6633633171763
 20
123.7256984936818
 10
947.5712980327525
 20
130.1646967924576
  0
LWPOLYLINE
  5
71
100
AcDbEntity
  8
buildings
  6
ByLayer
 62
  256
370
   -1
100
AcDbPolyline
 90
   15
 70
    0
 43
0
 10
1233.795546358553
 20
195.9088000439912
 10
1049.961542759323
 20
278.2345732344126
 10
1041.734176346478
 20
258.7880708040504
 10
1025.877797441721
 20
265.3699639343268
 10
1000.879507476204
 20
212.4010554090538
 10
1011.213720317017
 20
207.7836411610309
 10
986.9160000003873
 20
150.6525000000591
 10
1025.858250000402
 20
134.1660000000526
 10
1016.750000000399
 20
113.5000000000446
 10
1030.000000000406
 20
107.5000000000423
 10
1086.621043667162
 20
229.1592697536194
 10
1148.654250000456
 20
199.8277500000794
 10
1094.931000000438
 20
79.02150000003158
 10
1166.562000000466
 20
46.90125000001874
 10
1233.795546358553
 20
195.9088000439912
  0
LWPOLYLINE
  5
72
100
AcDbEntity
  8
buildings
  6
ByLayer
 62
  256
370
   -1
100
AcDbPolyline
 90
    4
 70
    0
 43
0
 10
1049.961542759323
 20
278.2345732344126
 10
1011.433597185988
 20
295.7343887424246
 10
999.1204925245929
 20
267.5901495163797
 10
1021.987686895754
 20
256.596306068706
  0
LWPOLYLINE
  5
73
100
AcDbEntity
  8
buildings
  6
ByLayer
 62
  256
370
   -1
100
AcDbPolyline
 90
    5
 70
    0
 43
0
 10
1273.672891065163
 20
138.5370885540353
 10
1253.280442132707
 20
147.7465816203055
 10
1260.648036585723
 20
162.6133347129988
 42
-0.9182621344880781
 10
1281.040485518179
 20
154.5879193266776
 10
1273.672891065163
 20
138.5370885540353
  0
LWPOLYLINE
  5
74
100
AcDbEntity
  8
buildings
  6
ByLayer
 62
  256
370
   -1
100
AcDbPolyline
 90
    5
 70
    0
 43
0
 10
1292.436235708545
 20
155.2330694811556
 10
1298.153034301335
 20
166.007036059876
 10
1335.09234828552
 20
148.6367634125513
 10
1329.375549692729
 20
136.3236587511565
 10
1292.436235708545
 20
155.2330694811556
  0
LWPOLYLINE
  5
75
100
AcDbEntity
  8
buildings
  6
ByLayer
 62
  256
370
   -1
100
AcDbPolyline
 90
    5
 70
    0
 43
0
 10
1361.842294055079
 20
84.8854748857861
 10
1330.607379053816
 20
100.6866671805428
 10
1285.776089287297
 20
6.98192217675297
 10
1318.848352229811
 20
-8.81927011800375
 10
1361.842294055079
 20
84.8854748857861
  0
LWPOLYLINE
  5
76
100
AcDbEntity
  8
fences
  6
ByLayer
 62
  256
370
   -1
100
AcDbPolyline
 90
    8
 70
    0
 43
0
 10
1330.607379053816
 20
100.6866671805428
 10
1273.155750000543
 20
129.6180000000553
 10
1248.994500000533
 20
132.4605000000565
 10
1241.03550000053
 20
115.4055000000492
 10
1233.076500000526
 20
112.8472500000481
 10
1188.87423043147
 20
10.11433597186011
 10
1154.79331574368
 20
25.94547053651071
 10
1149.516270888797
 20
14.51187335092972
  0
LINE
  5
77
100
AcDbEntity
  8
fences
  6
ByLayer
 62
  256
370
   -1
100
AcDbLine
 10
1056.19
 20
96.3113
 11
1100.79
 21
195.855
  0
LINE
  5
78
100
AcDbEntity
  8
fences
  6
ByLayer
 62
  256
370
   -1
100
AcDbLine
 10
1030
 20
107.5
 11
1094.93
 21
79.0215
  0
LWPOLYLINE
  5
79
100
AcDbEntity
  8
buildings
  6
ByLayer
 62
  256
370
   -1
100
AcDbPolyline
 90
    4
 70
    0
 43
0
 10
1016.750000000399
 20
113.5000000000446
 10
1011.781687216023
 20
103.6534756016415
 10
973.4917839154166
 20
118.7373769018804
 10
986.9160000003873
 20
150.6525000000591
  0
LWPOLYLINE
  5
7A
100
AcDbEntity
  8
buildings
  6
ByLayer
 62
  256
370
   -1
100
AcDbPolyline
 90
   11
 70
    0
 43
0
 10
1011.433597185988
 20
295.7343887424246
 10
920.8787881549104
 20
336.60214283715
 10
908.752291742655
 20
309.776862894888
 10
931.3428773732659
 20
297.729754413858
 10
885.1150375420045
 20
203.8890985583492
 10
943.1836541727606
 20
177.7432161790207
 10
939.8945495062354
 20
170.3756217260043
 10
965.6992084437104
 20
158.9709762533704
 10
973.8785506154413
 20
177.1391486028086
 10
967.8836667653462
 20
184.2943325529221
 10
1004.75000000046
 20
264.7500000001213
  0
LWPOLYLINE
  5
7B
100
AcDbEntity
  8
fences
  6
ByLayer
 62
  256
370
   -1
100
AcDbPolyline
 90
    3
 70
    0
 43
0
 10
790.9379015123643
 20
195.3171835030533
 10
780.5505000003601
 20
173.39250000008
 10
735.0705000003391
 20
191.5845000000884
  0
LWPOLYLINE
  5
7C
100
AcDbEntity
  8
fences
  6
ByLayer
 62
  256
370
   -1
100
AcDbPolyline
 90
    4
 70
    0
 43
0
 10
51.30884872011364
 20
677.3366384975934
 10
33.0590541316184
 20
663.7240867963387
 10
23.18621443620296
 20
677.9349924185277
 10
15.70679042452458
 20
673.1481610510535
  0
LWPOLYLINE
  5
7D
100
AcDbEntity
  8
fences
  6
ByLayer
 62
  256
370
   -1
100
AcDbPolyline
 90
    5
 70
    0
 43
0
 10
263.9073729519221
 20
673.4866604505493
 10
265.3283846245889
 20
671.9199039909424
 10
270.0286540034095
 20
675.9643218285323
 10
268.5347699372727
 20
677.5675144848742
 10
263.9438091486572
 20
673.6688414342245
  0
LWPOLYLINE
  5
7E
100
AcDbEntity
  8
fences
  6
ByLayer
 62
  256
370
   -1
100
AcDbPolyline
 90
    5
 70
    0
 43
0
 10
267.9229515584965
 20
668.1444866027474
 10
269.754951542854
 20
666.284302003246
 10
274.9691053444868
 20
671.2729788837272
 10
273.1371053601293
 20
672.8231327166451
 10
267.9511361736404
 20
668.1726712178914
  0
LWPOLYLINE
  5
7F
100
AcDbEntity
  8
buildings
  6
ByLayer
 62
  256
370
   -1
100
AcDbPolyline
 90
   13
 70
    0
 43
0
 10
215.1538590622679
 20
648.5230550232628
 10
203.4181940225078
 20
661.9595410832781
 10
199.8464698799722
 20
659.2382274508699
 10
176.7153040045031
 20
685.7710353668492
 10
173.8239082700694
 20
683.2198038364666
 10
153.2439739249833
 20
707.3714623240905
 10
158.3464369857496
 20
711.7935969767584
 10
150.0124139864996
 20
726.7608219550033
 10
62.6562054009735
 20
661.9512070602849
 10
46.60538735072411
 20
683.8035256106244
 10
178.4061176258116
 20
779.6389121540153
 10
259.9847786459503
 20
685.4144164302326
 10
215.1538590622679
 20
648.5230550232628
  0
LWPOLYLINE
  5
80
100
AcDbEntity
  8
buildings
  6
ByLayer
 62
  256
370
   -1
100
AcDbPolyline
 90
    4
 70
    0
 43
0
 10
236.0029896036305
 20
587.2088184618145
 10
245.5693031106341
 20
599.4211335771382
 10
271.0116262675584
 20
579.5761215147372
 10
261.8523899310657
 20
567.4655756920413
  0
LWPOLYLINE
  5
81
100
AcDbEntity
  8
buildings
  6
ByLayer
 62
  256
370
   -1
100
AcDbPolyline
 90
    7
 70
    0
 43
0
 10
485.0000000001063
 20
516.7500000001132
 10
449.8680738788673
 20
539.7977132808501
 10
444.3711521550297
 20
544.4151275288737
 10
440.6332453828202
 20
538.4784520671291
 10
445.0307827618902
 20
534.080914688059
 10
436.2357080037501
 20
520.4485488129418
 10
476.0334212843342
 20
492.3043095868934
  0
LWPOLYLINE
  5
82
100
AcDbEntity
  8
buildings
  6
ByLayer
 62
  256
370
   -1
100
AcDbPolyline
 90
    4
 70
    0
 43
0
 10
397.3070035003907
 20
581.0016572272281
 10
432.7919373069084
 20
554.6234478088531
 10
410.9396187565596
 20
523.2953451083531
 10
376.130615756004
 20
549.2087140087667
  0
LWPOLYLINE
  5
83
100
AcDbEntity
  8
buildings
  6
ByLayer
 62
  256
370
   -1
100
AcDbPolyline
 90
    2
 70
    0
 43
0
 10
397.3070035003907
 20
581.0016572272281
 10
394.3086506561041
 20
575.3154662589062
  0
LWPOLYLINE
  5
84
100
AcDbEntity
  8
fences
  6
ByLayer
 62
  256
370
   -1
100
AcDbPolyline
 90
    5
 70
    0
 43
0
 10
259.1223413871592
 20
679.1780056807476
 10
263.6871909245496
 20
683.3848278034407
 10
265.477327998036
 20
681.3261701689313
 10
260.733464753297
 20
676.9403343388896
 10
259.1223413871592
 20
679.1780056807476
  0
LWPOLYLINE
  5
85
100
AcDbEntity
  8
fences
  6
ByLayer
 62
  256
370
   -1
100
AcDbPolyline
 90
    5
 70
    0
 43
0
 10
274.0699859507708
 20
663.7828268487643
 10
278.1873012197896
 20
668.2581695324805
 10
279.977438293276
 20
666.3785256053196
 10
275.7706161705829
 20
661.6346623605807
 10
274.0699859507708
 20
663.7828268487643
  0
LWPOLYLINE
  5
86
100
AcDbEntity
  8
tubes
  6
ByLayer
 62
  256
370
   -1
100
AcDbPolyline
 90
    6
 70
    0
 43
0
 10
377.0923745299194
 20
551.0936980728018
 10
423.5051168618394
 20
516.389432644523
 10
461.9210493850593
 20
572.07857418831
 10
457.8624016087076
 20
574.5354115145839
 10
422.1390258197222
 20
521.058778253852
 10
379.0906150382035
 20
553.7267211873465
  0
LWPOLYLINE
  5
87
100
AcDbEntity
  8
coast
  6
ByLayer
 62
  256
370
   -1
100
AcDbPolyline
 90
   17
 70
    0
 43
0
 10
15.47066800024768
 20
652.862189610452
 10
137.5000000000844
 20
520.2500000003192
 10
135.9764254278851
 20
517.903940109343
 10
158.9878561761253
 20
493.9731863288782
 10
352.5288296623831
 20
342.0465925217291
 10
364.2322983145696
 20
343.7766704964002
 10
367.6924542639117
 20
348.3562886646471
 10
426.7810026387934
 20
319.7009674584264
 10
521.388871737667
 20
276.6794845481488
 10
626.6402210664944
 20
231.5529685234159
 10
813.2217272240428
 20
158.5250094332582
 10
817.6187712813156
 20
166.0462690049091
 10
825.1400308529664
 20
163.1534768619665
 10
822.8257971386124
 20
155.1693705474447
 10
1153.750000000756
 20
12.00000000000786
 10
1193.500000000781
 20
8.500000000005565
 10
1303.047159935356
 20
-43.36141141352848
  0
LWPOLYLINE
  5
88
100
AcDbEntity
  8
buildings
  6
ByLayer
 62
  256
370
   -1
100
AcDbPolyline
 90
    7
 70
    0
 43
0
 10
264.3525000001781
 20
741.3240000004993
 10
335.9835000002263
 20
666.2820000004488
 10
352.7542500002376
 20
682.4842500004596
 10
306.1372500002062
 20
730.2382500004918
 10
300.7365000002026
 20
724.553250000488
 10
274.3012500001847
 20
752.6940000005069
 10
264.3525000001781
 20
741.3240000004993
  0
LWPOLYLINE
  5
89
100
AcDbEntity
  8
tubes
  6
ByLayer
 62
  256
370
   -1
100
AcDbPolyline
 90
   12
 70
    0
 43
0
 10
457.8624016087076
 20
574.5354115145839
 10
458.2671247025955
 20
578.660197881181
 10
293.9145000002019
 20
766.906500000527
 10
297.3790322945196
 20
770.0612684513726
 10
461.9308192371998
 20
582.323892415787
 10
470.8865169884387
 20
576.930119906518
 10
536.7791139928098
 20
547.3242043183973
 10
588.3905013196755
 20
598.5048372915385
 10
590.7081555889283
 20
596.3780281890963
 10
538.536839037919
 20
543.1814339075634
 10
464.6300774234691
 20
574.7235074429002
 10
461.9210493850593
 20
572.07857418831
  0
LWPOLYLINE
  5
8A
100
AcDbEntity
  8
buildings
  6
ByLayer
 62
  256
370
   -1
100
AcDbPolyline
 90
    2
 70
    0
 43
0
 10
461.9308192371998
 20
582.323892415787
 10
461.9308192371998
 20
582.323892415787
  0
LWPOLYLINE
  5
8B
100
AcDbEntity
  8
buildings
  6
ByLayer
 62
  256
370
   -1
100
AcDbPolyline
 90
    5
 70
    0
 43
0
 10
478.4520668429209
 20
611.6974494287711
 10
470.5364995605931
 20
604.0017590153969
 10
339.9296394021865
 20
750.6596306074158
 10
347.6253298155607
 20
758.7950747586971
 10
478.4520668429209
 20
611.6974494287711
  0
LWPOLYLINE
  5
8C
100
AcDbEntity
  8
buildings
  6
ByLayer
 62
  256
370
   -1
100
AcDbPolyline
 90
    5
 70
    0
 43
0
 10
484.9455920326149
 20
652.1636732788041
 10
505.4696051517381
 20
629.7977615464264
 10
537.7028308836943
 20
658.0840616785513
 10
514.5475340313502
 20
680.7131017842511
 10
484.9455920326149
 20
652.1636732788041
  0
LINE
  5
8D
100
AcDbEntity
  8
buildings
  6
ByLayer
 62
  256
370
   -1
100
AcDbLine
 10
525.335797337556
 20
669.2670175447402
 11
494.6813418455323
 21
641.7701025325815
  0
LWPOLYLINE
  5
8E
100
AcDbEntity
  8
fences
  6
ByLayer
 62
  256
370
   -1
100
AcDbPolyline
 90
    3
 70
    0
 43
0
 10
478.3521087570508
 20
611.5362590181455
 10
481.0134775285584
 20
608.5277551894849
 10
505.1972198435617
 20
629.7029936758274
  0
LWPOLYLINE
  5
8F
100
AcDbEntity
  8
fences
  6
ByLayer
 62
  256
370
   -1
100
AcDbPolyline
 90
    5
 70
    0
 43
0
 10
920.8787881549104
 20
336.60214283715
 10
866.6782500006616
 20
360.7132500002754
 10
852.4657500006507
 20
331.435500000253
 10
862.1302500006581
 20
326.8875000002495
 10
858.9351630961157
 20
317.6430559153906
  0
LINE
  5
90
100
AcDbEntity
  8
buildings
  6
ByLayer
 62
  256
370
   -1
100
AcDbLine
 10
1135.500000000876
 20
208.5000000001609
 11
1146.750000000885
 21
235.0000000001813
  0
LINE
  5
91
100
AcDbEntity
  8
buildings
  6
ByLayer
 62
  256
370
   -1
100
AcDbLine
 10
1128.00000000087
 20
210.5000000001624
 11
1139.750000000879
 21
238.0000000001836
  0
LINE
  5
92
100
AcDbEntity
  8
buildings
  6
ByLayer
 62
  256
370
   -1
100
AcDbLine
 10
1140.75000000088
 20
204.2500000001576
 11
1153.50000000089
 21
231.7500000001788
  0
LWPOLYLINE
  5
93
100
AcDbEntity
  8
buildings
  6
ByLayer
 62
  256
370
   -1
100
AcDbPolyline
 90
   13
 70
    0
 43
0
 10
1195.439182673916
 20
236.7137166626503
 10
882.6139759928909
 20
379.1609089906169
 10
891.6914931510456
 20
400.8072960600628
 10
1055.086801997831
 20
326.0923471429431
 10
1094.189952832959
 20
395.9194022056718
 10
1120.724233756796
 20
379.8591795412442
 10
1087.905517877313
 20
320.5061827379248
 10
1155.63776128816
 20
293.2736312634606
 10
1180.077230560115
 20
345.6439225605071
 10
1202.421888180188
 20
335.1698643010978
 10
1183.568583313252
 20
288.3857374090696
 10
1211.499405338343
 20
274.4203263965238
 10
1195.439182673916
 20
236.7137166626503
  0
LWPOLYLINE
  5
94
100
AcDbEntity
  8
buildings
  6
ByLayer
 62
  256
370
   -1
100
AcDbPolyline
 90
    3
 70
    0
 43
0
 10
1123.356000000869
 20
274.3012500002122
 10
1134.441750000877
 20
298.4625000002309
 10
1207.494000000934
 20
264.9210000002049
  0
LINE
  5
95
100
AcDbEntity
  8
buildings
  6
ByLayer
 62
  256
370
   -1
100
AcDbLine
 10
1128.188250000873
 20
285.6712500002209
 11
1201.240500000929
 21
251.5612500001946
  0
LWPOLYLINE
  5
96
100
AcDbEntity
  8
buildings
  6
ByLayer
 62
  256
370
   -1
100
AcDbPolyline
 90
    7
 70
    0
 43
0
 10
1341.428447196065
 20
348.9082230251045
 10
1272.485999032315
 20
201.436007568822
 10
1447.5142373162
 20
127.125773069348
 10
1459.796920704543
 20
154.7618106931194
 10
1314.24712255268
 20
219.8600326513362
 10
1371.975734477891
 20
334.7031223323415
 10
1341.428447196065
 20
348.9082230251045
  0
LWPOLYLINE
  5
97
100
AcDbEntity
  8
buildings
  6
ByLayer
 62
  256
370
   -1
100
AcDbPolyline
 90
    3
 70
    0
 43
0
 10
1195.439182673916
 20
236.7137166626503
 10
1247.713220187868
 20
219.295050820898
 10
1300.64650831705
 20
333.2636609765864
  0
LWPOLYLINE
  5
98
100
AcDbEntity
  8
buildings
  6
ByLayer
 62
  256
370
   -1
100
AcDbPolyline
 90
    7
 70
    0
 43
0
 10
746.7247500005891
 20
436.8922500003446
 10
709.4880000005597
 20
451.1047500003559
 10
727.6800000005741
 20
494.5950000003901
 10
746.1562500005887
 20
487.2045000003843
 10
741.0397500005846
 20
474.6975000003745
 10
758.9475000005987
 20
467.8755000003691
 10
746.7247500005891
 20
436.8922500003446
  0
LINE
  5
99
100
AcDbEntity
  8
fences
  6
ByLayer
 62
  256
370
   -1
100
AcDbLine
 10
746.7247500005891
 20
436.8922500003446
 11
882.6139759928909
 21
379.1609089906169
  0
LWPOLYLINE
  5
9A
100
AcDbEntity
  8
buildings
  6
ByLayer
 62
  256
370
   -1
100
AcDbPolyline
 90
    5
 70
    0
 43
0
 10
701.846965699766
 20
468.7774846089916
 10
641.1609498685832
 20
494.5030782765582
 10
649.296394019865
 20
513.4124890065644
 10
709.5426561131407
 20
487.9067722079513
 10
701.846965699766
 20
468.7774846089916
  0
LWPOLYLINE
  5
9B
100
AcDbEntity
  8
buildings
  6
ByLayer
 62
  256
370
   -1
100
AcDbPolyline
 90
    5
 70
    0
 43
0
 10
579.8153034305407
 20
513.8522427444724
 10
638.5224274411415
 20
491.2049252422556
 10
644.0193491649806
 20
504.6174142484228
 10
584.652594547519
 20
527.2647317506396
 10
579.8153034305407
 20
513.8522427444724
  0
LWPOLYLINE
  5
9C
100
AcDbEntity
  8
buildings
  6
ByLayer
 62
  256
370
   -1
100
AcDbPolyline
 90
    5
 70
    0
 43
0
 10
560.0878314245047
 20
599.0422013793897
 10
651.7731168061242
 20
695.0029663902038
 10
634.2525093200072
 20
711.7885924408191
 10
540.9152339044325
 20
615.8790299074925
 10
560.0878314245047
 20
599.0422013793897
  0
CIRCLE
  5
9D
100
AcDbEntity
  8
buildings
  6
ByLayer
 62
  256
370
   -1
100
AcDbCircle
 10
552.9369136853016
 20
530.4860762179194
 40
7.139397562728854
  0
CIRCLE
  5
9E
100
AcDbEntity
  8
buildings
  6
ByLayer
 62
  256
370
   -1
100
AcDbCircle
 10
569.7750417858383
 20
523.3426279328431
 40
7.500987080397492
  0
LWPOLYLINE
  5
9F
100
AcDbEntity
  8
buildings
  6
ByLayer
 62
  256
370
   -1
100
AcDbPolyline
 90
   13
 70
    0
 43
0
 10
667.2472361794197
 20
552.7664955950984
 10
584.5202776549831
 20
584.9380905768237
 10
569.8968253905625
 20
545.2458630019678
 10
690.6447598024926
 20
498.0330028339814
 10
709.446341285319
 20
541.4855467054025
 10
726.9944840026238
 20
562.3761927974319
 10
747.2204820006059
 20
544.2557490004414
 10
930.7946439862101
 20
757.6235474306361
 10
851.1918012146963
 20
823.959249740231
 10
668.6847652505437
 20
610.5101602504964
 10
692.6009917505631
 20
590.7954330004803
 10
672.2398800005466
 20
568.8183600004625
 10
667.2472361794197
 20
552.7664955950984
  0
LWPOLYLINE
  5
A0
100
AcDbEntity
  8
buildings
  6
ByLayer
 62
  256
370
   -1
100
AcDbPolyline
 90
    5
 70
    0
 43
0
 10
698.3427027968804
 20
494.6813418455671
 10
702.6843209566952
 20
492.8394432323124
 10
679.1623252110154
 20
433.7588540570352
 10
672.974058010915
 20
436.8529876570854
 10
698.3427027968804
 20
494.6813418455671
  0
LWPOLYLINE
  5
A1
100
AcDbEntity
  8
tubes
  6
ByLayer
 62
  256
370
   -1
100
AcDbPolyline
 90
    5
 70
    0
 43
0
 10
1027.056922430548
 20
285.4607286656333
 10
1039.090937745191
 20
310.57016446638
 10
1040.595189659522
 20
309.2973359234851
 10
1028.561174344878
 20
283.8407650655851
 10
1027.056922430548
 20
285.4607286656333
  0
LWPOLYLINE
  5
A2
100
AcDbEntity
  8
buildings
  6
ByLayer
 62
  256
370
   -1
100
AcDbPolyline
 90
    5
 70
    0
 43
0
 10
1082.062333087047
 20
264.4776686498519
 10
1092.43734131061
 20
287.0985882192604
 10
1097.87996857543
 20
284.547356688876
 10
1085.80413933161
 20
259.8854518951599
 10
1080.884764971385
 20
262.076067558481
  0
LINE
  5
A3
100
AcDbEntity
  8
buildings
  6
ByLayer
 62
  256
370
   -1
100
AcDbLine
 10
1082.977824096715
 20
261.1994199573236
 11
1095.258447819844
 21
285.839389350525
  0
LWPOLYLINE
  5
A4
100
AcDbEntity
  8
path
  6
ByLayer
 62
  256
370
   -1
100
AcDbPolyline
 90
   26
 70
    0
 43
0
 10
433.369195961313
 20
567.7340565615631
 10
343.2500000002969
 20
635.0000000005492
 10
299.0000000002586
 20
678.0000000005864
 42
0.3252522400016712
 10
269.5051364134596
 20
682.2212387058748
 10
232.8496042218384
 20
651.0554089715424
 42
-0.2683936933974557
 10
203.078029818608
 20
645.6316592893099
 10
135.3853532124054
 20
668.5927430627706
 42
0.2461698951636589
 10
102.4681089600353
 20
663.424909836141
 10
81.57431838177766
 20
634.7845206689816
 42
0.3490702784322858
 10
83.17119500989763
 20
596.2596822112446
 10
300.7087339200519
 20
429.9232293801689
 42
0.2220631205146629
 10
335.387624245745
 20
422.3223767060444
 10
435.6238688857624
 20
439.8993485149574
 42
-0.3390497429228902
 10
529.3689719720644
 20
391.0728948428195
 42
0.2958365905201096
 10
565.657500000502
 20
368.3880000003269
 42
-0.5093046958859838
 10
636.8198643297187
 20
273.8487457295737
 42
0.4574389272738416
 10
648.7028473791282
 20
254.9439999691495
 10
730.3369873774056
 20
222.6942873410511
 42
0.3394735513839801
 10
774.2073441706709
 20
235.2286749962697
 10
799.6401522630257
 20
286.7875080546716
 42
-0.8637869366704535
 10
836.7697554636305
 20
274.7977403544763
 10
834.3724049157223
 20
212.6667772168767
 42
0.2729174714881706
 10
852.7206593783544
 20
178.6200378419284
 42
-0.0204418511367679
 10
915.9027472320151
 20
136.815348134243
 42
0.1185161985212557
 10
1030.33689300092
 20
89.8474455000802
 42
0.3295043931630726
 10
1098.012358597158
 20
125.343876552187
 42
0.3295043931630726
  0
LWPOLYLINE
  5
A5
100
AcDbEntity
  8
path
  6
ByLayer
 62
  256
370
   -1
100
AcDbPolyline
 90
    6
 70
    0
 43
0
 10
1098.012358597158
 20
125.343876552187
 10
1142.969250001023
 20
226.5472500002028
 42
0.3216903923710713
 10
1137.423043096885
 20
253.2981530345277
 10
867.7694423572182
 20
373.1487995497645
 10
493.6772792935567
 20
529.9873479261803
 42
-0.08130524691617833
 10
433.3691959613129
 20
567.734056561563
 42
-0.08130524691617833
  0
CIRCLE
  5
A6
100
AcDbEntity
  8
buildings
  6
ByLayer
 62
  256
370
   -1
100
AcDbCircle
 10
940.1304651308043
 20
554.8622452111063
 40
29.29195703008461
  0
CIRCLE
  5
A7
100
AcDbEntity
  8
buildings
  6
ByLayer
 62
  256
370
   -1
100
AcDbCircle
 10
984.7854745912871
 20
609.4933738063779
 40
29.44564096546333
  0
LWPOLYLINE
  5
A8
100
AcDbEntity
  8
buildings
  6
ByLayer
 62
  256
370
   -1
100
AcDbPolyline
 90
    5
 70
    0
 43
0
 10
787.5176948199762
 20
537.9750507823707
 10
803.721762614626
 20
524.4716609534959
 10
867.4577626069149
 20
601.1709151815045
 10
852.3339659985751
 20
611.9736270446043
 10
787.5176948199762
 20
537.9750507823707
  0
LWPOLYLINE
  5
A9
100
AcDbEntity
  8
buildings
  6
ByLayer
 62
  256
370
   -1
100
AcDbPolyline
 90
    4
 70
    0
 43
0
 10
826.9475931202927
 20
552.0185762044017
 10
888.5230507399617
 20
509.8879999383124
 10
900.9461693825266
 20
526.6322033261172
 10
840.9911185423224
 20
570.9233219648265
  0
LWPOLYLINE
  5
AA
100
AcDbEntity
  8
buildings
  6
ByLayer
 62
  256
370
   -1
100
AcDbPolyline
 90
    5
 70
    0
 43
0
 10
898.7856270099065
 20
620.6157965350857
 10
917.6903727703314
 20
606.032135519901
 10
961.4413558158857
 20
657.8851524627802
 10
944.1570168349259
 20
673.0089490711199
 10
898.7856270099065
 20
620.6157965350857
  0
LWPOLYLINE
  5
AB
100
AcDbEntity
  8
buildings
  6
ByLayer
 62
  256
370
   -1
100
AcDbPolyline
 90
    5
 70
    0
 43
0
 10
339.9296394021865
 20
750.6596306074158
 10
309.5993750839094
 20
785.9061059822315
 10
325.8940790356941
 20
797.1870548719286
 10
355.9766094082197
 20
767.5223374212436
 10
347.6253298155607
 20
758.7950747586971
  0
LWPOLYLINE
  5
AC
100
AcDbEntity
  8
tubes
  6
ByLayer
 62
  256
370
   -1
100
AcDbPolyline
 90
    4
 70
    0
 43
0
 10
293.9145000002019
 20
766.906500000527
 10
239.2227019509699
 20
774.2584224434617
 10
239.9887373539169
 20
778.7547504627101
 10
297.3790322945196
 20
770.0612684513726
  0
LWPOLYLINE
  5
AD
100
AcDbEntity
  8
buildings
  6
ByLayer
 62
  256
370
   -1
100
AcDbPolyline
 90
    5
 70
    0
 43
0
 10
227.8437768537924
 20
801.4450910894855
 10
180.1538020618668
 20
945.4583255494871
 10
222.0500350995103
 20
958.7254660114074
 10
265.3428092384085
 20
813.4851914809102
 10
227.8437768537924
 20
801.4450910894855
  0
LWPOLYLINE
  5
AE
100
AcDbEntity
  8
buildings
  6
ByLayer
 62
  256
370
   -1
100
AcDbPolyline
 90
    4
 70
    0
 43
0
 10
222.0500350995103
 20
958.7254660114074
 10
322.3370481217176
 20
983.6837503024831
 10
332.6581851305411
 20
935.2537997226191
 10
233.9671863440732
 20
918.7453457070673
  0
LWPOLYLINE
  5
AF
100
AcDbEntity
  8
buildings
  6
ByLayer
 62
  256
370
   -1
100
AcDbPolyline
 90
    5
 70
    0
 43
0
 10
299.3129732558806
 20
825.6909607058776
 10
364.4155297730749
 20
846.3332347235246
 10
357.2701272285047
 20
867.7694423572349
 10
292.9615043273739
 20
847.1271683395879
 10
299.3129732558806
 20
825.6909607058776
  0
LINE
  5
B0
100
AcDbEntity
  8
fences
  6
ByLayer
 62
  256
370
   -1
100
AcDbLine
 10
178.4061176258116
 20
779.6389121540153
 11
130.2051130343884
 21
930.490198026239
  0
LINE
  5
B1
100
AcDbEntity
  8
fences
  6
ByLayer
 62
  256
370
   -1
100
AcDbLine
 10
264.3525000001781
 20
741.3240000004993
 11
239.2227019509699
 21
774.2584224434617
  0
LINE
  5
B2
100
AcDbEntity
  8
fences
  6
ByLayer
 62
  256
370
   -1
100
AcDbLine
 10
239.2227019509699
 20
774.2584224434617
 11
227.8437768537924
 21
801.4450910894855
  0
LWPOLYLINE
  5
B3
100
AcDbEntity
  8
coast
  6
ByLayer
 62
  256
370
   -1
100
AcDbPolyline
 90
    4
 70
    0
 43
0
 10
15.47066800024768
 20
652.862189610452
 10
7.993858795205266
 20
657.0271601250627
 10
-15.64755338635925
 20
635.9369794738828
 10
-51.87504111782141
 20
670.4636461850885
  0
LINE
  5
B4
100
AcDbEntity
  8
0
  6
ByLayer
 62
    1
370
  200
100
AcDbLine
 10
1266.500000001182
 20
8.250000000007701
 11
1346.000000001256
 21
8.250000000007701
  0
DIMENSION
  5
B5
100
AcDbEntity
  8
0
  6
ByLayer
 62
  256
370
   -1
100
AcDbDimension
  2
*D1
 10
1346.000000001256
 20
-16.15961250001509
 30
0
 11
1306.250000001219
 21
-14.28461250001509
 31
0
 70
   32
 71
    5
  3
Standard
 53
0
210
0
220
0
230
1
100
AcDbAlignedDimension
 13
1266.500000001182
 23
8.250000000007701
 33
0
 14
1346.000000001256
 24
8.250000000007701
 34
0
100
AcDbRotatedDimension
  0
ENDSEC
  0
SECTION
  2
OBJECTS
  0
DICTIONARY
  5
C
330
0
100
AcDbDictionary
281
    1
  3
ACAD_GROUP
350
D
  3
ACAD_IMAGE_DICT
350
B6
  0
DICTIONARY
  5
D
330
C
100
AcDbDictionary
281
    1
  0
IMAGEDEF_REACTOR
  5
5D
330
5E
100
AcDbRasterImageDefReactor
 90
    2
330
5E
  0
DICTIONARY
  5
B6
330
C
100
AcDbDictionary
281
    1
  3
Screenshot from 2023-05-15 23-51-51
350
5C
  0
IMAGEDEF
  5
5C
102
{ACAD_REACTORS
330
5D
102
}
100
AcDbRasterImageDef
 90
    0
  1
/home/bileyg/Pictures/Screenshots/Screenshot from 2023-05-15 23-51-51.png
 10
1366
 20
768
 11
1
 21
1
280
    1
281
    0
  0
ENDSEC
  0
EOF
