999
dxflib 3.26.4.0
  0
SECTION
  2
HEADER
  9
$ACADVER
  1
AC1015
  9
$HANDSEED
  5
FFFF
  9
$DIMADEC
 70
0
  9
$DIMASZ
 40
2.5
  9
$DIMATFIT
 70
0
  9
$DIMAUNIT
 70
0
  9
$DIMAZIN
 70
2
  9
$DIMBLK
  1
0
  9
$DIMBLK1
  1
0
  9
$DIMBLK2
  1
0
  9
$DIMDEC
 70
4
  9
$DIMDLI
 40
5.0
  9
$DIMDSEP
 70
46
  9
$DIMEXE
 40
1.25
  9
$DIMEXO
 40
0.625
  9
$DIMGAP
 40
0.625
  9
$DIMLFAC
 40
1.0
  9
$DIMLUNIT
 70
2
  9
$DIMSCALE
 40
1.0
  9
$DIMTAD
 70
1
  9
$DIMTIH
 70
0
  9
$DIMTSZ
 40
0.0
  9
$DIMTXT
 40
2.5
  9
$DIMZIN
 70
8
  9
$DWGCODEPAGE
  3
ANSI_1252
  9
$INSUNITS
 70
4
  9
$LTSCALE
 40
1.0
  9
$MAXACTVP
 70
64
  9
$MEASUREMENT
 70
1
  9
$MIRRTEXT
 70
0
  9
$PDMODE
 70
0
  9
$PDSIZE
 40
0.0
  0
ENDSEC
  0
SECTION
  2
TABLES
  0
TABLE
  2
VPORT
  5
8
100
AcDbSymbolTable
 70
1
  0
VPORT
  5
30
100
AcDbSymbolTableRecord
100
AcDbViewportTableRecord
  2
*Active
 70
0
 10
0.0
 20
0.0
 11
1.0
 21
1.0
 12
286.3055555555554861
 22
148.5
 13
0.0
 23
0.0
 14
10.0
 24
10.0
 15
10.0
 25
10.0
 16
0.0
 26
0.0
 36
1.0
 17
0.0
 27
0.0
 37
0.0
 40
297.0
 41
1.92798353909465
 42
50.0
 43
0.0
 44
0.0
 50
0.0
 51
0.0
 71
0
 72
100
 73
1
 74
3
 75
1
 76
1
 77
0
 78
0
281
0
 65
1
110
0.0
120
0.0
130
0.0
111
1.0
121
0.0
131
0.0
112
0.0
122
1.0
132
0.0
 79
0
146
0.0
  0
ENDTAB
  0
TABLE
  2
LTYPE
  5
5
100
AcDbSymbolTable
 70
41
  0
LTYPE
  5
16
100
AcDbSymbolTableRecord
100
AcDbLinetypeTableRecord
  2
Continuous
 70
0
  3
Solid line
 72
65
 73
0
 40
0.0
  0
LTYPE
  5
31
100
AcDbSymbolTableRecord
100
AcDbLinetypeTableRecord
  2
DOTX2
 70
0
  3
Dot (2x) .  .  .  .  .  .  .  .  .  .  .  .  .  .
 72
65
 73
2
 40
12.6999999999999993
 49
0.1
 74
0
 49
-12.5999999999999996
 74
0
  0
LTYPE
  5
32
100
AcDbSymbolTableRecord
100
AcDbLinetypeTableRecord
  2
DASHDOTX2
 70
0
  3
Dash dot (2x) ____  .  ____  .  ____  .  ___
 72
65
 73
4
 40
50.7999999999999972
 49
25.3999999999999986
 74
0
 49
-12.6499999999999986
 74
0
 49
0.1
 74
0
 49
-12.6499999999999986
 74
0
  0
LTYPE
  5
33
100
AcDbSymbolTableRecord
100
AcDbLinetypeTableRecord
  2
ACAD_ISO15W100
 70
0
  3
ISO double-dash triple-dot __ __ . . . __ __ . .
 72
65
 73
10
 40
39.0000000000000071
 49
12.0
 74
0
 49
-3.0
 74
0
 49
12.0
 74
0
 49
-2.9500000000000002
 74
0
 49
0.1
 74
0
 49
-2.9000000000000004
 74
0
 49
0.1
 74
0
 49
-2.9000000000000004
 74
0
 49
0.1
 74
0
 49
-2.9500000000000002
 74
0
  0
LTYPE
  5
34
100
AcDbSymbolTableRecord
100
AcDbLinetypeTableRecord
  2
DOT2
 70
0
  3
Dot (.5x) ........................................
 72
65
 73
2
 40
3.1749999999999998
 49
0.1
 74
0
 49
-3.0749999999999997
 74
0
  0
LTYPE
  5
35
100
AcDbSymbolTableRecord
100
AcDbLinetypeTableRecord
  2
ACAD_ISO12W100
 70
0
  3
ISO dash double-dot __ . . __ . . __ . . __ . . 
 72
65
 73
6
 40
21.0
 49
12.0
 74
0
 49
-2.9500000000000002
 74
0
 49
0.1
 74
0
 49
-2.9000000000000004
 74
0
 49
0.1
 74
0
 49
-2.9500000000000002
 74
0
  0
LTYPE
  5
36
100
AcDbSymbolTableRecord
100
AcDbLinetypeTableRecord
  2
DASHED2
 70
0
  3
Dashed (.5x) _ _ _ _ _ _ _ _ _ _ _ _ _ _ _ _ _ 
 72
65
 73
2
 40
9.5249999999999986
 49
6.3499999999999996
 74
0
 49
-3.1749999999999998
 74
0
  0
LTYPE
  5
37
100
AcDbSymbolTableRecord
100
AcDbLinetypeTableRecord
  2
ACAD_ISO02W100
 70
0
  3
ISO dash __ __ __ __ __ __ __ __ __ __ __ __ __
 72
65
 73
2
 40
15.0
 49
12.0
 74
0
 49
-3.0
 74
0
  0
LTYPE
  5
38
100
AcDbSymbolTableRecord
100
AcDbLinetypeTableRecord
  2
HIDDEN
 70
0
  3
Hidden __ __ __ __ __ __ __ __ __ __ __ __ __ __
 72
65
 73
2
 40
9.5249999999999986
 49
6.3499999999999996
 74
0
 49
-3.1749999999999998
 74
0
  0
LTYPE
  5
39
100
AcDbSymbolTableRecord
100
AcDbLinetypeTableRecord
  2
ACAD_ISO06W100
 70
0
  3
ISO long-dash triple-dot ____ ... ____ ... ____
 72
65
 73
8
 40
36.0000000000000071
 49
24.0
 74
0
 49
-2.9500000000000002
 74
0
 49
0.1
 74
0
 49
-2.9000000000000004
 74
0
 49
0.1
 74
0
 49
-2.9000000000000004
 74
0
 49
0.1
 74
0
 49
-2.9500000000000002
 74
0
  0
LTYPE
  5
3A
100
AcDbSymbolTableRecord
100
AcDbLinetypeTableRecord
  2
HIDDENX2
 70
0
  3
Hidden (2x) ____ ____ ____ ____ ____ ____ ____ 
 72
65
 73
2
 40
19.0499999999999972
 49
12.6999999999999993
 74
0
 49
-6.3499999999999996
 74
0
  0
LTYPE
  5
3B
100
AcDbSymbolTableRecord
100
AcDbLinetypeTableRecord
  2
CENTER
 70
0
  3
Center ____ _ ____ _ ____ _ ____ _ ____ _ ____
 72
65
 73
4
 40
50.8000000000000043
 49
31.75
 74
0
 49
-6.3499999999999996
 74
0
 49
6.3499999999999996
 74
0
 49
-6.3499999999999996
 74
0
  0
LTYPE
  5
3C
100
AcDbSymbolTableRecord
100
AcDbLinetypeTableRecord
  2
CENTERX2
 70
0
  3
Center (2x) ________  __  ________  __  _____
 72
65
 73
4
 40
101.6000000000000085
 49
63.5
 74
0
 49
-12.6999999999999993
 74
0
 49
12.6999999999999993
 74
0
 49
-12.6999999999999993
 74
0
  0
LTYPE
  5
3D
100
AcDbSymbolTableRecord
100
AcDbLinetypeTableRecord
  2
DIVIDEX2
 70
0
  3
Divide (2x) ________  .  .  ________  .  .  _
 72
65
 73
6
 40
63.5
 49
25.3999999999999986
 74
0
 49
-12.6499999999999986
 74
0
 49
0.1
 74
0
 49
-12.5999999999999979
 74
0
 49
0.1
 74
0
 49
-12.6499999999999986
 74
0
  0
LTYPE
  5
3E
100
AcDbSymbolTableRecord
100
AcDbLinetypeTableRecord
  2
ACAD_ISO04W100
 70
0
  3
ISO long-dash dot ____ . ____ . ____ . ____ . _
 72
65
 73
4
 40
30.0
 49
24.0
 74
0
 49
-2.9500000000000002
 74
0
 49
0.1
 74
0
 49
-2.9500000000000002
 74
0
  0
LTYPE
  5
3F
100
AcDbSymbolTableRecord
100
AcDbLinetypeTableRecord
  2
DASHEDX2
 70
0
  3
Dashed (2x) ____  ____  ____  ____  ____  ___
 72
65
 73
2
 40
38.0999999999999943
 49
25.3999999999999986
 74
0
 49
-12.6999999999999993
 74
0
  0
LTYPE
  5
40
100
AcDbSymbolTableRecord
100
AcDbLinetypeTableRecord
  2
DASHED
 70
0
  3
Dashed __ __ __ __ __ __ __ __ __ __ __ __ __ _
 72
65
 73
2
 40
19.0499999999999972
 49
12.6999999999999993
 74
0
 49
-6.3499999999999996
 74
0
  0
LTYPE
  5
41
100
AcDbSymbolTableRecord
100
AcDbLinetypeTableRecord
  2
ACAD_ISO13W100
 70
0
  3
ISO double-dash double-dot __ __ . . __ __ . . _
 72
65
 73
8
 40
36.0000000000000071
 49
12.0
 74
0
 49
-3.0
 74
0
 49
12.0
 74
0
 49
-2.9500000000000002
 74
0
 49
0.1
 74
0
 49
-2.9000000000000004
 74
0
 49
0.1
 74
0
 49
-2.9500000000000002
 74
0
  0
LTYPE
  5
42
100
AcDbSymbolTableRecord
100
AcDbLinetypeTableRecord
  2
ACAD_ISO05W100
 70
0
  3
ISO long-dash double-dot ____ .. ____ .. ____ . 
 72
65
 73
6
 40
33.0000000000000071
 49
24.0
 74
0
 49
-2.9500000000000002
 74
0
 49
0.1
 74
0
 49
-2.9000000000000004
 74
0
 49
0.1
 74
0
 49
-2.9500000000000002
 74
0
  0
LTYPE
  5
43
100
AcDbSymbolTableRecord
100
AcDbLinetypeTableRecord
  2
BORDERX2
 70
0
  3
Border (2x) ____  ____  .  ____  ____  .  ___
 72
65
 73
6
 40
88.8999999999999773
 49
25.3999999999999986
 74
0
 49
-12.6999999999999993
 74
0
 49
25.3999999999999986
 74
0
 49
-12.6499999999999986
 74
0
 49
0.1
 74
0
 49
-12.6499999999999986
 74
0
  0
LTYPE
  5
15
100
AcDbSymbolTableRecord
100
AcDbLinetypeTableRecord
  2
BYLAYER
 70
0
  3

 72
65
 73
0
 40
0.0
  0
LTYPE
  5
44
100
AcDbSymbolTableRecord
100
AcDbLinetypeTableRecord
  2
ACAD_ISO08W100
 70
0
  3
ISO long-dash short-dash ____ __ ____ __ ____ _
 72
65
 73
4
 40
36.0
 49
24.0
 74
0
 49
-3.0
 74
0
 49
6.0
 74
0
 49
-3.0
 74
0
  0
LTYPE
  5
45
100
AcDbSymbolTableRecord
100
AcDbLinetypeTableRecord
  2
ACAD_ISO11W100
 70
0
  3
ISO double-dash dot __ __ . __ __ . __ __ . __ _
 72
65
 73
6
 40
33.0
 49
12.0
 74
0
 49
-3.0
 74
0
 49
12.0
 74
0
 49
-2.9500000000000002
 74
0
 49
0.1
 74
0
 49
-2.9500000000000002
 74
0
  0
LTYPE
  5
46
100
AcDbSymbolTableRecord
100
AcDbLinetypeTableRecord
  2
DASHDOT
 70
0
  3
Dash dot __ . __ . __ . __ . __ . __ . __ . __
 72
65
 73
4
 40
25.4000000000000021
 49
12.6999999999999993
 74
0
 49
-6.2999999999999998
 74
0
 49
0.1
 74
0
 49
-6.2999999999999998
 74
0
  0
LTYPE
  5
47
100
AcDbSymbolTableRecord
100
AcDbLinetypeTableRecord
  2
DOT
 70
0
  3
Dot . . . . . . . . . . . . . . . . . . . . . . . .
 72
65
 73
2
 40
6.3499999999999996
 49
0.1
 74
0
 49
-6.25
 74
0
  0
LTYPE
  5
48
100
AcDbSymbolTableRecord
100
AcDbLinetypeTableRecord
  2
PHANTOM
 70
0
  3
Phantom ______  __  __  ______  __  __  ______ 
 72
65
 73
6
 40
63.5000000000000071
 49
31.75
 74
0
 49
-6.3499999999999996
 74
0
 49
6.3499999999999996
 74
0
 49
-6.3499999999999996
 74
0
 49
6.3499999999999996
 74
0
 49
-6.3499999999999996
 74
0
  0
LTYPE
  5
49
100
AcDbSymbolTableRecord
100
AcDbLinetypeTableRecord
  2
HIDDEN2
 70
0
  3
Hidden (.5x) _ _ _ _ _ _ _ _ _ _ _ _ _ _ _ _ _ 
 72
65
 73
2
 40
4.7624999999999993
 49
3.1749999999999998
 74
0
 49
-1.5874999999999999
 74
0
  0
LTYPE
  5
4A
100
AcDbSymbolTableRecord
100
AcDbLinetypeTableRecord
  2
ACAD_ISO09W100
 70
0
  3
ISO long-dash double-short-dash ____ __ __ ____
 72
65
 73
6
 40
45.0
 49
24.0
 74
0
 49
-3.0
 74
0
 49
6.0
 74
0
 49
-3.0
 74
0
 49
6.0
 74
0
 49
-3.0
 74
0
  0
LTYPE
  5
4B
100
AcDbSymbolTableRecord
100
AcDbLinetypeTableRecord
  2
BORDER
 70
0
  3
Border __ __ . __ __ . __ __ . __ __ . __ __ .
 72
65
 73
6
 40
44.4499999999999957
 49
12.6999999999999993
 74
0
 49
-6.3499999999999996
 74
0
 49
12.6999999999999993
 74
0
 49
-6.2999999999999998
 74
0
 49
0.1
 74
0
 49
-6.2999999999999998
 74
0
  0
LTYPE
  5
4C
100
AcDbSymbolTableRecord
100
AcDbLinetypeTableRecord
  2
PHANTOM2
 70
0
  3
Phantom (.5x) ___ _ _ ___ _ _ ___ _ _ ___ _ _
 72
65
 73
6
 40
31.7500000000000036
 49
15.875
 74
0
 49
-3.1749999999999998
 74
0
 49
3.1749999999999998
 74
0
 49
-3.1749999999999998
 74
0
 49
3.1749999999999998
 74
0
 49
-3.1749999999999998
 74
0
  0
LTYPE
  5
4D
100
AcDbSymbolTableRecord
100
AcDbLinetypeTableRecord
  2
BORDER2
 70
0
  3
Border (.5x) __.__.__.__.__.__.__.__.__.__.__.
 72
65
 73
6
 40
22.2250000000000014
 49
6.3499999999999996
 74
0
 49
-3.1749999999999998
 74
0
 49
6.3499999999999996
 74
0
 49
-3.125
 74
0
 49
0.1
 74
0
 49
-3.125
 74
0
  0
LTYPE
  5
4E
100
AcDbSymbolTableRecord
100
AcDbLinetypeTableRecord
  2
ACAD_ISO03W100
 70
0
  3
ISO dash space __    __    __    __    __    __
 72
65
 73
2
 40
30.0
 49
12.0
 74
0
 49
-18.0
 74
0
  0
LTYPE
  5
4F
100
AcDbSymbolTableRecord
100
AcDbLinetypeTableRecord
  2
DIVIDE2
 70
0
  3
Divide (.5x) __..__..__..__..__..__..__..__.._
 72
65
 73
6
 40
15.8749999999999982
 49
6.3499999999999996
 74
0
 49
-3.125
 74
0
 49
0.1
 74
0
 49
-3.0750000000000002
 74
0
 49
0.1
 74
0
 49
-3.125
 74
0
  0
LTYPE
  5
50
100
AcDbSymbolTableRecord
100
AcDbLinetypeTableRecord
  2
DIVIDE
 70
0
  3
Divide ____ . . ____ . . ____ . . ____ . . ____
 72
65
 73
6
 40
31.7500000000000036
 49
12.6999999999999993
 74
0
 49
-6.2999999999999998
 74
0
 49
0.1
 74
0
 49
-6.25
 74
0
 49
0.1
 74
0
 49
-6.2999999999999998
 74
0
  0
LTYPE
  5
51
100
AcDbSymbolTableRecord
100
AcDbLinetypeTableRecord
  2
DASHDOT2
 70
0
  3
Dash dot (.5x) _._._._._._._._._._._._._._._.
 72
65
 73
4
 40
12.6999999999999993
 49
6.3499999999999996
 74
0
 49
-3.125
 74
0
 49
0.1
 74
0
 49
-3.125
 74
0
  0
LTYPE
  5
52
100
AcDbSymbolTableRecord
100
AcDbLinetypeTableRecord
  2
ACAD_ISO14W100
 70
0
  3
ISO dash triple-dot __ . . . __ . . . __ . . . _
 72
65
 73
8
 40
24.0000000000000036
 49
12.0
 74
0
 49
-2.9500000000000002
 74
0
 49
0.1
 74
0
 49
-2.9000000000000004
 74
0
 49
0.1
 74
0
 49
-2.9000000000000004
 74
0
 49
0.1
 74
0
 49
-2.9500000000000002
 74
0
  0
LTYPE
  5
53
100
AcDbSymbolTableRecord
100
AcDbLinetypeTableRecord
  2
ACAD_ISO07W100
 70
0
  3
ISO dot . . . . . . . . . . . . . . . . . . . . 
 72
65
 73
2
 40
3.0
 49
0.1
 74
0
 49
-2.8999999999999999
 74
0
  0
LTYPE
  5
54
100
AcDbSymbolTableRecord
100
AcDbLinetypeTableRecord
  2
PHANTOMX2
 70
0
  3
Phantom (2x) ____________    ____    ____   _
 72
65
 73
6
 40
127.0000000000000142
 49
63.5
 74
0
 49
-12.6999999999999993
 74
0
 49
12.6999999999999993
 74
0
 49
-12.6999999999999993
 74
0
 49
12.6999999999999993
 74
0
 49
-12.6999999999999993
 74
0
  0
LTYPE
  5
14
100
AcDbSymbolTableRecord
100
AcDbLinetypeTableRecord
  2
BYBLOCK
 70
0
  3

 72
65
 73
0
 40
0.0
  0
LTYPE
  5
55
100
AcDbSymbolTableRecord
100
AcDbLinetypeTableRecord
  2
CENTER2
 70
0
  3
Center (.5x) ___ _ ___ _ ___ _ ___ _ ___ _ ___
 72
65
 73
4
 40
28.5750000000000028
 49
19.0500000000000007
 74
0
 49
-3.1749999999999998
 74
0
 49
3.1749999999999998
 74
0
 49
-3.1749999999999998
 74
0
  0
LTYPE
  5
56
100
AcDbSymbolTableRecord
100
AcDbLinetypeTableRecord
  2
ACAD_ISO10W100
 70
0
  3
ISO dash dot __ . __ . __ . __ . __ . __ . __ . 
 72
65
 73
4
 40
18.0
 49
12.0
 74
0
 49
-2.9500000000000002
 74
0
 49
0.1
 74
0
 49
-2.9500000000000002
 74
0
  0
ENDTAB
  0
TABLE
  2
LAYER
  5
2
100
AcDbSymbolTable
 70
12
  0
LAYER
  5
57
100
AcDbSymbolTableRecord
100
AcDbLayerTableRecord
  2
dims
 70
0
 62
4
420
65535
  6
Continuous
370
25
390
F
  0
LAYER
  5
58
100
AcDbSymbolTableRecord
100
AcDbLayerTableRecord
  2
road
 70
0
 62
5
420
255
  6
Continuous
370
25
390
F
  0
LAYER
  5
59
100
AcDbSymbolTableRecord
100
AcDbLayerTableRecord
  2
tribunes
 70
0
 62
5
420
255
  6
Continuous
370
25
390
F
  0
LAYER
  5
5A
100
AcDbSymbolTableRecord
100
AcDbLayerTableRecord
  2
bridges
 70
0
 62
5
420
255
  6
Continuous
370
25
390
F
  0
LAYER
  5
5B
100
AcDbSymbolTableRecord
100
AcDbLayerTableRecord
  2
nyroad_center
 70
0
 62
7
420
16777215
  6
CENTER2
370
100
390
F
  0
LAYER
  5
5C
100
AcDbSymbolTableRecord
100
AcDbLayerTableRecord
  2
houses
 70
0
 62
6
420
16711935
  6
Continuous
370
25
390
F
  0
LAYER
  5
10
100
AcDbSymbolTableRecord
100
AcDbLayerTableRecord
  2
0
 70
0
 62
7
420
16777215
  6
Continuous
370
25
390
F
  0
LAYER
  5
5D
100
AcDbSymbolTableRecord
100
AcDbLayerTableRecord
  2
trees
 70
0
 62
3
420
65280
  6
Continuous
370
25
390
F
  0
LAYER
  5
5E
100
AcDbSymbolTableRecord
100
AcDbLayerTableRecord
  2
nyroad_inner
 70
0
 62
12
420
11141120
  6
Continuous
370
25
390
F
  0
LAYER
  5
5F
100
AcDbSymbolTableRecord
100
AcDbLayerTableRecord
  2
draw
 70
0
 62
1
420
16711680
  6
Continuous
370
25
390
F
  0
LAYER
  5
60
100
AcDbSymbolTableRecord
100
AcDbLayerTableRecord
  2
nyroad_outer
 70
0
 62
222
420
11141247
  6
Continuous
370
25
390
F
  0
LAYER
  5
61
100
AcDbSymbolTableRecord
100
AcDbLayerTableRecord
  2
nyroad_ax
 70
0
 62
30
420
16744192
  6
Continuous
370
25
390
F
  0
ENDTAB
  0
TABLE
  2
STYLE
  5
3
100
AcDbSymbolTable
 70
1
  0
STYLE
  5
62
100
AcDbSymbolTableRecord
100
AcDbTextStyleTableRecord
  2
Standard
 70
0
 40
0.0
 41
1.0
 50
0.0
 71
0
 42
2.5
  3

  4

1001
ACAD
1000
txt
1071
0
  0
ENDTAB
  0
TABLE
  2
VIEW
  5
6
100
AcDbSymbolTable
 70
0
  0
ENDTAB
  0
TABLE
  2
UCS
  5
7
100
AcDbSymbolTable
 70
0
  0
ENDTAB
  0
TABLE
  2
APPID
  5
9
100
AcDbSymbolTable
 70
1
  0
APPID
  5
12
100
AcDbSymbolTableRecord
100
AcDbRegAppTableRecord
  2
ACAD
 70
0
  0
APPID
  5
63
100
AcDbSymbolTableRecord
100
AcDbRegAppTableRecord
  2
QCAD
 70
0
  0
ENDTAB
  0
TABLE
  2
DIMSTYLE
  5
A
100
AcDbSymbolTable
 70
1
100
AcDbDimStyleTable
 71
0
  0
DIMSTYLE
105
27
100
AcDbSymbolTableRecord
100
AcDbDimStyleTableRecord
  2
Standard
 41
2.5
 42
0.625
 43
3.75
 44
1.25
 70
0
 73
0
 74
0
 77
1
 78
8
140
2.5
141
2.5
143
0.03937007874016
147
0.625
171
3
172
1
271
2
272
2
274
3
278
44
283
0
284
8
340
62
  0
ENDTAB
  0
TABLE
  2
BLOCK_RECORD
  5
1
100
AcDbSymbolTable
 70
1
  0
BLOCK_RECORD
  5
1F
100
AcDbSymbolTableRecord
100
AcDbBlockTableRecord
  2
*Model_Space
340
22
  0
BLOCK_RECORD
  5
1B
100
AcDbSymbolTableRecord
100
AcDbBlockTableRecord
  2
*Paper_Space
340
1E
  0
BLOCK_RECORD
  5
23
100
AcDbSymbolTableRecord
100
AcDbBlockTableRecord
  2
*Paper_Space0
340
26
  0
ENDTAB
  0
ENDSEC
  0
SECTION
  2
BLOCKS
  0
BLOCK
  5
20
100
AcDbEntity
  8
0
100
AcDbBlockBegin
  2
*Model_Space
 70
0
 10
0.0
 20
0.0
 30
0.0
  3
*Model_Space
  1

  0
ENDBLK
  5
21
100
AcDbEntity
  8
0
100
AcDbBlockEnd
  0
BLOCK
  5
1C
100
AcDbEntity
 67
1
  8
0
100
AcDbBlockBegin
  2
*Paper_Space
 70
0
 10
0.0
 20
0.0
 30
0.0
  3
*Paper_Space
  1

  0
ENDBLK
  5
1D
100
AcDbEntity
 67
1
  8
0
100
AcDbBlockEnd
  0
BLOCK
  5
24
100
AcDbEntity
  8
0
100
AcDbBlockBegin
  2
*Paper_Space0
 70
0
 10
0.0
 20
0.0
 30
0.0
  3
*Paper_Space0
  1

  0
ENDBLK
  5
25
100
AcDbEntity
  8
0
100
AcDbBlockEnd
  0
ENDSEC
  0
SECTION
  2
ENTITIES
  0
ELLIPSE
  5
64
100
AcDbEntity
  8
houses
 62
256
370
-1
 48
1.0
  6
BYLAYER
100
AcDbEllipse
 10
10.0006766515762138
 20
-389.9995377149523392
 30
0.0
 11
60.8552042500257357
 21
-9.9066611569809311
 31
0.0
 40
0.5967183501430066
 41
0.0
 42
6.2831853071795862
  0
LWPOLYLINE
  5
65
100
AcDbEntity
  8
nyroad_center
 62
256
370
-1
 48
1.0
  6
BYLAYER
100
AcDbPolyline
 90
28
 70
1
 10
0.0
 20
0.0
 10
-600.0
 20
0.0
 42
0.9999999999999999
 10
-600.0
 20
-300.0
 10
0.0
 20
-300.0
 42
-0.2331672971702106
 10
107.1027009393205844
 20
-352.8172070838276113
 42
0.2679491924311236
 10
204.1100518530038244
 20
-392.9989674821664494
 10
252.4559358622541367
 20
-386.6341111042820557
 42
-0.4142135623730863
 10
342.2136201497569346
 20
-455.507604636587871
 10
346.7820368774587223
 20
-490.2081747846693816
 42
0.267949192431121
 10
389.3953369080691118
 20
-545.7429086050553906
 42
-0.3394542588633977
 10
419.8334083585050394
 20
-598.4631948416259775
 42
-0.3394542588633786
 10
342.3507281346601303
 20
-675.9458750654589494
 10
312.6073822934476993
 20
-679.8616608320619434
 42
0.4931454260312776
 10
265.006181875976381
 20
-762.3093584563938521
 10
280.3135191705714533
 20
-799.2645397568476255
 42
-0.3639702342661501
 10
259.0516233415196439
 20
-866.6986580566261864
 42
0.2679491924311752
 10
233.6554496135909176
 20
-915.4842538814380077
 42
0.4663076581549735
 10
276.1975238567915767
 20
-948.1279355728432847
 10
509.3711573208347545
 20
-896.4345855648166435
 42
0.6370702608075266
 10
523.1024208483077018
 20
-834.4968584054245184
 10
515.1688874453966491
 20
-828.4092441153401296
 42
-0.3394542588634083
 10
494.686210717722588
 20
-751.9668538926745214
 10
720.81337428812094
 20
-206.047588780079991
 42
0.5345111359507946
 10
670.0
 20
-129.9999999999994316
 42
-0.4142135623731039
 10
639.9999999999990905
 20
-99.9999999999994316
 10
640.0
 20
-40.0
 42
0.414213562373095
 10
600.0
 20
0.0000000000005684
 10
0.0
 20
0.0
  0
LWPOLYLINE
  5
66
100
AcDbEntity
  8
tribunes
 62
256
370
-1
 48
1.0
  6
BYLAYER
100
AcDbPolyline
 90
5
 70
0
 10
-600.0
 20
35.0
 10
-370.0
 20
35.0
 10
-370.0
 20
65.0
 10
-600.0
 20
65.0
 10
-600.0
 20
35.0
  0
LWPOLYLINE
  5
67
100
AcDbEntity
  8
tribunes
 62
256
370
-1
 48
1.0
  6
BYLAYER
100
AcDbPolyline
 90
5
 70
0
 10
-350.0
 20
35.0
 10
-250.0
 20
35.0
 10
-250.0
 20
65.0
 10
-350.0
 20
65.0
 10
-350.0
 20
35.0
  0
LWPOLYLINE
  5
68
100
AcDbEntity
  8
tribunes
 62
256
370
-1
 48
1.0
  6
BYLAYER
100
AcDbPolyline
 90
5
 70
0
 10
659.9999999999990905
 20
49.9999999999997726
 10
744.2925341560612651
 20
-3.8030546116955293
 10
760.4334505395700035
 20
21.4847056351231913
 10
676.1409163835078289
 20
75.2877602468183795
 10
659.9999999999990905
 20
49.9999999999997726
  0
LWPOLYLINE
  5
69
100
AcDbEntity
  8
tribunes
 62
256
370
-1
 48
1.0
  6
BYLAYER
100
AcDbPolyline
 90
5
 70
0
 10
744.2925341560612651
 20
-3.8030546116955293
 10
801.5791435958253714
 20
-85.76795184762193
 10
826.1686127666025641
 20
-68.581969015693403
 10
768.8820033268393672
 20
13.3829282202334525
 10
744.2925341560612651
 20
-3.8030546116955293
  0
LWPOLYLINE
  5
6A
100
AcDbEntity
  8
tribunes
 62
256
370
-1
 48
1.0
  6
BYLAYER
100
AcDbPolyline
 90
5
 70
0
 10
816.4385225150163023
 20
-184.6577837725270683
 10
801.579143595824462
 20
-85.7679518476222711
 10
831.2460931732957761
 20
-81.3101381718649918
 10
846.105472092488526
 20
-180.1999700967691069
 10
816.4385225150163023
 20
-184.6577837725270683
  0
LWPOLYLINE
  5
6B
100
AcDbEntity
  8
tribunes
 62
256
370
-1
 48
1.0
  6
BYLAYER
100
AcDbPolyline
 90
5
 70
0
 10
559.0619606947293505
 20
-157.6105427980013474
 10
616.3485701344934569
 20
-239.5754400339277481
 10
640.9380393052706495
 20
-222.3894572019992211
 10
583.6514298655074526
 20
-140.4245599660723656
 10
559.0619606947293505
 20
-157.6105427980013474
  0
LWPOLYLINE
  5
6C
100
AcDbEntity
  8
tribunes
 62
256
370
-1
 48
1.0
  6
BYLAYER
100
AcDbPolyline
 90
5
 70
0
 10
291.3482968324574358
 20
-1016.4686560712391383
 10
388.9778975444510252
 20
-994.8246946774337403
 10
382.4847091263090988
 20
-965.5358144638355498
 10
284.8551084143155094
 20
-987.1797758576409478
 10
291.3482968324574358
 20
-1016.4686560712391383
  0
LWPOLYLINE
  5
6D
100
AcDbEntity
  8
tribunes
 62
256
370
-1
 48
1.0
  6
BYLAYER
100
AcDbPolyline
 90
5
 70
0
 10
210.0
 20
-990.0
 10
188.356038606194943
 20
-892.3703992880064106
 10
159.0671583925964114
 20
-898.8635877061482233
 10
180.7111197864019232
 20
-996.4931884181419264
 10
210.0
 20
-990.0
  0
LINE
  5
6E
100
AcDbEntity
  8
nyroad_inner
 62
256
370
-1
 48
1.0
  6
BYLAYER
100
AcDbLine
 10
0.0
 20
-30.0
 30
0.0
 11
-600.0
 21
-30.0
 31
0.0
  0
ARC
  5
6F
100
AcDbEntity
  8
nyroad_inner
 62
256
370
-1
 48
1.0
  6
BYLAYER
100
AcDbCircle
 10
-600.0
 20
-150.0
 30
0.0
 40
120.0
100
AcDbArc
 50
90.0
 51
270.0
  0
LINE
  5
70
100
AcDbEntity
  8
nyroad_inner
 62
256
370
-1
 48
1.0
  6
BYLAYER
100
AcDbLine
 10
-600.0
 20
-270.0
 30
0.0
 11
0.0
 21
-270.0
 31
0.0
  0
ARC
  5
71
100
AcDbEntity
  8
nyroad_inner
 62
256
370
-1
 48
1.0
  6
BYLAYER
100
AcDbCircle
 10
0.0
 20
-435.0000000000001137
 30
0.0
 40
165.0000000000000284
100
AcDbArc
 50
37.4999999999974136
 51
90.0
  0
ARC
  5
72
100
AcDbEntity
  8
nyroad_inner
 62
256
370
-1
 48
1.0
  6
BYLAYER
100
AcDbCircle
 10
190.4048016699030086
 20
-288.8972570379161198
 30
0.0
 40
74.9999999999996589
100
AcDbArc
 50
217.4999999999972715
 51
277.4999999999974989
  0
LINE
  5
73
100
AcDbEntity
  8
nyroad_inner
 62
256
370
-1
 48
1.0
  6
BYLAYER
100
AcDbLine
 10
200.1942660864046957
 20
-363.2556216409518584
 30
0.0
 11
248.540150095655008
 21
-356.8907652630674647
 31
0.0
  0
ARC
  5
74
100
AcDbEntity
  8
nyroad_inner
 62
256
370
-1
 48
1.0
  6
BYLAYER
100
AcDbCircle
 10
262.8980312398516617
 20
-465.9497000141877834
 30
0.0
 40
109.9999999999999289
100
AcDbArc
 50
7.4999999999969917
 51
97.4999999999952394
  0
LINE
  5
75
100
AcDbEntity
  8
nyroad_inner
 62
256
370
-1
 48
1.0
  6
BYLAYER
100
AcDbLine
 10
371.9569659909711845
 20
-451.5918188699861275
 30
0.0
 11
376.5253827186729723
 21
-486.2923890180676381
 31
0.0
  0
ARC
  5
76
100
AcDbEntity
  8
nyroad_inner
 62
256
370
-1
 48
1.0
  6
BYLAYER
100
AcDbCircle
 10
416.183177173625154
 20
-481.0713413292653513
 30
0.0
 40
40.0000000000000142
100
AcDbArc
 50
187.5000000000003411
 51
247.5000000000001705
  0
ARC
  5
77
100
AcDbEntity
  8
nyroad_inner
 62
256
370
-1
 48
1.0
  6
BYLAYER
100
AcDbCircle
 10
370.2611652898149259
 20
-591.9368852306199642
 30
0.0
 40
80.0000000000000142
100
AcDbArc
 50
352.4999999999959641
 51
67.5000000000004121
  0
ARC
  5
78
100
AcDbEntity
  8
nyroad_inner
 62
256
370
-1
 48
1.0
  6
BYLAYER
100
AcDbCircle
 10
330.6033708348627442
 20
-586.7158375418148353
 30
0.0
 40
120.0000000000001563
100
AcDbArc
 50
277.499999999995282
 51
352.4999999999958504
  0
LINE
  5
79
100
AcDbEntity
  8
nyroad_inner
 62
256
370
-1
 48
1.0
  6
BYLAYER
100
AcDbLine
 10
346.2665139012633517
 20
-705.689220906672972
 30
0.0
 11
316.5231680600509208
 21
-709.605006673275966
 31
0.0
  0
ARC
  5
7A
100
AcDbEntity
  8
nyroad_inner
 62
256
370
-1
 48
1.0
  6
BYLAYER
100
AcDbCircle
 10
320.4389538266541422
 20
-739.3483525144899886
 30
0.0
 40
29.9999999999999503
100
AcDbArc
 50
97.5000000000032259
 51
202.4999999999984368
  0
LINE
  5
7B
100
AcDbEntity
  8
nyroad_inner
 62
256
370
-1
 48
1.0
  6
BYLAYER
100
AcDbLine
 10
292.7225678513173079
 20
-750.8288554854473205
 30
0.0
 11
308.0299051459123802
 21
-787.7840367859009802
 31
0.0
  0
ARC
  5
7C
100
AcDbEntity
  8
nyroad_inner
 62
256
370
-1
 48
1.0
  6
BYLAYER
100
AcDbCircle
 10
229.5001448824464205
 20
-820.3121285369163616
 30
0.0
 40
85.0000000000000568
100
AcDbArc
 50
302.4999999999975557
 51
22.4999999999875193
  0
ARC
  5
7D
100
AcDbEntity
  8
nyroad_inner
 62
256
370
-1
 48
1.0
  6
BYLAYER
100
AcDbCircle
 10
288.6031018005928672
 20
-913.0851875763363523
 30
0.0
 40
25.0000000000000284
100
AcDbArc
 50
122.499999999997371
 51
182.5000000000083844
  0
ARC
  5
7E
100
AcDbEntity
  8
nyroad_inner
 62
256
370
-1
 48
1.0
  6
BYLAYER
100
AcDbCircle
 10
268.6221373689559186
 20
-913.9575753236460969
 30
0.0
 40
5.0000000000000497
100
AcDbArc
 50
182.5000000000085549
 51
282.5000000000034106
  0
LINE
  5
7F
100
AcDbEntity
  8
nyroad_inner
 62
256
370
-1
 48
1.0
  6
BYLAYER
100
AcDbLine
 10
269.7043354386501051
 20
-918.8390553592449805
 30
0.0
 11
502.8779689026932829
 21
-867.1457053512182256
 31
0.0
  0
ARC
  5
80
100
AcDbEntity
  8
nyroad_inner
 62
256
370
-1
 48
1.0
  6
BYLAYER
100
AcDbCircle
 10
501.7957708330031892
 20
-862.2642253156184324
 30
0.0
 40
5.0
100
AcDbArc
 50
282.4999999999965326
 51
52.5000000000015703
  0
LINE
  5
81
100
AcDbEntity
  8
nyroad_inner
 62
256
370
-1
 48
1.0
  6
BYLAYER
100
AcDbLine
 10
504.8395779780494195
 20
-858.2974586141641566
 30
0.0
 11
496.9060445751383668
 21
-852.2098443240797678
 31
0.0
  0
ARC
  5
82
100
AcDbEntity
  8
nyroad_inner
 62
256
370
-1
 48
1.0
  6
BYLAYER
100
AcDbCircle
 10
554.7383803309567156
 20
-776.8412769964044173
 30
0.0
 40
95.0000000000001705
100
AcDbArc
 50
157.5000000000009095
 51
232.500000000007617
  0
LINE
  5
83
100
AcDbEntity
  8
nyroad_inner
 62
256
370
-1
 48
1.0
  6
BYLAYER
100
AcDbLine
 10
466.9698247423839348
 20
-740.4863509217213959
 30
0.0
 11
693.0969883127827416
 21
-194.5670858091269793
 31
0.0
  0
ARC
  5
84
100
AcDbEntity
  8
nyroad_inner
 62
256
370
-1
 48
1.0
  6
BYLAYER
100
AcDbCircle
 10
670.0000000000009095
 20
-184.9999999999996589
 30
0.0
 40
25.000000000000199
100
AcDbArc
 50
337.4999999999993179
 51
90.0000000000009663
  0
ARC
  5
85
100
AcDbEntity
  8
nyroad_inner
 62
256
370
-1
 48
1.0
  6
BYLAYER
100
AcDbCircle
 10
670.0
 20
-99.9999999999994316
 30
0.0
 40
60.0
100
AcDbArc
 50
180.0
 51
270.0
  0
LINE
  5
86
100
AcDbEntity
  8
nyroad_inner
 62
256
370
-1
 48
1.0
  6
BYLAYER
100
AcDbLine
 10
609.9999999999990905
 20
-99.9999999999989768
 30
0.0
 11
610.0
 21
-39.9999999999995453
 31
0.0
  0
ARC
  5
87
100
AcDbEntity
  8
nyroad_inner
 62
256
370
-1
 48
1.0
  6
BYLAYER
100
AcDbCircle
 10
600.0
 20
-39.9999999999997726
 30
0.0
 40
10.0000000000002842
100
AcDbArc
 50
360.0
 51
90.0
  0
LINE
  5
88
100
AcDbEntity
  8
nyroad_inner
 62
256
370
-1
 48
1.0
  6
BYLAYER
100
AcDbLine
 10
600.0
 20
-29.9999999999994316
 30
0.0
 11
0.0
 21
-30.0
 31
0.0
  0
ARC
  5
89
100
AcDbEntity
  8
nyroad_outer
 62
256
370
-1
 48
1.0
  6
BYLAYER
100
AcDbCircle
 10
-600.0
 20
-150.0
 30
0.0
 40
180.0
100
AcDbArc
 50
90.0
 51
270.0
  0
LINE
  5
8A
100
AcDbEntity
  8
nyroad_outer
 62
256
370
-1
 48
1.0
  6
BYLAYER
100
AcDbLine
 10
0.0
 20
30.0
 30
0.0
 11
-600.0
 21
30.0
 31
0.0
  0
LINE
  5
8B
100
AcDbEntity
  8
nyroad_outer
 62
256
370
-1
 48
1.0
  6
BYLAYER
100
AcDbLine
 10
600.0
 20
30.0000000000004547
 30
0.0
 11
0.0
 21
30.0
 31
0.0
  0
ARC
  5
8C
100
AcDbEntity
  8
nyroad_outer
 62
256
370
-1
 48
1.0
  6
BYLAYER
100
AcDbCircle
 10
600.0
 20
-39.9999999999997726
 30
0.0
 40
70.0000000000002842
100
AcDbArc
 50
360.0
 51
90.0
  0
LINE
  5
8D
100
AcDbEntity
  8
nyroad_outer
 62
256
370
-1
 48
1.0
  6
BYLAYER
100
AcDbLine
 10
669.9999999999990905
 20
-99.9999999999998863
 30
0.0
 11
670.0
 21
-40.0000000000004547
 31
0.0
  0
ARC
  5
8E
100
AcDbEntity
  8
nyroad_outer
 62
256
370
-1
 48
1.0
  6
BYLAYER
100
AcDbCircle
 10
670.0000000000009095
 20
-184.9999999999996589
 30
0.0
 40
85.000000000000199
100
AcDbArc
 50
337.4999999999993179
 51
90.0000000000009663
  0
ARC
  5
8F
100
AcDbEntity
  8
nyroad_outer
 62
256
370
-1
 48
1.0
  6
BYLAYER
100
AcDbCircle
 10
670.0000000000009095
 20
-184.9999999999996589
 30
0.0
 40
25.000000000000199
100
AcDbArc
 50
337.4999999999993179
 51
90.0000000000009663
  0
LINE
  5
90
100
AcDbEntity
  8
nyroad_outer
 62
256
370
-1
 48
1.0
  6
BYLAYER
100
AcDbLine
 10
522.4025966930612412
 20
-763.4473568636275331
 30
0.0
 11
748.5297602634591385
 21
-217.5280917510330028
 31
0.0
  0
ARC
  5
91
100
AcDbEntity
  8
nyroad_outer
 62
256
370
-1
 48
1.0
  6
BYLAYER
100
AcDbCircle
 10
554.7383803309567156
 20
-776.8412769964044173
 30
0.0
 40
95.0000000000001705
100
AcDbArc
 50
157.5000000000009095
 51
232.500000000007617
  0
ARC
  5
92
100
AcDbEntity
  8
nyroad_outer
 62
256
370
-1
 48
1.0
  6
BYLAYER
100
AcDbCircle
 10
554.7383803309567156
 20
-776.8412769964044173
 30
0.0
 40
35.0000000000001705
100
AcDbArc
 50
157.5000000000009095
 51
232.500000000007617
  0
ARC
  5
93
100
AcDbEntity
  8
nyroad_outer
 62
256
370
-1
 48
1.0
  6
BYLAYER
100
AcDbCircle
 10
501.7957708330031892
 20
-862.2642253156184324
 30
0.0
 40
65.0
100
AcDbArc
 50
282.4999999999965326
 51
52.5000000000015703
  0
LINE
  5
94
100
AcDbEntity
  8
nyroad_outer
 62
256
370
-1
 48
1.0
  6
BYLAYER
100
AcDbLine
 10
541.3652637185659842
 20
-810.6962581966849939
 30
0.0
 11
533.4317303156549315
 21
-804.6086439066004914
 31
0.0
  0
LINE
  5
95
100
AcDbEntity
  8
nyroad_outer
 62
256
370
-1
 48
1.0
  6
BYLAYER
100
AcDbLine
 10
282.6907122749330483
 20
-977.4168157864417026
 30
0.0
 11
515.8643457389762261
 21
-925.7234657784149476
 31
0.0
  0
ARC
  5
96
100
AcDbEntity
  8
nyroad_outer
 62
256
370
-1
 48
1.0
  6
BYLAYER
100
AcDbCircle
 10
268.6221373689559186
 20
-913.9575753236460969
 30
0.0
 40
65.0000000000000568
100
AcDbArc
 50
182.5000000000085549
 51
282.5000000000034106
  0
ARC
  5
97
100
AcDbEntity
  8
nyroad_outer
 62
256
370
-1
 48
1.0
  6
BYLAYER
100
AcDbCircle
 10
288.6031018005928672
 20
-913.0851875763363523
 30
0.0
 40
85.0000000000000284
100
AcDbArc
 50
122.499999999997371
 51
182.5000000000083844
  0
ARC
  5
98
100
AcDbEntity
  8
nyroad_outer
 62
256
370
-1
 48
1.0
  6
BYLAYER
100
AcDbCircle
 10
229.5001448824464205
 20
-820.3121285369163616
 30
0.0
 40
85.0000000000000568
100
AcDbArc
 50
302.4999999999975557
 51
22.4999999999875193
  0
ARC
  5
99
100
AcDbEntity
  8
nyroad_outer
 62
256
370
-1
 48
1.0
  6
BYLAYER
100
AcDbCircle
 10
229.5001448824464205
 20
-820.3121285369163616
 30
0.0
 40
25.0000000000000497
100
AcDbArc
 50
302.4999999999975557
 51
22.4999999999875193
  0
LINE
  5
9A
100
AcDbEntity
  8
nyroad_outer
 62
256
370
-1
 48
1.0
  6
BYLAYER
100
AcDbLine
 10
237.289795900635454
 20
-773.7898614273404974
 30
0.0
 11
252.5971331952305263
 21
-810.7450427277942708
 31
0.0
  0
ARC
  5
9B
100
AcDbEntity
  8
nyroad_outer
 62
256
370
-1
 48
1.0
  6
BYLAYER
100
AcDbCircle
 10
320.4389538266541422
 20
-739.3483525144899886
 30
0.0
 40
89.9999999999999432
100
AcDbArc
 50
97.5000000000032259
 51
202.4999999999984368
  0
ARC
  5
9C
100
AcDbEntity
  8
nyroad_outer
 62
256
370
-1
 48
1.0
  6
BYLAYER
100
AcDbCircle
 10
330.6033708348627442
 20
-586.7158375418148353
 30
0.0
 40
60.0000000000001563
100
AcDbArc
 50
277.499999999995282
 51
352.4999999999958504
  0
LINE
  5
9D
100
AcDbEntity
  8
nyroad_outer
 62
256
370
-1
 48
1.0
  6
BYLAYER
100
AcDbLine
 10
338.4349423680569089
 20
-646.2025292242449268
 30
0.0
 11
308.6915965268444779
 21
-650.1183149908479209
 31
0.0
  0
ARC
  5
9E
100
AcDbEntity
  8
nyroad_outer
 62
256
370
-1
 48
1.0
  6
BYLAYER
100
AcDbCircle
 10
370.2611652898149259
 20
-591.9368852306199642
 30
0.0
 40
20.0000000000000142
100
AcDbArc
 50
352.4999999999959641
 51
67.5000000000004121
  0
ARC
  5
9F
100
AcDbEntity
  8
nyroad_outer
 62
256
370
-1
 48
1.0
  6
BYLAYER
100
AcDbCircle
 10
416.183177173625154
 20
-481.0713413292653513
 30
0.0
 40
100.0000000000000142
100
AcDbArc
 50
187.5000000000003411
 51
247.5000000000001705
  0
LINE
  5
A0
100
AcDbEntity
  8
nyroad_outer
 62
256
370
-1
 48
1.0
  6
BYLAYER
100
AcDbLine
 10
312.4702743085426846
 20
-459.4233904031896145
 30
0.0
 11
317.0386910362444723
 21
-494.123960551271125
 31
0.0
  0
ARC
  5
A1
100
AcDbEntity
  8
nyroad_outer
 62
256
370
-1
 48
1.0
  6
BYLAYER
100
AcDbCircle
 10
262.8980312398516617
 20
-465.9497000141877834
 30
0.0
 40
49.9999999999999289
100
AcDbArc
 50
7.4999999999969917
 51
97.4999999999952394
  0
ARC
  5
A2
100
AcDbEntity
  8
nyroad_outer
 62
256
370
-1
 48
1.0
  6
BYLAYER
100
AcDbCircle
 10
262.8980312398516617
 20
-465.9497000141877834
 30
0.0
 40
49.9999999999999289
100
AcDbArc
 50
7.4999999999969917
 51
97.4999999999952394
  0
LINE
  5
A3
100
AcDbEntity
  8
nyroad_outer
 62
256
370
-1
 48
1.0
  6
BYLAYER
100
AcDbLine
 10
208.0258376196029531
 20
-422.7423133233810404
 30
0.0
 11
256.3717216288532654
 21
-416.3774569454966468
 31
0.0
  0
ARC
  5
A4
100
AcDbEntity
  8
nyroad_outer
 62
256
370
-1
 48
1.0
  6
BYLAYER
100
AcDbCircle
 10
190.4048016699030086
 20
-288.8972570379161198
 30
0.0
 40
134.9999999999996589
100
AcDbArc
 50
217.4999999999972715
 51
277.4999999999974989
  0
ARC
  5
A5
100
AcDbEntity
  8
nyroad_outer
 62
256
370
-1
 48
1.0
  6
BYLAYER
100
AcDbCircle
 10
0.0
 20
-435.0000000000001137
 30
0.0
 40
105.0000000000000284
100
AcDbArc
 50
37.4999999999974136
 51
90.0
  0
LINE
  5
A6
100
AcDbEntity
  8
nyroad_outer
 62
256
370
-1
 48
1.0
  6
BYLAYER
100
AcDbLine
 10
-600.0
 20
-330.0
 30
0.0
 11
0.0
 21
-330.0
 31
0.0
  0
LINE
  5
A7
100
AcDbEntity
  8
trees
 62
256
370
-1
 48
1.0
  6
BYLAYER
100
AcDbLine
 10
-240.0
 20
40.0
 30
0.0
 11
650.0
 21
40.0
 31
0.0
  0
LINE
  5
A8
100
AcDbEntity
  8
trees
 62
256
370
-1
 48
1.0
  6
BYLAYER
100
AcDbLine
 10
-100.0
 20
50.0
 30
0.0
 11
-100.0
 21
200.0
 31
0.0
  0
LINE
  5
A9
100
AcDbEntity
  8
trees
 62
256
370
-1
 48
1.0
  6
BYLAYER
100
AcDbLine
 10
0.0
 20
50.0
 30
0.0
 11
0.0
 21
200.0
 31
0.0
  0
LINE
  5
AA
100
AcDbEntity
  8
trees
 62
256
370
-1
 48
1.0
  6
BYLAYER
100
AcDbLine
 10
100.0
 20
50.0
 30
0.0
 11
100.0
 21
200.0
 31
0.0
  0
LINE
  5
AB
100
AcDbEntity
  8
trees
 62
256
370
-1
 48
1.0
  6
BYLAYER
100
AcDbLine
 10
200.0
 20
50.0
 30
0.0
 11
200.0
 21
200.0
 31
0.0
  0
LINE
  5
AC
100
AcDbEntity
  8
trees
 62
256
370
-1
 48
1.0
  6
BYLAYER
100
AcDbLine
 10
300.0
 20
50.0
 30
0.0
 11
300.0
 21
200.0
 31
0.0
  0
LINE
  5
AD
100
AcDbEntity
  8
trees
 62
256
370
-1
 48
1.0
  6
BYLAYER
100
AcDbLine
 10
400.0
 20
50.0
 30
0.0
 11
400.0
 21
200.0
 31
0.0
  0
LINE
  5
AE
100
AcDbEntity
  8
trees
 62
256
370
-1
 48
1.0
  6
BYLAYER
100
AcDbLine
 10
500.0
 20
50.0
 30
0.0
 11
500.0
 21
200.0
 31
0.0
  0
LINE
  5
AF
100
AcDbEntity
  8
trees
 62
256
370
-1
 48
1.0
  6
BYLAYER
100
AcDbLine
 10
600.0
 20
-39.9999999999994316
 30
0.0
 11
-0.0806661517030989
 21
-40.0
 31
0.0
  0
LINE
  5
B0
100
AcDbEntity
  8
trees
 62
256
370
-1
 48
1.0
  6
BYLAYER
100
AcDbLine
 10
492.126710984431611
 20
-653.6209956715715634
 30
0.0
 11
664.9550703327859082
 21
-236.376426570097351
 31
0.0
  0
ARC
  5
B1
100
AcDbEntity
  8
trees
 62
256
370
-1
 48
1.0
  6
BYLAYER
100
AcDbCircle
 10
330.6033708348627442
 20
-586.7158375418148353
 30
0.0
 40
130.0000000000001705
100
AcDbArc
 50
337.499999999999261
 51
352.4999999999957936
  0
ARC
  5
B2
100
AcDbEntity
  8
trees
 62
256
370
-1
 48
1.0
  6
BYLAYER
100
AcDbCircle
 10
370.2611652898149259
 20
-591.9368852306199642
 30
0.0
 40
90.0000000000000142
100
AcDbArc
 50
352.4999999999959641
 51
67.5000000000004121
  0
ARC
  5
B3
100
AcDbEntity
  8
trees
 62
256
370
-1
 48
1.0
  6
BYLAYER
100
AcDbCircle
 10
416.183177173625154
 20
-481.0713413292653513
 30
0.0
 40
30.0000000000000142
100
AcDbArc
 50
187.5000000000003411
 51
247.5000000000001705
  0
LINE
  5
B4
100
AcDbEntity
  8
trees
 62
256
370
-1
 48
1.0
  6
BYLAYER
100
AcDbLine
 10
381.8714146047091162
 20
-450.2865569477855843
 30
0.0
 11
386.439831332410904
 21
-484.9871270958670948
 31
0.0
  0
ARC
  5
B5
100
AcDbEntity
  8
trees
 62
256
370
-1
 48
1.0
  6
BYLAYER
100
AcDbCircle
 10
262.8980312398516617
 20
-465.9497000141877834
 30
0.0
 40
119.9999999999999289
100
AcDbArc
 50
7.4999999999969917
 51
97.4999999999952394
  0
LINE
  5
B6
100
AcDbEntity
  8
trees
 62
256
370
-1
 48
1.0
  6
BYLAYER
100
AcDbLine
 10
198.8890041642048345
 20
-353.3411730272136992
 30
0.0
 11
247.2348881734551469
 21
-346.9763166493293056
 31
0.0
  0
ARC
  5
B7
100
AcDbEntity
  8
trees
 62
256
370
-1
 48
1.0
  6
BYLAYER
100
AcDbCircle
 10
190.4048016699030086
 20
-288.8972570379161198
 30
0.0
 40
64.9999999999996589
100
AcDbArc
 50
217.4999999999972715
 51
277.4999999999974989
  0
ARC
  5
B8
100
AcDbEntity
  8
trees
 62
256
370
-1
 48
1.0
  6
BYLAYER
100
AcDbCircle
 10
0.0
 20
-435.0000000000001137
 30
0.0
 40
175.0000000000000284
100
AcDbArc
 50
37.4999999999974136
 51
90.026414781750475
  0
LINE
  5
B9
100
AcDbEntity
  8
trees
 62
256
370
-1
 48
1.0
  6
BYLAYER
100
AcDbLine
 10
531.6413920181739741
 20
-767.2741911872785749
 30
0.0
 11
757.7685555885718713
 21
-221.3549260746840446
 31
0.0
  0
ARC
  5
BA
100
AcDbEntity
  8
trees
 62
256
370
-1
 48
1.0
  6
BYLAYER
100
AcDbCircle
 10
554.7383803309567156
 20
-776.8412769964044173
 30
0.0
 40
25.0000000000001705
100
AcDbArc
 50
157.5000000000009095
 51
232.500000000007617
  0
ARC
  5
BB
100
AcDbEntity
  8
trees
 62
256
370
-1
 48
1.0
  6
BYLAYER
100
AcDbCircle
 10
501.7957708330031892
 20
-862.2642253156184324
 30
0.0
 40
75.0
100
AcDbArc
 50
282.4999999999965326
 51
52.5000000000015703
  0
LINE
  5
BC
100
AcDbEntity
  8
trees
 62
256
370
-1
 48
1.0
  6
BYLAYER
100
AcDbLine
 10
547.4528780086520783
 20
-802.7627247937716675
 30
0.0
 11
539.5193446057410256
 21
-796.6751105036872787
 31
0.0
  0
LINE
  5
BD
100
AcDbEntity
  8
trees
 62
256
370
-1
 48
1.0
  6
BYLAYER
100
AcDbLine
 10
389.9864775586797805
 20
-963.8727124419962138
 30
0.0
 11
518.0287418783564135
 21
-935.4864258496143066
 31
0.0
  0
ARC
  5
BE
100
AcDbEntity
  8
trees
 62
256
370
-1
 48
1.0
  6
BYLAYER
100
AcDbCircle
 10
-155.0
 20
-150.0000000000001137
 30
0.0
 40
190.0
100
AcDbArc
 50
324.623452969873199
 51
35.3765401519415974
  0
ARC
  5
BF
100
AcDbEntity
  8
trees
 62
256
370
-1
 48
1.0
  6
BYLAYER
100
AcDbCircle
 10
-155.0
 20
-150.0000000000001137
 30
0.0
 40
110.0
100
AcDbArc
 50
270.0
 51
87.4237335083368379
  0
LWPOLYLINE
  5
C0
100
AcDbEntity
  8
trees
 62
256
370
-1
 48
1.0
  6
BYLAYER
100
AcDbPolyline
 90
7
 70
0
 10
-155.0
 20
-260.0000000000001137
 10
-370.0
 20
-260.0
 10
-370.0
 20
-150.0
 10
-265.0
 20
-150.0
 10
-260.0
 20
-100.0
 10
-180.0
 20
-100.0
 10
-150.0
 20
-40.0
  0
LINE
  5
C1
100
AcDbEntity
  8
trees
 62
256
370
-1
 48
1.0
  6
BYLAYER
100
AcDbLine
 10
450.7077100613296352
 20
-636.4646837492782652
 30
0.0
 11
492.1267109844307015
 21
-653.6209956715712224
 31
0.0
  0
LINE
  5
C2
100
AcDbEntity
  8
trees
 62
256
370
-1
 48
1.0
  6
BYLAYER
100
AcDbLine
 10
550.0
 20
-130.0
 30
0.0
 11
50.0
 21
-130.0
 31
0.0
  0
LWPOLYLINE
  5
C3
100
AcDbEntity
  8
houses
 62
256
370
-1
 48
1.0
  6
BYLAYER
100
AcDbPolyline
 90
5
 70
25600
 10
-230.0
 20
160.0
 10
-130.0
 20
160.0
 10
-130.0
 20
200.0
 10
-230.0
 20
200.0
 10
-230.0
 20
160.0
  0
LWPOLYLINE
  5
C4
100
AcDbEntity
  8
houses
 62
256
370
-1
 48
1.0
  6
BYLAYER
100
AcDbPolyline
 90
5
 70
25600
 10
600.0
 20
100.0
 10
600.0
 20
200.0
 10
560.0
 20
200.0
 10
560.0
 20
100.0
 10
600.0
 20
100.0
  0
LWPOLYLINE
  5
C5
100
AcDbEntity
  8
houses
 62
256
370
-1
 48
1.0
  6
BYLAYER
100
AcDbPolyline
 90
5
 70
25600
 10
300.0
 20
-600.0
 10
300.0
 20
-500.0
 10
260.0
 20
-500.0
 10
260.0
 20
-600.0
 10
300.0
 20
-600.0
  0
LWPOLYLINE
  5
C6
100
AcDbEntity
  8
houses
 62
256
370
-1
 48
1.0
  6
BYLAYER
100
AcDbPolyline
 90
5
 70
25600
 10
130.0
 20
-720.0
 10
130.0
 20
-620.0
 10
90.0
 20
-620.0
 10
90.0
 20
-720.0
 10
130.0
 20
-720.0
  0
LWPOLYLINE
  5
C7
100
AcDbEntity
  8
houses
 62
256
370
-1
 48
1.0
  6
BYLAYER
100
AcDbPolyline
 90
5
 70
25600
 10
140.0
 20
-930.0
 10
140.0
 20
-880.0
 10
120.0
 20
-880.0
 10
120.0
 20
-930.0
 10
140.0
 20
-930.0
  0
LWPOLYLINE
  5
C8
100
AcDbEntity
  8
houses
 62
256
370
-1
 48
1.0
  6
BYLAYER
100
AcDbPolyline
 90
5
 70
25600
 10
140.0
 20
-870.0
 10
140.0
 20
-820.0
 10
120.0
 20
-820.0
 10
120.0
 20
-870.0
 10
140.0
 20
-870.0
  0
LWPOLYLINE
  5
C9
100
AcDbEntity
  8
houses
 62
256
370
-1
 48
1.0
  6
BYLAYER
100
AcDbPolyline
 90
5
 70
25600
 10
140.0
 20
-810.0
 10
140.0
 20
-760.0
 10
120.0
 20
-760.0
 10
120.0
 20
-810.0
 10
140.0
 20
-810.0
  0
LWPOLYLINE
  5
CA
100
AcDbEntity
  8
houses
 62
256
370
-1
 48
1.0
  6
BYLAYER
100
AcDbPolyline
 90
5
 70
25600
 10
100.0
 20
-895.0
 10
100.0
 20
-845.0
 10
80.0
 20
-845.0
 10
80.0
 20
-895.0
 10
100.0
 20
-895.0
  0
LWPOLYLINE
  5
CB
100
AcDbEntity
  8
houses
 62
256
370
-1
 48
1.0
  6
BYLAYER
100
AcDbPolyline
 90
5
 70
25600
 10
100.0
 20
-835.0
 10
100.0
 20
-785.0
 10
80.0
 20
-785.0
 10
80.0
 20
-835.0
 10
100.0
 20
-835.0
  0
LWPOLYLINE
  5
CC
100
AcDbEntity
  8
houses
 62
256
370
-1
 48
1.0
  6
BYLAYER
100
AcDbPolyline
 90
5
 70
25600
 10
-410.0
 20
-340.0
 10
-510.0
 20
-340.0
 10
-510.0
 20
-380.0
 10
-410.0
 20
-380.0
 10
-410.0
 20
-340.0
  0
LWPOLYLINE
  5
CD
100
AcDbEntity
  8
houses
 62
256
370
-1
 48
1.0
  6
BYLAYER
100
AcDbPolyline
 90
5
 70
25600
 10
-520.0
 20
-340.0
 10
-570.0
 20
-340.0
 10
-570.0
 20
-360.0
 10
-520.0
 20
-360.0
 10
-520.0
 20
-340.0
  0
LWPOLYLINE
  5
CE
100
AcDbEntity
  8
houses
 62
256
370
-1
 48
1.0
  6
BYLAYER
100
AcDbPolyline
 90
5
 70
25600
 10
-600.0
 20
-340.0
 10
-700.0
 20
-340.0
 10
-700.0
 20
-380.0
 10
-600.0
 20
-380.0
 10
-600.0
 20
-340.0
  0
LWPOLYLINE
  5
CF
100
AcDbEntity
  8
houses
 62
256
370
-1
 48
1.0
  6
BYLAYER
100
AcDbPolyline
 90
5
 70
25600
 10
-700.0
 20
-340.0
 10
-774.3294146247167191
 20
-273.1035268377549983
 10
-801.0880038896148108
 20
-302.8352926876416404
 10
-726.7585892648980916
 20
-369.7317658498866422
 10
-700.0
 20
-340.0
  0
LWPOLYLINE
  5
D0
100
AcDbEntity
  8
houses
 62
256
370
-1
 48
1.0
  6
BYLAYER
100
AcDbPolyline
 90
5
 70
25600
 10
-774.3294146247158096
 20
-273.1035268377559078
 10
-800.1600904061124311
 20
-230.2925914511453129
 10
-817.2844645607560778
 20
-240.6248617637036205
 10
-791.4537887793603659
 20
-283.4357971503127374
 10
-774.3294146247158096
 20
-273.1035268377559078
  0
LWPOLYLINE
  5
D1
100
AcDbEntity
  8
tribunes
 62
256
370
-1
 48
1.0
  6
BYLAYER
100
AcDbPolyline
 90
11
 70
25600
 10
-370.0
 20
-35.0
 10
-600.0
 20
-35.0
 10
-657.5
 20
-50.4070785647895718
 10
-699.5929214352099734
 20
-92.4999999999997726
 10
-712.3205080756888492
 20
-140.0
 10
-681.2622226633861828
 20
-140.0
 10
-672.6956572701683399
 20
-108.0291427061506511
 10
-641.9708572938484394
 20
-77.304342729830978
 10
-596.0504250723784025
 20
-65.0
 10
-370.0
 20
-65.0
 10
-370.0
 20
-35.0
  0
LWPOLYLINE
  5
D2
100
AcDbEntity
  8
tribunes
 62
256
370
-1
 48
1.0
  6
BYLAYER
100
AcDbPolyline
 90
11
 70
25600
 10
-580.0
 20
-265.0
 10
-600.0
 20
-265.0
 10
-657.5
 20
-249.5929214352104282
 10
-699.5929214352099734
 20
-207.5000000000002274
 10
-712.3205080756888492
 20
-160.0
 10
-681.2622226633861828
 20
-160.0
 10
-672.6956572701683399
 20
-191.9708572938493489
 10
-641.9708572938484394
 20
-222.695657270169022
 10
-596.0504250723784025
 20
-235.0
 10
-580.0
 20
-235.0
 10
-580.0
 20
-265.0
  0
LINE
  5
D3
100
AcDbEntity
  8
tribunes
 62
256
370
-1
 48
1.0
  6
BYLAYER
100
AcDbLine
 10
744.2925341560612651
 20
-3.8030546116955293
 30
0.0
 11
800.407411510485872
 21
-84.0914536065474749
 31
0.0
  0
LWPOLYLINE
  5
D4
100
AcDbEntity
  8
trees
 62
256
370
-1
 48
1.0
  6
BYLAYER
100
AcDbPolyline
 90
5
 70
25600
 10
-600.0
 20
50.0
 10
-676.5366864730181078
 20
34.775906502257385
 10
-741.4213562373092827
 20
-8.5786437626904899
 10
-784.775906502257385
 20
-73.4633135269821196
 10
-800.0000000000004547
 20
-150.0
  0
LINE
  5
D5
100
AcDbEntity
  8
trees
 62
256
370
-1
 48
1.0
  6
BYLAYER
100
AcDbLine
 10
-850.0
 20
200.0
 30
0.0
 11
-850.0
 21
-400.0
 31
0.0
  0
LINE
  5
D6
100
AcDbEntity
  8
trees
 62
256
370
-1
 48
1.0
  6
BYLAYER
100
AcDbLine
 10
-800.0
 20
-500.0
 30
0.0
 11
100.0
 21
-500.0
 31
0.0
  0
LINE
  5
D7
100
AcDbEntity
  8
trees
 62
256
370
-1
 48
1.0
  6
BYLAYER
100
AcDbLine
 10
100.0
 20
-600.0
 30
0.0
 11
140.055090539480716
 21
-497.3591539481919881
 31
0.0
  0
LINE
  5
D8
100
AcDbEntity
  8
trees
 62
256
370
-1
 48
1.0
  6
BYLAYER
100
AcDbLine
 10
140.055090539480716
 20
-497.3591539481919881
 30
0.0
 11
253.5522485116989628
 21
-499.9386348111970619
 31
0.0
  0
LINE
  5
D9
100
AcDbEntity
  8
trees
 62
256
370
-1
 48
1.0
  6
BYLAYER
100
AcDbLine
 10
196.803669525589612
 20
-498.648894379694525
 30
0.0
 11
178.747303484555232
 21
-561.8461755233161057
 31
0.0
  0
LINE
  5
DA
100
AcDbEntity
  8
houses
 62
256
370
-1
 48
1.0
  6
BYLAYER
100
AcDbLine
 10
150.0
 20
-600.0
 30
0.0
 11
230.0
 21
-600.0
 31
0.0
  0
LINE
  5
DB
100
AcDbEntity
  8
houses
 62
256
370
-1
 48
1.0
  6
BYLAYER
100
AcDbLine
 10
230.0
 20
-600.0
 30
0.0
 11
230.0
 21
-680.0
 31
0.0
  0
LINE
  5
DC
100
AcDbEntity
  8
houses
 62
256
370
-1
 48
1.0
  6
BYLAYER
100
AcDbLine
 10
230.0
 20
-680.0
 30
0.0
 11
150.0
 21
-680.0
 31
0.0
  0
LINE
  5
DD
100
AcDbEntity
  8
houses
 62
256
370
-1
 48
1.0
  6
BYLAYER
100
AcDbLine
 10
150.0
 20
-680.0
 30
0.0
 11
150.0
 21
-600.0
 31
0.0
  0
LINE
  5
DE
100
AcDbEntity
  8
houses
 62
256
370
-1
 48
1.0
  6
BYLAYER
100
AcDbLine
 10
0.0
 20
-720.0
 30
0.0
 11
50.0
 21
-720.0
 31
0.0
  0
LINE
  5
DF
100
AcDbEntity
  8
houses
 62
256
370
-1
 48
1.0
  6
BYLAYER
100
AcDbLine
 10
75.0
 20
-435.0
 30
0.0
 11
125.0
 21
-435.0
 31
0.0
  0
LINE
  5
E0
100
AcDbEntity
  8
houses
 62
256
370
-1
 48
1.0
  6
BYLAYER
100
AcDbLine
 10
50.0
 20
-720.0
 30
0.0
 11
50.0
 21
-770.0
 31
0.0
  0
LINE
  5
E1
100
AcDbEntity
  8
houses
 62
256
370
-1
 48
1.0
  6
BYLAYER
100
AcDbLine
 10
125.0
 20
-435.0
 30
0.0
 11
125.0
 21
-485.0
 31
0.0
  0
LINE
  5
E2
100
AcDbEntity
  8
houses
 62
256
370
-1
 48
1.0
  6
BYLAYER
100
AcDbLine
 10
50.0
 20
-770.0
 30
0.0
 11
0.0
 21
-770.0
 31
0.0
  0
LINE
  5
E3
100
AcDbEntity
  8
houses
 62
256
370
-1
 48
1.0
  6
BYLAYER
100
AcDbLine
 10
125.0
 20
-485.0
 30
0.0
 11
75.0
 21
-485.0
 31
0.0
  0
LINE
  5
E4
100
AcDbEntity
  8
houses
 62
256
370
-1
 48
1.0
  6
BYLAYER
100
AcDbLine
 10
0.0
 20
-770.0
 30
0.0
 11
0.0
 21
-720.0
 31
0.0
  0
LINE
  5
E5
100
AcDbEntity
  8
houses
 62
256
370
-1
 48
1.0
  6
BYLAYER
100
AcDbLine
 10
75.0
 20
-485.0
 30
0.0
 11
75.0
 21
-435.0
 31
0.0
  0
LINE
  5
E6
100
AcDbEntity
  8
trees
 62
256
370
-1
 48
1.0
  6
BYLAYER
100
AcDbLine
 10
290.0
 20
-460.0
 30
0.0
 11
305.6456220235095316
 21
-487.5205667351364127
 31
0.0
  0
LINE
  5
E7
100
AcDbEntity
  8
trees
 62
256
370
-1
 48
1.0
  6
BYLAYER
100
AcDbLine
 10
305.6456220235095316
 20
-487.5205667351364127
 30
0.0
 11
317.700036384991563
 21
-544.3772211401266077
 31
0.0
  0
LINE
  5
E8
100
AcDbEntity
  8
trees
 62
256
370
-1
 48
1.0
  6
BYLAYER
100
AcDbLine
 10
317.700036384991563
 20
-544.3772211401266077
 30
0.0
 11
340.0
 21
-590.0
 31
0.0
  0
LINE
  5
E9
100
AcDbEntity
  8
trees
 62
256
370
-1
 48
1.0
  6
BYLAYER
100
AcDbLine
 10
340.0
 20
-590.0
 30
0.0
 11
329.9553576524981509
 21
-612.6855691885248234
 31
0.0
  0
LINE
  5
EA
100
AcDbEntity
  8
trees
 62
256
370
-1
 48
1.0
  6
BYLAYER
100
AcDbLine
 10
329.9553576524981509
 20
-612.6855691885248234
 30
0.0
 11
247.5835261823708606
 21
-621.3245661475868928
 31
0.0
  0
LINE
  5
EB
100
AcDbEntity
  8
trees
 62
256
370
-1
 48
1.0
  6
BYLAYER
100
AcDbLine
 10
247.5835261823708606
 20
-621.3245661475868928
 30
0.0
 11
238.8786317581339063
 21
-668.2194525242483678
 31
0.0
  0
LINE
  5
EC
100
AcDbEntity
  8
trees
 62
256
370
-1
 48
1.0
  6
BYLAYER
100
AcDbLine
 10
238.8786317581339063
 20
-668.2194525242483678
 30
0.0
 11
224.6142414303803889
 21
-701.9718127363980784
 31
0.0
  0
LINE
  5
ED
100
AcDbEntity
  8
trees
 62
256
370
-1
 48
1.0
  6
BYLAYER
100
AcDbLine
 10
224.6142414303803889
 20
-701.9718127363980784
 30
0.0
 11
160.0
 21
-760.0
 31
0.0
  0
LINE
  5
EE
100
AcDbEntity
  8
trees
 62
256
370
-1
 48
1.0
  6
BYLAYER
100
AcDbLine
 10
160.0
 20
-760.0
 30
0.0
 11
160.0
 21
-870.0
 31
0.0
  0
LINE
  5
EF
100
AcDbEntity
  8
trees
 62
256
370
-1
 48
1.0
  6
BYLAYER
100
AcDbLine
 10
160.0
 20
-870.0
 30
0.0
 11
150.0
 21
-930.0
 31
0.0
  0
LINE
  5
F0
100
AcDbEntity
  8
trees
 62
256
370
-1
 48
1.0
  6
BYLAYER
100
AcDbLine
 10
870.0
 20
-150.0
 30
0.0
 11
870.0
 21
-300.0
 31
0.0
  0
LWPOLYLINE
  5
F1
100
AcDbEntity
  8
trees
 62
256
370
-1
 48
1.0
  6
BYLAYER
100
AcDbPolyline
 90
5
 70
25600
 10
-380.0
 20
-260.0
 10
-510.0
 20
-260.0
 10
-510.0
 20
-170.0
 10
-380.0
 20
-170.0
 10
-380.0
 20
-260.0
  0
LWPOLYLINE
  5
F2
100
AcDbEntity
  8
trees
 62
256
370
-1
 48
1.0
  6
BYLAYER
100
AcDbPolyline
 90
3
 70
25600
 10
110.0
 20
-431.0
 10
100.0
 20
-400.0
 10
75.0
 20
-407.0
  0
LINE
  5
F3
100
AcDbEntity
  8
trees
 62
256
370
-1
 48
1.0
  6
BYLAYER
100
AcDbLine
 10
27.935119632513306
 20
-201.8659285441514157
 30
0.0
 11
200.0
 21
-200.0
 31
0.0
  0
LINE
  5
F4
100
AcDbEntity
  8
trees
 62
256
370
-1
 48
1.0
  6
BYLAYER
100
AcDbLine
 10
200.0
 20
-200.0
 30
0.0
 11
200.0
 21
-39.9999999999997726
 31
0.0
  0
LINE
  5
F5
100
AcDbEntity
  8
trees
 62
256
370
-1
 48
1.0
  6
BYLAYER
100
AcDbLine
 10
200.0
 20
-39.9999999999997726
 30
0.0
 11
198.8890041642011965
 21
-353.341173027214154
 31
0.0
  0
LINE
  5
F6
100
AcDbEntity
  8
trees
 62
256
370
-1
 48
1.0
  6
BYLAYER
100
AcDbLine
 10
198.8890041642011965
 20
-353.341173027214154
 30
0.0
 11
199.4326753578484386
 21
-200.0061522562962182
 31
0.0
  0
LINE
  5
F7
100
AcDbEntity
  8
trees
 62
256
370
-1
 48
1.0
  6
BYLAYER
100
AcDbLine
 10
199.4326753578484386
 20
-200.0061522562962182
 30
0.0
 11
300.0
 21
-200.0
 31
0.0
  0
LINE
  5
F8
100
AcDbEntity
  8
trees
 62
256
370
-1
 48
1.0
  6
BYLAYER
100
AcDbLine
 10
300.0
 20
-200.0
 30
0.0
 11
327.1548997410891388
 21
-132.2199452430173778
 31
0.0
  0
LINE
  5
F9
100
AcDbEntity
  8
trees
 62
256
370
-1
 48
1.0
  6
BYLAYER
100
AcDbLine
 10
327.1548997410891388
 20
-132.2199452430173778
 30
0.0
 11
400.0
 21
-100.0
 31
0.0
  0
LINE
  5
FA
100
AcDbEntity
  8
trees
 62
256
370
-1
 48
1.0
  6
BYLAYER
100
AcDbLine
 10
400.0
 20
-100.0
 30
0.0
 11
500.0
 21
-100.0
 31
0.0
  0
LINE
  5
FB
100
AcDbEntity
  8
trees
 62
256
370
-1
 48
1.0
  6
BYLAYER
100
AcDbLine
 10
500.0
 20
-100.0
 30
0.0
 11
536.0928496444912525
 21
-59.9944810788783798
 31
0.0
  0
LINE
  5
FC
100
AcDbEntity
  8
trees
 62
256
370
-1
 48
1.0
  6
BYLAYER
100
AcDbLine
 10
445.8110194393175334
 20
-127.0609835170074575
 30
0.0
 11
443.2315385763122322
 21
-274.0913927082904138
 31
0.0
  0
LINE
  5
FD
100
AcDbEntity
  8
trees
 62
256
370
-1
 48
1.0
  6
BYLAYER
100
AcDbLine
 10
443.2315385763122322
 20
-274.0913927082904138
 30
0.0
 11
391.6419213162134838
 21
-274.0913927082904138
 31
0.0
  0
LINE
  5
FE
100
AcDbEntity
  8
trees
 62
256
370
-1
 48
1.0
  6
BYLAYER
100
AcDbLine
 10
391.6419213162134838
 20
-274.0913927082904138
 30
0.0
 11
400.0
 21
-200.0
 31
0.0
  0
LINE
  5
FF
100
AcDbEntity
  8
trees
 62
256
370
-1
 48
1.0
  6
BYLAYER
100
AcDbLine
 10
400.0
 20
-200.0
 30
0.0
 11
407.1188064942434721
 21
-434.0192062145981708
 31
0.0
  0
LINE
  5
100
100
AcDbEntity
  8
trees
 62
256
370
-1
 48
1.0
  6
BYLAYER
100
AcDbLine
 10
407.1188064942434721
 20
-434.0192062145981708
 30
0.0
 11
402.2538418795238613
 21
-274.0913927082904138
 31
0.0
  0
LINE
  5
101
100
AcDbEntity
  8
trees
 62
256
370
-1
 48
1.0
  6
BYLAYER
100
AcDbLine
 10
402.2538418795238613
 20
-274.0913927082904138
 30
0.0
 11
543.8312922335062467
 21
-276.6708735712953739
 31
0.0
  0
LINE
  5
102
100
AcDbEntity
  8
trees
 62
256
370
-1
 48
1.0
  6
BYLAYER
100
AcDbLine
 10
543.8312922335062467
 20
-276.6708735712953739
 30
0.0
 11
600.0
 21
-300.0
 31
0.0
  0
LINE
  5
103
100
AcDbEntity
  8
trees
 62
256
370
-1
 48
1.0
  6
BYLAYER
100
AcDbLine
 10
443.2315385763126869
 20
-274.0913927082905275
 30
0.0
 11
448.3905003023228346
 21
-403.0654358585385353
 31
0.0
  0
LINE
  5
104
100
AcDbEntity
  8
trees
 62
256
370
-1
 48
1.0
  6
BYLAYER
100
AcDbLine
 10
473.042567056515054
 20
-275.381133139792837
 30
0.0
 11
500.0
 21
-400.0
 31
0.0
  0
LINE
  5
105
100
AcDbEntity
  8
trees
 62
256
370
-1
 48
1.0
  6
BYLAYER
100
AcDbLine
 10
543.8312922335062467
 20
-276.6708735712953739
 30
0.0
 11
546.4107730965115479
 21
-421.1218018995733701
 31
0.0
  0
LINE
  5
106
100
AcDbEntity
  8
trees
 62
256
370
-1
 48
1.0
  6
BYLAYER
100
AcDbLine
 10
-827.0131822376843047
 20
-281.7177852374497888
 30
0.0
 11
-790.7309395176271209
 21
-369.8318032718754012
 31
0.0
  0
LINE
  5
107
100
AcDbEntity
  8
trees
 62
256
370
-1
 48
1.0
  6
BYLAYER
100
AcDbLine
 10
-790.7309395176271209
 20
-369.8318032718754012
 30
0.0
 11
-662.1881367379942276
 21
-414.40713004223187
 31
0.0
  0
LINE
  5
108
100
AcDbEntity
  8
trees
 62
256
370
-1
 48
1.0
  6
BYLAYER
100
AcDbLine
 10
-662.1881367379942276
 20
-414.40713004223187
 30
0.0
 11
-602.0632773733273098
 21
-420.6269430799560496
 31
0.0
  0
LINE
  5
109
100
AcDbEntity
  8
trees
 62
256
370
-1
 48
1.0
  6
BYLAYER
100
AcDbLine
 10
-602.0632773733273098
 20
-420.6269430799560496
 30
0.0
 11
-603.0999128796147488
 21
-474.5319894068987878
 31
0.0
  0
LINE
  5
10A
100
AcDbEntity
  8
trees
 62
256
370
-1
 48
1.0
  6
BYLAYER
100
AcDbLine
 10
-688.7260056989507575
 20
-321.5245886788842427
 30
0.0
 11
-564.2277994545493129
 21
-337.3713311077110575
 31
0.0
  0
LINE
  5
10B
100
AcDbEntity
  8
trees
 62
256
370
-1
 48
1.0
  6
BYLAYER
100
AcDbLine
 10
-564.2277994545493129
 20
-337.3713311077110575
 30
0.0
 11
-507.1702381435343341
 21
-337.1704242016863873
 31
0.0
  0
LINE
  5
10C
100
AcDbEntity
  8
road
 62
256
370
-1
 48
1.0
  6
BYLAYER
100
AcDbLine
 10
0.0000000000000009
 20
15.0
 30
0.0
 11
-600.0
 21
15.0
 31
0.0
  0
ARC
  5
10D
100
AcDbEntity
  8
road
 62
256
370
-1
 48
1.0
  6
BYLAYER
100
AcDbCircle
 10
-600.0
 20
-150.0
 30
0.0
 40
165.0
100
AcDbArc
 50
90.0
 51
270.0
  0
ARC
  5
10E
100
AcDbEntity
  8
road
 62
256
370
-1
 48
1.0
  6
BYLAYER
100
AcDbCircle
 10
-600.0
 20
-150.0
 30
0.0
 40
135.0
100
AcDbArc
 50
90.0
 51
270.0
  0
LINE
  5
10F
100
AcDbEntity
  8
road
 62
256
370
-1
 48
1.0
  6
BYLAYER
100
AcDbLine
 10
-0.0000000000000028
 20
-15.0
 30
0.0
 11
-600.0
 21
-15.0
 31
0.0
  0
LINE
  5
110
100
AcDbEntity
  8
road
 62
256
370
-1
 48
1.0
  6
BYLAYER
100
AcDbLine
 10
-600.0
 20
-285.0
 30
0.0
 11
0.0000000000000009
 21
-285.0
 31
0.0
  0
LINE
  5
111
100
AcDbEntity
  8
road
 62
256
370
-1
 48
1.0
  6
BYLAYER
100
AcDbLine
 10
-600.0
 20
-315.0
 30
0.0
 11
0.0000000000000009
 21
-315.0
 31
0.0
  0
ARC
  5
112
100
AcDbEntity
  8
road
 62
256
370
-1
 48
1.0
  6
BYLAYER
100
AcDbCircle
 10
0.0000000000001137
 20
-435.0
 30
0.0
 40
150.0
100
AcDbArc
 50
37.4999999999973852
 51
90.0000000000000568
  0
ARC
  5
113
100
AcDbEntity
  8
road
 62
256
370
-1
 48
1.0
  6
BYLAYER
100
AcDbCircle
 10
0.0000000000001137
 20
-435.0
 30
0.0
 40
120.0
100
AcDbArc
 50
37.4999999999973852
 51
90.0000000000000568
  0
ARC
  5
114
100
AcDbEntity
  8
road
 62
256
370
-1
 48
1.0
  6
BYLAYER
100
AcDbCircle
 10
190.4048016699030654
 20
-288.8972570379161198
 30
0.0
 40
89.9999999999996589
100
AcDbArc
 50
217.4999999999972715
 51
277.499999999997442
  0
ARC
  5
115
100
AcDbEntity
  8
road
 62
256
370
-1
 48
1.0
  6
BYLAYER
100
AcDbCircle
 10
190.4048016699030654
 20
-288.8972570379161198
 30
0.0
 40
119.9999999999996589
100
AcDbArc
 50
217.4999999999972715
 51
277.499999999997442
  0
LINE
  5
116
100
AcDbEntity
  8
road
 62
256
370
-1
 48
1.0
  6
BYLAYER
100
AcDbLine
 10
202.15215896970426
 20
-378.1272945615591539
 30
0.0
 11
250.4980429789545724
 21
-371.7624381836747602
 31
0.0
  0
LINE
  5
117
100
AcDbEntity
  8
road
 62
256
370
-1
 48
1.0
  6
BYLAYER
100
AcDbLine
 10
206.0679447363033887
 20
-407.8706404027737449
 30
0.0
 11
254.4138287455537011
 21
-401.5057840248893513
 31
0.0
  0
ARC
  5
118
100
AcDbEntity
  8
road
 62
256
370
-1
 48
1.0
  6
BYLAYER
100
AcDbCircle
 10
262.898031239851548
 20
-465.9497000141876697
 30
0.0
 40
94.9999999999999289
100
AcDbArc
 50
7.4999999999968932
 51
97.4999999999951541
  0
ARC
  5
119
100
AcDbEntity
  8
road
 62
256
370
-1
 48
1.0
  6
BYLAYER
100
AcDbCircle
 10
262.898031239851548
 20
-465.9497000141876697
 30
0.0
 40
64.9999999999999289
100
AcDbArc
 50
7.4999999999968932
 51
97.4999999999951541
  0
LINE
  5
11A
100
AcDbEntity
  8
road
 62
256
370
-1
 48
1.0
  6
BYLAYER
100
AcDbLine
 10
357.0852930703640595
 20
-453.5497117532869993
 30
0.0
 11
361.6537097980658473
 21
-488.2502819013685098
 31
0.0
  0
LINE
  5
11B
100
AcDbEntity
  8
road
 62
256
370
-1
 48
1.0
  6
BYLAYER
100
AcDbLine
 10
327.3419472291498096
 20
-457.4654975198887428
 30
0.0
 11
331.9103639568515973
 21
-492.1660676679702533
 31
0.0
  0
ARC
  5
11C
100
AcDbEntity
  8
road
 62
256
370
-1
 48
1.0
  6
BYLAYER
100
AcDbCircle
 10
416.1831771736253813
 20
-481.0713413292652945
 30
0.0
 40
55.0000000000000142
100
AcDbArc
 50
187.5000000000004547
 51
247.5000000000000284
  0
ARC
  5
11D
100
AcDbEntity
  8
road
 62
256
370
-1
 48
1.0
  6
BYLAYER
100
AcDbCircle
 10
416.1831771736253813
 20
-481.0713413292652945
 30
0.0
 40
85.0000000000000142
100
AcDbArc
 50
187.5000000000004547
 51
247.5000000000000284
  0
ARC
  5
11E
100
AcDbEntity
  8
road
 62
256
370
-1
 48
1.0
  6
BYLAYER
100
AcDbCircle
 10
370.2611652898149828
 20
-591.9368852306199642
 30
0.0
 40
65.0000000000000142
100
AcDbArc
 50
352.499999999996021
 51
67.5000000000004832
  0
ARC
  5
11F
100
AcDbEntity
  8
road
 62
256
370
-1
 48
1.0
  6
BYLAYER
100
AcDbCircle
 10
370.2611652898149828
 20
-591.9368852306199642
 30
0.0
 40
35.0000000000000142
100
AcDbArc
 50
352.499999999996021
 51
67.5000000000004832
  0
ARC
  5
120
100
AcDbEntity
  8
road
 62
256
370
-1
 48
1.0
  6
BYLAYER
100
AcDbCircle
 10
330.6033708348628011
 20
-586.7158375418148353
 30
0.0
 40
105.0000000000001563
100
AcDbArc
 50
277.499999999995282
 51
352.4999999999958504
  0
ARC
  5
121
100
AcDbEntity
  8
road
 62
256
370
-1
 48
1.0
  6
BYLAYER
100
AcDbCircle
 10
330.6033708348628011
 20
-586.7158375418148353
 30
0.0
 40
75.0000000000001563
100
AcDbArc
 50
277.499999999995282
 51
352.4999999999958504
  0
LINE
  5
122
100
AcDbEntity
  8
road
 62
256
370
-1
 48
1.0
  6
BYLAYER
100
AcDbLine
 10
340.3928352513585196
 20
-661.0742021448519381
 30
0.0
 11
310.6494894101460886
 21
-664.9899879114549321
 31
0.0
  0
LINE
  5
123
100
AcDbEntity
  8
road
 62
256
370
-1
 48
1.0
  6
BYLAYER
100
AcDbLine
 10
344.308621017961741
 20
-690.8175479860659607
 30
0.0
 11
314.56527517674931
 21
-694.7333337526689547
 31
0.0
  0
ARC
  5
124
100
AcDbEntity
  8
road
 62
256
370
-1
 48
1.0
  6
BYLAYER
100
AcDbCircle
 10
320.438953826654199
 20
-739.3483525144899886
 30
0.0
 40
44.9999999999999432
100
AcDbArc
 50
97.5000000000032969
 51
202.4999999999984368
  0
ARC
  5
125
100
AcDbEntity
  8
road
 62
256
370
-1
 48
1.0
  6
BYLAYER
100
AcDbCircle
 10
320.438953826654199
 20
-739.3483525144899886
 30
0.0
 40
74.9999999999999432
100
AcDbArc
 50
97.5000000000032969
 51
202.4999999999984368
  0
LINE
  5
126
100
AcDbEntity
  8
road
 62
256
370
-1
 48
1.0
  6
BYLAYER
100
AcDbLine
 10
251.1479888883058322
 20
-768.0496099418671747
 30
0.0
 11
266.4553261829008761
 21
-805.0047912423209482
 31
0.0
  0
LINE
  5
127
100
AcDbEntity
  8
road
 62
256
370
-1
 48
1.0
  6
BYLAYER
100
AcDbLine
 10
278.8643748636469581
 20
-756.5691069709205294
 30
0.0
 11
294.1717121582420305
 21
-793.5242882713743029
 31
0.0
  0
ARC
  5
128
100
AcDbEntity
  8
road
 62
256
370
-1
 48
1.0
  6
BYLAYER
100
AcDbCircle
 10
229.5001448824459942
 20
-820.3121285369163616
 30
0.0
 40
40.0000000000000497
100
AcDbArc
 50
302.4999999999979536
 51
22.4999999999873559
  0
ARC
  5
129
100
AcDbEntity
  8
road
 62
256
370
-1
 48
1.0
  6
BYLAYER
100
AcDbCircle
 10
229.5001448824459942
 20
-820.3121285369163616
 30
0.0
 40
70.0000000000000568
100
AcDbArc
 50
302.4999999999979536
 51
22.4999999999873559
  0
ARC
  5
12A
100
AcDbEntity
  8
road
 62
256
370
-1
 48
1.0
  6
BYLAYER
100
AcDbCircle
 10
288.6031018005928104
 20
-913.0851875763362386
 30
0.0
 40
70.0000000000000711
100
AcDbArc
 50
122.499999999997371
 51
182.500000000008697
  0
ARC
  5
12B
100
AcDbEntity
  8
road
 62
256
370
-1
 48
1.0
  6
BYLAYER
100
AcDbCircle
 10
288.6031018005928104
 20
-913.0851875763362386
 30
0.0
 40
40.0000000000000711
100
AcDbArc
 50
122.499999999997371
 51
182.500000000008697
  0
ARC
  5
12C
100
AcDbEntity
  8
road
 62
256
370
-1
 48
1.0
  6
BYLAYER
100
AcDbCircle
 10
268.6221373689557481
 20
-913.9575753236459832
 30
0.0
 40
50.0000000000000284
100
AcDbArc
 50
182.5000000000085549
 51
282.5000000000036948
  0
ARC
  5
12D
100
AcDbEntity
  8
road
 62
256
370
-1
 48
1.0
  6
BYLAYER
100
AcDbCircle
 10
268.6221373689557481
 20
-913.9575753236459832
 30
0.0
 40
20.0000000000000284
100
AcDbArc
 50
182.5000000000085549
 51
282.5000000000036948
  0
LINE
  5
12E
100
AcDbEntity
  8
road
 62
256
370
-1
 48
1.0
  6
BYLAYER
100
AcDbLine
 10
272.950929647720784
 20
-933.4834954660441326
 30
0.0
 11
506.1245631117639618
 21
-881.7901454580174914
 31
0.0
  0
LINE
  5
12F
100
AcDbEntity
  8
road
 62
256
370
-1
 48
1.0
  6
BYLAYER
100
AcDbLine
 10
279.4441180658623693
 20
-962.7723756796424368
 30
0.0
 11
512.6177515299054903
 21
-911.0790256716157955
 31
0.0
  0
ARC
  5
130
100
AcDbEntity
  8
road
 62
256
370
-1
 48
1.0
  6
BYLAYER
100
AcDbCircle
 10
501.7957708330033029
 20
-862.2642253156184324
 30
0.0
 40
20.0000000000000426
100
AcDbArc
 50
282.499999999996362
 51
52.500000000001755
  0
ARC
  5
131
100
AcDbEntity
  8
road
 62
256
370
-1
 48
1.0
  6
BYLAYER
100
AcDbCircle
 10
501.7957708330033029
 20
-862.2642253156184324
 30
0.0
 40
50.0000000000000426
100
AcDbArc
 50
282.499999999996362
 51
52.500000000001755
  0
ARC
  5
132
100
AcDbEntity
  8
road
 62
256
370
-1
 48
1.0
  6
BYLAYER
100
AcDbCircle
 10
554.7383803309567156
 20
-776.841276996404531
 30
0.0
 40
80.0000000000001705
100
AcDbArc
 50
157.5000000000008527
 51
232.5000000000075602
  0
ARC
  5
133
100
AcDbEntity
  8
road
 62
256
370
-1
 48
1.0
  6
BYLAYER
100
AcDbCircle
 10
554.7383803309567156
 20
-776.841276996404531
 30
0.0
 40
50.0000000000001705
100
AcDbArc
 50
157.5000000000008527
 51
232.5000000000075602
  0
ARC
  5
134
100
AcDbEntity
  8
road
 62
256
370
-1
 48
1.0
  6
BYLAYER
100
AcDbCircle
 10
501.7957708330033029
 20
-862.2642253156184324
 30
0.0
 40
20.0000000000000426
100
AcDbArc
 50
282.499999999996362
 51
52.500000000001755
  0
LINE
  5
135
100
AcDbEntity
  8
road
 62
256
370
-1
 48
1.0
  6
BYLAYER
100
AcDbLine
 10
508.5444037053918009
 20
-757.7071053781510273
 30
0.0
 11
734.671567275790153
 21
-211.7878402655565253
 31
0.0
  0
LINE
  5
136
100
AcDbEntity
  8
road
 62
256
370
-1
 48
1.0
  6
BYLAYER
100
AcDbLine
 10
480.8280177300533751
 20
-746.2266024071980155
 30
0.0
 11
706.9551813004517271
 21
-200.3073372946034567
 31
0.0
  0
ARC
  5
137
100
AcDbEntity
  8
road
 62
256
370
-1
 48
1.0
  6
BYLAYER
100
AcDbCircle
 10
670.0000000000001137
 20
-184.9999999999996305
 30
0.0
 40
70.000000000000199
100
AcDbArc
 50
337.4999999999996021
 51
90.0000000000001137
  0
ARC
  5
138
100
AcDbEntity
  8
road
 62
256
370
-1
 48
1.0
  6
BYLAYER
100
AcDbCircle
 10
670.0000000000001137
 20
-184.9999999999996305
 30
0.0
 40
40.000000000000199
100
AcDbArc
 50
337.4999999999996021
 51
90.0000000000001137
  0
ARC
  5
139
100
AcDbEntity
  8
road
 62
256
370
-1
 48
1.0
  6
BYLAYER
100
AcDbCircle
 10
669.9999999999990905
 20
-99.9999999999994316
 30
0.0
 40
15.0
100
AcDbArc
 50
180.0
 51
270.0000000000017053
  0
ARC
  5
13A
100
AcDbEntity
  8
road
 62
256
370
-1
 48
1.0
  6
BYLAYER
100
AcDbCircle
 10
669.9999999999990905
 20
-99.9999999999994316
 30
0.0
 40
45.0
100
AcDbArc
 50
180.0
 51
270.0000000000017053
  0
LINE
  5
13B
100
AcDbEntity
  8
road
 62
256
370
-1
 48
1.0
  6
BYLAYER
100
AcDbLine
 10
654.9999999999990905
 20
-99.9999999999996589
 30
0.0
 11
655.0
 21
-40.0000000000002274
 31
0.0
  0
LINE
  5
13C
100
AcDbEntity
  8
road
 62
256
370
-1
 48
1.0
  6
BYLAYER
100
AcDbLine
 10
624.9999999999990905
 20
-99.9999999999992042
 30
0.0
 11
625.0
 21
-39.9999999999997726
 31
0.0
  0
ARC
  5
13D
100
AcDbEntity
  8
road
 62
256
370
-1
 48
1.0
  6
BYLAYER
100
AcDbCircle
 10
599.9999999999996589
 20
-39.9999999999997158
 30
0.0
 40
55.0000000000002842
100
AcDbArc
 50
360.0
 51
89.9999999999995168
  0
ARC
  5
13E
100
AcDbEntity
  8
road
 62
256
370
-1
 48
1.0
  6
BYLAYER
100
AcDbCircle
 10
599.9999999999996589
 20
-39.9999999999997158
 30
0.0
 40
25.0000000000002842
100
AcDbArc
 50
360.0
 51
89.9999999999995168
  0
LINE
  5
13F
100
AcDbEntity
  8
road
 62
256
370
-1
 48
1.0
  6
BYLAYER
100
AcDbLine
 10
600.0
 20
15.0000000000005684
 30
0.0
 11
0.0000000000000009
 21
15.0
 31
0.0
  0
LINE
  5
140
100
AcDbEntity
  8
road
 62
256
370
-1
 48
1.0
  6
BYLAYER
100
AcDbLine
 10
600.0
 20
-14.9999999999994316
 30
0.0
 11
-0.0000000000000028
 21
-15.0
 31
0.0
  0
ENDSEC
  0
SECTION
  2
OBJECTS
  0
DICTIONARY
  5
C
100
AcDbDictionary
280
0
281
1
  3
ACAD_GROUP
350
D
  3
ACAD_LAYOUT
350
1A
  3
ACAD_MLINESTYLE
350
17
  3
ACAD_PLOTSETTINGS
350
19
  3
ACAD_PLOTSTYLENAME
350
E
  3
AcDbVariableDictionary
350
141
  3
QCAD_OBJECTS
350
142
  0
DICTIONARY
  5
D
100
AcDbDictionary
280
0
281
1
  0
ACDBDICTIONARYWDFLT
  5
E
100
AcDbDictionary
281
1
  3
Normal
350
F
100
AcDbDictionaryWithDefault
340
F
  0
ACDBPLACEHOLDER
  5
F
  0
DICTIONARY
  5
17
100
AcDbDictionary
280
0
281
1
  3
Standard
350
18
  0
MLINESTYLE
  5
18
100
AcDbMlineStyle
  2
STANDARD
 70
0
  3

 62
256
 51
90.0
 52
90.0
 71
2
 49
0.5
 62
256
  6
BYLAYER
 49
-0.5
 62
256
  6
BYLAYER
  0
DICTIONARY
  5
19
100
AcDbDictionary
280
0
281
1
  0
DICTIONARY
  5
1A
100
AcDbDictionary
281
1
  3
Layout1
350
1E
  3
Layout2
350
26
  3
Model
350
22
  0
LAYOUT
  5
1E
100
AcDbPlotSettings
  1

  2
none_device
  4

  6

 40
0.0
 41
0.0
 42
0.0
 43
0.0
 44
0.0
 45
0.0
 46
0.0
 47
0.0
 48
0.0
 49
0.0
140
0.0
141
0.0
142
1.0
143
1.0
 70
688
 72
0
 73
0
 74
5
  7

 75
16
147
1.0
148
0.0
149
0.0
100
AcDbLayout
  1
Layout1
 70
1
 71
1
 10
0.0
 20
0.0
 11
420.0
 21
297.0
 12
0.0
 22
0.0
 32
0.0
 14
100000000000000000000.0
 24
100000000000000000000.0
 34
100000000000000000000.0
 15
-100000000000000000000.0
 25
-100000000000000000000.0
 35
-100000000000000000000.0
146
0.0
 13
0.0
 23
0.0
 33
0.0
 16
1.0
 26
0.0
 36
0.0
 17
0.0
 27
1.0
 37
0.0
 76
0
330
1B
  0
LAYOUT
  5
22
100
AcDbPlotSettings
  1

  2
none_device
  4

  6

 40
0.0
 41
0.0
 42
0.0
 43
0.0
 44
0.0
 45
0.0
 46
0.0
 47
0.0
 48
0.0
 49
0.0
140
0.0
141
0.0
142
1.0
143
1.0
 70
1712
 72
0
 73
0
 74
0
  7

 75
0
147
1.0
148
0.0
149
0.0
100
AcDbLayout
  1
Model
 70
1
 71
0
 10
0.0
 20
0.0
 11
12.0
 21
9.0
 12
0.0
 22
0.0
 32
0.0
 14
0.0
 24
0.0
 34
0.0
 15
0.0
 25
0.0
 35
0.0
146
0.0
 13
0.0
 23
0.0
 33
0.0
 16
1.0
 26
0.0
 36
0.0
 17
0.0
 27
1.0
 37
0.0
 76
0
330
1F
  0
LAYOUT
  5
26
100
AcDbPlotSettings
  1

  2
none_device
  4

  6

 40
0.0
 41
0.0
 42
0.0
 43
0.0
 44
0.0
 45
0.0
 46
0.0
 47
0.0
 48
0.0
 49
0.0
140
0.0
141
0.0
142
1.0
143
1.0
 70
688
 72
0
 73
0
 74
5
  7

 75
16
147
1.0
148
0.0
149
0.0
100
AcDbLayout
  1
Layout2
 70
1
 71
2
 10
0.0
 20
0.0
 11
12.0
 21
9.0
 12
0.0
 22
0.0
 32
0.0
 14
0.0
 24
0.0
 34
0.0
 15
0.0
 25
0.0
 35
0.0
146
0.0
 13
0.0
 23
0.0
 33
0.0
 16
1.0
 26
0.0
 36
0.0
 17
0.0
 27
1.0
 37
0.0
 76
0
330
23
  0
DICTIONARY
  5
141
100
AcDbDictionary
281
1
  3
DIMASSOC
350
144
  3
HIDETEXT
350
143
  0
DICTIONARYVAR
  5
143
100
DictionaryVariables
280
0
  1
2
  0
DICTIONARYVAR
  5
144
100
DictionaryVariables
280
0
  1
1
  0
DICTIONARY
  5
142
100
AcDbDictionary
281
1
  3
ColorSettings/BackgroundColor
350
145
  3
ColorSettings/ColorMode
350
146
  3
Grid/DisplayGrid00
350
147
  3
Grid/DisplayGrid01
350
148
  3
Grid/DisplayGrid02
350
149
  3
Grid/DisplayGrid03
350
14A
  3
Grid/GridSpacingX00
350
14B
  3
Grid/GridSpacingX01
350
14C
  3
Grid/GridSpacingX02
350
14D
  3
Grid/GridSpacingX03
350
14E
  3
Grid/GridSpacingY00
350
14F
  3
Grid/GridSpacingY01
350
150
  3
Grid/GridSpacingY02
350
151
  3
Grid/GridSpacingY03
350
152
  3
Grid/IsometricGrid00
350
153
  3
Grid/IsometricGrid01
350
154
  3
Grid/IsometricGrid02
350
155
  3
Grid/IsometricGrid03
350
156
  3
Grid/IsometricProjection00
350
157
  3
Grid/IsometricProjection01
350
158
  3
Grid/IsometricProjection02
350
159
  3
Grid/IsometricProjection03
350
15A
  3
Grid/MetaGridSpacingX00
350
15B
  3
Grid/MetaGridSpacingX01
350
15C
  3
Grid/MetaGridSpacingX02
350
15D
  3
Grid/MetaGridSpacingX03
350
15E
  3
Grid/MetaGridSpacingY00
350
15F
  3
Grid/MetaGridSpacingY01
350
160
  3
Grid/MetaGridSpacingY02
350
161
  3
Grid/MetaGridSpacingY03
350
162
  3
MultiPageSettings/Columns
350
163
  3
MultiPageSettings/GlueMarginsBottom
350
164
  3
MultiPageSettings/GlueMarginsLeft
350
165
  3
MultiPageSettings/GlueMarginsRight
350
166
  3
MultiPageSettings/GlueMarginsTop
350
167
  3
MultiPageSettings/PrintCropMarks
350
168
  3
MultiPageSettings/Rows
350
169
  3
PageSettings/OffsetX
350
16A
  3
PageSettings/OffsetY
350
16B
  3
PageSettings/PageOrientation
350
16C
  3
PageSettings/PaperHeight
350
16D
  3
PageSettings/PaperWidth
350
16E
  3
PageSettings/Scale
350
16F
  3
PageSettings/ShowPaperBorders
350
170
  3
PageTagSettings/EnablePageTags
350
171
  3
PageTagSettings/TagAlignment
350
172
  3
PageTagSettings/TagFont
350
173
  3
PageTagSettings/TagPosition
350
174
  3
QCADVersion
350
175
  3
UnitSettings/PaperUnit
350
176
  3
ViewportCenter
350
177
  3
ViewportHeight
350
178
  3
ViewportWidth
350
179
  0
XRECORD
  5
145
330
142
100
AcDbXrecord
280
1
1000
\U+0411\U+0435\U+043b\U+044b\U+0439
  0
XRECORD
  5
146
330
142
100
AcDbXrecord
280
1
1000
FullColor
  0
XRECORD
  5
147
330
142
100
AcDbXrecord
280
1
290
1
  0
XRECORD
  5
148
330
142
100
AcDbXrecord
280
1
290
1
  0
XRECORD
  5
149
330
142
100
AcDbXrecord
280
1
290
1
  0
XRECORD
  5
14A
330
142
100
AcDbXrecord
280
1
290
1
  0
XRECORD
  5
14B
330
142
100
AcDbXrecord
280
1
1000
auto
  0
XRECORD
  5
14C
330
142
100
AcDbXrecord
280
1
1000
auto
  0
XRECORD
  5
14D
330
142
100
AcDbXrecord
280
1
1000
auto
  0
XRECORD
  5
14E
330
142
100
AcDbXrecord
280
1
1000
auto
  0
XRECORD
  5
14F
330
142
100
AcDbXrecord
280
1
1000
auto
  0
XRECORD
  5
150
330
142
100
AcDbXrecord
280
1
1000
auto
  0
XRECORD
  5
151
330
142
100
AcDbXrecord
280
1
1000
auto
  0
XRECORD
  5
152
330
142
100
AcDbXrecord
280
1
1000
auto
  0
XRECORD
  5
153
330
142
100
AcDbXrecord
280
1
290
0
  0
XRECORD
  5
154
330
142
100
AcDbXrecord
280
1
290
0
  0
XRECORD
  5
155
330
142
100
AcDbXrecord
280
1
290
0
  0
XRECORD
  5
156
330
142
100
AcDbXrecord
280
1
290
0
  0
XRECORD
  5
157
330
142
100
AcDbXrecord
280
1
 90
65537
  0
XRECORD
  5
158
330
142
100
AcDbXrecord
280
1
 90
65537
  0
XRECORD
  5
159
330
142
100
AcDbXrecord
280
1
 90
65537
  0
XRECORD
  5
15A
330
142
100
AcDbXrecord
280
1
 90
65537
  0
XRECORD
  5
15B
330
142
100
AcDbXrecord
280
1
1000
auto
  0
XRECORD
  5
15C
330
142
100
AcDbXrecord
280
1
1000
auto
  0
XRECORD
  5
15D
330
142
100
AcDbXrecord
280
1
1000
auto
  0
XRECORD
  5
15E
330
142
100
AcDbXrecord
280
1
1000
auto
  0
XRECORD
  5
15F
330
142
100
AcDbXrecord
280
1
1000
auto
  0
XRECORD
  5
160
330
142
100
AcDbXrecord
280
1
1000
auto
  0
XRECORD
  5
161
330
142
100
AcDbXrecord
280
1
1000
auto
  0
XRECORD
  5
162
330
142
100
AcDbXrecord
280
1
1000
auto
  0
XRECORD
  5
163
330
142
100
AcDbXrecord
280
1
 90
1
  0
XRECORD
  5
164
330
142
100
AcDbXrecord
280
1
 40
10.0
  0
XRECORD
  5
165
330
142
100
AcDbXrecord
280
1
 40
10.0
  0
XRECORD
  5
166
330
142
100
AcDbXrecord
280
1
 40
10.0
  0
XRECORD
  5
167
330
142
100
AcDbXrecord
280
1
 40
10.0
  0
XRECORD
  5
168
330
142
100
AcDbXrecord
280
1
290
0
  0
XRECORD
  5
169
330
142
100
AcDbXrecord
280
1
 90
1
  0
XRECORD
  5
16A
330
142
100
AcDbXrecord
280
1
 40
0.0
  0
XRECORD
  5
16B
330
142
100
AcDbXrecord
280
1
 40
0.0
  0
XRECORD
  5
16C
330
142
100
AcDbXrecord
280
1
1000
Portrait
  0
XRECORD
  5
16D
330
142
100
AcDbXrecord
280
1
 40
297.0
  0
XRECORD
  5
16E
330
142
100
AcDbXrecord
280
1
 40
210.0
  0
XRECORD
  5
16F
330
142
100
AcDbXrecord
280
1
1000
1:1
  0
XRECORD
  5
170
330
142
100
AcDbXrecord
280
1
290
1
  0
XRECORD
  5
171
330
142
100
AcDbXrecord
280
1
290
0
  0
XRECORD
  5
172
330
142
100
AcDbXrecord
280
1
1000
Inside
  0
XRECORD
  5
173
330
142
100
AcDbXrecord
280
1
1000
Arial,10,-1,5,50,0,0,0,0,0
  0
XRECORD
  5
174
330
142
100
AcDbXrecord
280
1
1000
TopLeft
  0
XRECORD
  5
175
330
142
100
AcDbXrecord
280
1
1000
3.30.1
  0
XRECORD
  5
176
330
142
100
AcDbXrecord
280
1
 90
4
  0
XRECORD
  5
178
330
142
100
AcDbXrecord
280
1
 40
2761.0763157605133529
  0
XRECORD
  5
179
330
142
100
AcDbXrecord
280
1
 40
3664.9264101574526649
  0
ENDSEC
  0
EOF
